<svg width="12" height="15" viewBox="0 0 12 15" fill="none" xmlns="http://www.w3.org/2000/svg">
<path d="M1.5575 13.58C1.3675 13.58 1.1775 13.4375 1.1775 13.2V1.32501C1.1775 1.08751 1.3675 0.945007 1.5575 0.945007C1.605 0.945007 1.7 0.945008 1.7475 0.992508L10.9625 6.93001C11.105 7.02501 11.1525 7.16751 11.1525 7.26251C11.1525 7.31001 11.1525 7.50001 10.9625 7.59501L1.7475 13.5325C1.7 13.58 1.605 13.58 1.5575 13.58Z" fill="#6600CC"/>
<path d="M1.795 1.7525L10.345 7.2625L1.795 12.7725V1.7525ZM1.5575 0.279999C1.035 0.279999 0.559998 0.707499 0.559998 1.2775V13.2C0.559998 13.77 1.035 14.1975 1.5575 14.1975C1.7475 14.1975 1.9375 14.15 2.08 14.055L11.295 8.1175C11.9125 7.7375 11.9125 6.835 11.295 6.455L2.08 0.469999C1.9375 0.327499 1.7475 0.279999 1.5575 0.279999Z" fill="#6600CC"/>
</svg>
