<svg width="512" height="512" viewBox="0 0 512 512" fill="none" xmlns="http://www.w3.org/2000/svg">
<path d="M416 221.25V416C416 428.73 410.943 440.939 401.941 449.941C392.939 458.943 380.73 464 368 464H144C131.27 464 119.061 458.943 110.059 449.941C101.057 440.939 96 428.73 96 416V96C96 83.2696 101.057 71.0606 110.059 62.0589C119.061 53.0571 131.27 48 144 48H242.75C251.234 48.0013 259.37 51.3716 265.37 57.37L406.63 198.63C412.628 204.63 415.999 212.766 416 221.25Z" stroke="black" stroke-width="32" stroke-linejoin="round"/>
<path d="M256 56V176C256 184.487 259.371 192.626 265.373 198.627C271.374 204.629 279.513 208 288 208H408" stroke="black" stroke-width="32" stroke-linecap="round" stroke-linejoin="round"/>
</svg>
