<svg width="727" height="111" viewBox="0 0 727 111" fill="none" xmlns="http://www.w3.org/2000/svg">
    <path d="M86 44L224 44" stroke="#6600CC" stroke-width="7" stroke-linecap="round"/>
    <path d="M514 44L652 44" stroke="#6600CC" stroke-width="7" stroke-linecap="round"/>
    <path d="M300 44L438 44" stroke="#6600CC" stroke-width="7" stroke-linecap="round"/>
    <circle cx="48" cy="43.5" r="23.5" fill="#6600CC" stroke="white" stroke-width="3"/>
    <circle cx="262" cy="43.5" r="23.5" fill="#6600CC" stroke="white" stroke-width="3"/>
    <circle cx="476" cy="43.5" r="23.5" fill="#6600CC" stroke="white" stroke-width="3"/>
    <circle cx="690" cy="43.5" r="23.5" fill="#6600CC" stroke="white" stroke-width="3"/>
    <path d="M243.292 83.78V83.408C243.292 82.748 243.268 82.376 243.196 81.944C243.652 81.956 244.108 81.98 244.516 82.028C244.624 82.04 244.708 82.088 244.708 82.148C244.708 82.244 244.684 82.316 244.648 82.4C244.588 82.556 244.564 82.82 244.564 83.384V83.78H246.676C247.84 83.78 248.248 83.756 248.32 83.756C248.44 83.756 248.452 83.768 248.452 83.888C248.452 83.96 248.428 84.404 248.428 85.736V87.488C248.428 89.72 248.452 90.14 248.452 90.212C248.452 90.332 248.44 90.344 248.32 90.344H247.312C247.192 90.344 247.18 90.332 247.18 90.212V89.804H244.564V90.584C244.564 92.012 244.576 92.744 244.576 92.804C244.576 92.924 244.564 92.936 244.456 92.936H243.388C243.28 92.936 243.268 92.924 243.268 92.804C243.268 92.732 243.292 92.012 243.292 90.596V89.804H240.76V90.26C240.76 90.38 240.748 90.392 240.628 90.392H239.62C239.5 90.392 239.488 90.38 239.488 90.26C239.488 90.188 239.512 89.768 239.512 87.524V85.964C239.512 84.404 239.488 83.972 239.488 83.888C239.488 83.768 239.5 83.756 239.62 83.756C239.704 83.756 240.112 83.78 241.264 83.78H243.292ZM244.564 88.712H247.18V87.284H244.564V88.712ZM240.76 88.712H243.292V87.284H240.76V88.712ZM247.18 84.872H244.564V86.216H247.18V84.872ZM240.76 84.872V86.216H243.292V84.872H240.76ZM260.656 88.832V89.888C260.656 90.488 260.668 91.184 260.668 91.604C260.668 92.06 260.608 92.384 260.368 92.588C260.164 92.768 259.9 92.852 259.024 92.852C258.652 92.864 258.628 92.84 258.568 92.576C258.496 92.276 258.424 92.024 258.256 91.76C258.52 91.784 258.856 91.796 259.072 91.796C259.468 91.796 259.54 91.664 259.54 91.424V90.968H256.624V91.388C256.624 92.348 256.648 92.756 256.648 92.816C256.648 92.936 256.636 92.948 256.516 92.948H255.604C255.484 92.948 255.472 92.936 255.472 92.816C255.472 92.744 255.496 92.384 255.496 91.412V88.736C255.496 87.884 255.472 87.512 255.472 87.428C255.472 87.308 255.484 87.296 255.604 87.296C255.688 87.296 256.036 87.32 257.044 87.32H259.108C260.128 87.32 260.464 87.296 260.536 87.296C260.668 87.296 260.68 87.308 260.68 87.428C260.68 87.5 260.656 87.956 260.656 88.832ZM256.624 90.176H259.54V89.576H256.624V90.176ZM259.54 88.232H256.624V88.784H259.54V88.232ZM259.192 85.34H258.58V85.904H259.804C260.944 85.904 261.328 85.88 261.4 85.88C261.508 85.88 261.52 85.892 261.52 86.024V86.708C261.52 86.816 261.508 86.828 261.4 86.828C261.328 86.828 260.944 86.816 259.804 86.816H256.576C255.436 86.816 255.04 86.828 254.968 86.828C254.848 86.828 254.836 86.816 254.836 86.708V86.024C254.836 85.892 254.848 85.88 254.968 85.88C255.04 85.88 255.436 85.904 256.576 85.904H257.416V85.34H256.996C255.976 85.34 255.628 85.364 255.556 85.364C255.448 85.364 255.436 85.352 255.436 85.232V84.62C255.436 84.5 255.448 84.488 255.556 84.488C255.628 84.488 255.976 84.512 256.996 84.512H257.416V83.96H256.828C255.748 83.96 255.388 83.984 255.316 83.984C255.196 83.984 255.184 83.972 255.184 83.852V83.192C255.184 83.072 255.196 83.06 255.316 83.06C255.388 83.06 255.748 83.084 256.828 83.084H257.416C257.404 82.652 257.38 82.304 257.332 81.908C257.788 81.92 258.112 81.944 258.52 81.992C258.64 82.004 258.712 82.076 258.712 82.124C258.712 82.232 258.664 82.316 258.64 82.412C258.604 82.544 258.58 82.712 258.58 83.084H259.516C260.596 83.084 260.968 83.06 261.04 83.06C261.16 83.06 261.172 83.072 261.172 83.192V83.852C261.172 83.972 261.16 83.984 261.04 83.984C260.968 83.984 260.596 83.96 259.516 83.96H258.58V84.512H259.18C260.212 84.512 260.548 84.488 260.62 84.488C260.752 84.488 260.764 84.5 260.764 84.62V85.232C260.764 85.352 260.752 85.364 260.62 85.364C260.548 85.364 260.212 85.34 259.192 85.34ZM254.524 90.056V90.884C254.524 92.276 254.548 92.54 254.548 92.612C254.548 92.732 254.536 92.744 254.416 92.744H253.564C253.444 92.744 253.432 92.732 253.432 92.612V92.288H252.184V92.828C252.184 92.948 252.172 92.96 252.052 92.96H251.2C251.068 92.96 251.056 92.948 251.056 92.828C251.056 92.756 251.08 92.48 251.08 91.028V90.26C251.08 89.504 251.056 89.216 251.056 89.132C251.056 89.012 251.068 89 251.2 89C251.272 89 251.524 89.024 252.292 89.024H253.312C254.092 89.024 254.332 89 254.416 89C254.536 89 254.548 89.012 254.548 89.132C254.548 89.204 254.524 89.492 254.524 90.056ZM253.432 90.02H252.184V91.292H253.432V90.02ZM251.992 84.068H253.432C254.344 84.068 254.644 84.044 254.716 84.044C254.836 84.044 254.848 84.056 254.848 84.176V85.028C254.848 85.16 254.836 85.172 254.716 85.172C254.644 85.172 254.344 85.148 253.432 85.148H251.992C251.08 85.148 250.78 85.172 250.708 85.172C250.6 85.172 250.588 85.16 250.588 85.028V84.176C250.588 84.056 250.6 84.044 250.708 84.044C250.78 84.044 251.08 84.068 251.992 84.068ZM252.316 82.424H253.324C254.104 82.424 254.332 82.4 254.404 82.4C254.536 82.4 254.548 82.412 254.548 82.532V83.324C254.548 83.444 254.536 83.456 254.404 83.456C254.332 83.456 254.104 83.432 253.324 83.432H252.316C251.536 83.432 251.296 83.456 251.224 83.456C251.104 83.456 251.092 83.444 251.092 83.324V82.532C251.092 82.412 251.104 82.4 251.224 82.4C251.296 82.4 251.536 82.424 252.316 82.424ZM252.364 85.772H253.276C254.008 85.772 254.224 85.748 254.284 85.748C254.416 85.748 254.428 85.76 254.428 85.88V86.66C254.428 86.78 254.416 86.792 254.284 86.792C254.224 86.792 254.008 86.768 253.276 86.768H252.364C251.632 86.768 251.416 86.792 251.344 86.792C251.224 86.792 251.212 86.78 251.212 86.66V85.88C251.212 85.76 251.224 85.748 251.344 85.748C251.416 85.748 251.632 85.772 252.364 85.772ZM252.364 87.392H253.276C254.008 87.392 254.224 87.368 254.284 87.368C254.416 87.368 254.428 87.38 254.428 87.5V88.268C254.428 88.388 254.416 88.4 254.284 88.4C254.224 88.4 254.008 88.376 253.276 88.376H252.364C251.632 88.376 251.416 88.4 251.344 88.4C251.224 88.4 251.212 88.388 251.212 88.268V87.5C251.212 87.38 251.224 87.368 251.344 87.368C251.416 87.368 251.632 87.392 252.364 87.392ZM269.164 88.124H268.108C266.968 88.124 266.56 88.148 266.488 88.148C266.368 88.148 266.356 88.136 266.356 88.028V87.212C266.356 87.08 266.368 87.068 266.488 87.068C266.56 87.068 266.968 87.092 268.108 87.092H271.636C272.788 87.092 273.184 87.068 273.256 87.068C273.388 87.068 273.4 87.08 273.4 87.212V88.028C273.4 88.136 273.388 88.148 273.256 88.148C273.184 88.148 272.788 88.124 271.636 88.124H270.34V89.264H271.408C272.248 89.264 272.548 89.24 272.632 89.24C272.752 89.24 272.764 89.252 272.764 89.372V90.152C272.764 90.272 272.752 90.284 272.632 90.284C272.548 90.284 272.248 90.26 271.408 90.26H270.34V91.52C270.844 91.604 271.42 91.628 272.08 91.64C272.632 91.64 273.136 91.628 273.688 91.592C273.592 91.796 273.52 92.06 273.472 92.36C273.424 92.756 273.376 92.768 273.028 92.768H272.212C269.968 92.732 268.516 92.36 267.58 91.04C267.304 91.628 266.944 92.156 266.44 92.672C266.332 92.78 266.26 92.84 266.2 92.84C266.116 92.84 266.044 92.768 265.924 92.624C265.732 92.384 265.504 92.192 265.3 92.072C266.392 91.244 266.8 90.2 267.04 89.168C267.1 88.904 267.124 88.688 267.136 88.484C267.52 88.568 267.784 88.628 268.12 88.724C268.276 88.772 268.348 88.808 268.348 88.904C268.348 88.988 268.312 89.036 268.252 89.108C268.204 89.168 268.18 89.252 268.132 89.42C268.072 89.624 268.024 89.828 267.964 90.02C268.276 90.56 268.672 90.932 269.164 91.172V88.124ZM268.564 82.352H270.904C271.948 82.352 272.296 82.328 272.368 82.328C272.488 82.328 272.5 82.34 272.5 82.472C272.5 82.544 272.476 82.844 272.476 83.564V85.232C272.476 85.94 272.5 86.252 272.5 86.324C272.5 86.444 272.488 86.456 272.368 86.456C272.296 86.456 271.948 86.432 270.904 86.432H268.564C267.508 86.432 267.16 86.456 267.088 86.456C266.968 86.456 266.956 86.444 266.956 86.324C266.956 86.24 266.98 85.94 266.98 85.232V83.564C266.98 82.844 266.956 82.544 266.956 82.472C266.956 82.34 266.968 82.328 267.088 82.328C267.16 82.328 267.508 82.352 268.564 82.352ZM271.3 85.532V84.824H268.144V85.532H271.3ZM271.3 83.276H268.144V83.972H271.3V83.276ZM265.108 88.424V89C265.108 90.152 265.144 90.8 265.144 91.4C265.144 92.06 265.048 92.384 264.76 92.588C264.496 92.78 264.196 92.84 263.44 92.852C263.068 92.864 263.068 92.864 262.972 92.492C262.9 92.156 262.792 91.844 262.684 91.628C262.972 91.664 263.248 91.664 263.56 91.664C263.86 91.664 263.932 91.556 263.932 91.208V88.844C263.752 88.904 263.584 88.964 263.416 89.012C263.2 89.084 263.068 89.156 262.996 89.216C262.936 89.264 262.864 89.288 262.804 89.288C262.732 89.288 262.684 89.24 262.66 89.144C262.576 88.82 262.504 88.4 262.456 87.992C262.804 87.944 263.128 87.884 263.548 87.764L263.932 87.656V85.412H263.776C262.96 85.412 262.72 85.436 262.648 85.436C262.528 85.436 262.516 85.424 262.516 85.304V84.428C262.516 84.308 262.528 84.296 262.648 84.296C262.72 84.296 262.96 84.32 263.776 84.32H263.932V83.684C263.932 82.916 263.92 82.532 263.848 81.98C264.292 81.992 264.652 82.016 265.072 82.064C265.18 82.076 265.264 82.124 265.264 82.196C265.264 82.292 265.216 82.364 265.18 82.448C265.108 82.592 265.108 82.844 265.108 83.66V84.32C265.816 84.32 266.056 84.296 266.128 84.296C266.248 84.296 266.26 84.308 266.26 84.428V85.304C266.26 85.424 266.248 85.436 266.128 85.436C266.056 85.436 265.816 85.412 265.108 85.412V87.272C265.444 87.14 265.792 87.008 266.14 86.84C266.116 87.08 266.104 87.344 266.092 87.62C266.092 88.016 266.08 87.992 265.732 88.148L265.108 88.424ZM283.036 86.156V84.812C283.036 84.128 283.024 83.756 282.976 83.288C283.42 83.3 283.804 83.324 284.224 83.372C284.344 83.384 284.416 83.432 284.416 83.504C284.416 83.588 284.38 83.672 284.356 83.744C284.296 83.9 284.272 84.128 284.272 84.92V86.612C284.272 87.332 284.296 87.68 284.296 87.752C284.296 87.884 284.284 87.896 284.176 87.896H283.18C283.048 87.896 283.036 87.884 283.036 87.752V87.308H280.576V91.004H283.42V90.092C283.42 89.396 283.408 89.036 283.348 88.568C283.804 88.58 284.2 88.604 284.608 88.652C284.716 88.664 284.788 88.724 284.788 88.784C284.788 88.868 284.752 88.952 284.728 89.024C284.668 89.18 284.644 89.408 284.644 90.2V91.652C284.644 92.324 284.668 92.636 284.668 92.708C284.668 92.816 284.656 92.828 284.536 92.828H283.552C283.432 92.828 283.42 92.816 283.42 92.708V92.156H276.592V92.768C276.592 92.876 276.58 92.888 276.46 92.888H275.476C275.344 92.888 275.332 92.876 275.332 92.768C275.332 92.684 275.356 92.384 275.356 91.712V90.128C275.356 89.444 275.344 89.084 275.284 88.616C275.74 88.628 276.136 88.652 276.544 88.7C276.664 88.712 276.748 88.76 276.748 88.832C276.748 88.916 276.7 89 276.676 89.072C276.616 89.216 276.592 89.456 276.592 90.116V91.004H279.292V87.308H276.976V87.8C276.976 87.92 276.964 87.932 276.844 87.932H275.848C275.728 87.932 275.716 87.92 275.716 87.8C275.716 87.716 275.74 87.38 275.74 86.66V84.86C275.74 84.164 275.728 83.804 275.668 83.324C276.124 83.336 276.52 83.36 276.928 83.408C277.048 83.42 277.108 83.48 277.108 83.552C277.108 83.636 277.072 83.696 277.048 83.792C276.988 83.936 276.976 84.176 276.976 84.848V86.156H279.292V83.528C279.292 82.82 279.268 82.448 279.208 81.98C279.664 81.992 280.108 82.028 280.528 82.076C280.636 82.088 280.708 82.124 280.708 82.196C280.708 82.28 280.672 82.34 280.636 82.436C280.588 82.592 280.576 82.76 280.576 83.54V86.156H283.036Z"
          fill="black"/>
    <path d="M655.36 92.876H654.496C654.376 92.876 654.364 92.864 654.364 92.756C654.364 92.672 654.388 92.336 654.388 90.476V89.3C654.388 88.136 654.364 87.788 654.364 87.704C654.364 87.584 654.376 87.572 654.496 87.572C654.58 87.572 654.964 87.596 656.044 87.596H658.66C659.752 87.596 660.124 87.572 660.196 87.572C660.316 87.572 660.328 87.584 660.328 87.704C660.328 87.776 660.304 88.136 660.304 89.108V90.404C660.304 92.228 660.328 92.576 660.328 92.648C660.328 92.768 660.316 92.78 660.196 92.78H659.344C659.224 92.78 659.212 92.768 659.212 92.648V92.276H655.504V92.756C655.504 92.864 655.492 92.876 655.36 92.876ZM657.88 91.328H659.212V90.368H657.88V91.328ZM655.504 91.328H656.812V90.368H655.504V91.328ZM659.212 88.544H657.88V89.468H659.212V88.544ZM655.504 88.544V89.468H656.812V88.544H655.504ZM664.624 83.84V88.94C664.624 89.78 664.66 90.716 664.66 91.316C664.66 91.904 664.564 92.252 664.228 92.492C663.904 92.72 663.508 92.792 662.464 92.792C662.104 92.792 662.104 92.792 662.02 92.408C661.936 92.048 661.828 91.748 661.66 91.472C662.188 91.532 662.524 91.544 662.86 91.544C663.268 91.544 663.388 91.46 663.388 91.076V83.864C663.388 83.084 663.364 82.712 663.292 82.16C663.724 82.172 664.168 82.184 664.588 82.232C664.708 82.244 664.78 82.304 664.78 82.364C664.78 82.472 664.732 82.532 664.696 82.616C664.636 82.772 664.624 83.024 664.624 83.84ZM656.392 84.236H658.348C659.32 84.236 659.656 84.212 659.728 84.212C659.86 84.212 659.872 84.224 659.872 84.356C659.872 84.428 659.848 84.62 659.848 85.16V86.012C659.848 86.54 659.872 86.756 659.872 86.828C659.872 86.936 659.86 86.948 659.728 86.948C659.656 86.948 659.32 86.924 658.348 86.924H656.392C655.408 86.924 655.096 86.948 655.012 86.948C654.892 86.948 654.88 86.936 654.88 86.828C654.88 86.744 654.904 86.54 654.904 86.012V85.16C654.904 84.62 654.88 84.428 654.88 84.356C654.88 84.224 654.892 84.212 655.012 84.212C655.096 84.212 655.408 84.236 656.392 84.236ZM658.708 86V85.16H656.068V86H658.708ZM661.096 88.136V84.824C661.096 84.032 661.084 83.612 661.012 83.048C661.432 83.06 661.828 83.084 662.236 83.132C662.356 83.144 662.416 83.192 662.416 83.264C662.416 83.36 662.356 83.444 662.332 83.528C662.296 83.696 662.296 83.936 662.296 84.812V88.136C662.296 89.156 662.32 89.648 662.32 89.72C662.32 89.84 662.308 89.852 662.176 89.852H661.204C661.084 89.852 661.072 89.84 661.072 89.72C661.072 89.648 661.096 89.156 661.096 88.136ZM658.792 83.564H655.876C654.76 83.564 654.376 83.588 654.304 83.588C654.184 83.588 654.172 83.576 654.172 83.444V82.592C654.172 82.472 654.184 82.46 654.304 82.46C654.376 82.46 654.76 82.484 655.876 82.484H658.792C659.896 82.484 660.268 82.46 660.34 82.46C660.472 82.46 660.484 82.472 660.484 82.592V83.444C660.484 83.576 660.472 83.588 660.34 83.588C660.268 83.588 659.896 83.564 658.792 83.564ZM675.244 92.504H667.804C666.736 92.504 666.376 92.528 666.292 92.528C666.184 92.528 666.172 92.516 666.172 92.408V91.448C666.172 91.328 666.184 91.316 666.292 91.316C666.376 91.316 666.736 91.34 667.804 91.34H668.128V88.712C668.128 88.136 668.116 87.74 668.032 87.404C668.488 87.416 668.956 87.44 669.388 87.488C669.508 87.5 669.58 87.56 669.58 87.62C669.58 87.728 669.532 87.788 669.496 87.872C669.436 88.016 669.424 88.256 669.424 88.748V91.34H671.08V86.768C671.08 86.204 671.068 85.796 670.996 85.46C671.44 85.472 671.932 85.496 672.34 85.544C672.46 85.556 672.532 85.616 672.532 85.676C672.532 85.784 672.496 85.856 672.46 85.94C672.388 86.084 672.388 86.324 672.388 86.804V87.92H673.6C674.692 87.92 675.076 87.896 675.148 87.896C675.268 87.896 675.28 87.908 675.28 88.028V88.964C675.28 89.084 675.268 89.096 675.148 89.096C675.076 89.096 674.692 89.072 673.6 89.072H672.388V91.34H675.244C676.3 91.34 676.672 91.316 676.744 91.316C676.864 91.316 676.876 91.328 676.876 91.448V92.408C676.876 92.516 676.864 92.528 676.744 92.528C676.672 92.528 676.3 92.504 675.244 92.504ZM672.256 82.424L672.16 82.508C673.504 84.248 675.232 85.388 677.296 86.144C677.08 86.42 676.9 86.696 676.756 87.068C676.672 87.284 676.636 87.368 676.552 87.368C676.492 87.368 676.408 87.332 676.276 87.272C674.236 86.336 672.652 85.124 671.476 83.48C670.192 85.208 668.632 86.408 666.868 87.32C666.724 87.392 666.64 87.44 666.58 87.44C666.496 87.44 666.46 87.356 666.364 87.152C666.22 86.84 666.016 86.552 665.8 86.324C668.044 85.328 669.472 84.068 670.432 82.676C670.648 82.364 670.768 82.112 670.876 81.788C671.344 81.848 671.824 81.968 672.172 82.052C672.304 82.088 672.388 82.148 672.388 82.244C672.388 82.316 672.34 82.376 672.256 82.424ZM682.912 83.564H679.9C678.82 83.564 678.448 83.588 678.376 83.588C678.256 83.588 678.244 83.576 678.244 83.468V82.544C678.244 82.412 678.256 82.4 678.376 82.4C678.448 82.4 678.82 82.424 679.9 82.424H687.1C688.192 82.424 688.552 82.4 688.624 82.4C688.744 82.4 688.756 82.412 688.756 82.544V83.468C688.756 83.576 688.744 83.588 688.624 83.588C688.552 83.588 688.192 83.564 687.1 83.564H684.028V84.74H684.76C685.84 84.74 686.2 84.716 686.272 84.716C686.404 84.716 686.416 84.728 686.416 84.86C686.416 84.932 686.392 85.304 686.392 86.156V88.88C686.392 89.72 686.416 90.104 686.416 90.176C686.416 90.296 686.404 90.308 686.272 90.308C686.2 90.308 685.84 90.284 684.76 90.284H682.24C681.172 90.284 680.812 90.308 680.728 90.308C680.608 90.308 680.596 90.296 680.596 90.176C680.596 90.104 680.62 89.72 680.62 88.88V86.156C680.62 85.304 680.596 84.932 680.596 84.86C680.596 84.728 680.608 84.716 680.728 84.716C680.812 84.716 681.172 84.74 682.24 84.74H682.912V83.564ZM685.3 89.3V87.92H684.016V89.3H685.3ZM681.7 89.3H682.924V87.92H681.7V89.3ZM685.3 85.724H684.016V86.996H685.3V85.724ZM681.7 86.996H682.924V85.724H681.7V86.996ZM687.34 91.172V86.552C687.34 85.976 687.328 85.268 687.268 84.8C687.724 84.824 688.096 84.848 688.48 84.896C688.624 84.92 688.708 84.968 688.708 85.076C688.708 85.16 688.684 85.232 688.636 85.304C688.564 85.412 688.54 85.772 688.54 86.564V90.392C688.54 91.916 688.564 92.708 688.564 92.78C688.564 92.9 688.552 92.912 688.432 92.912H687.472C687.352 92.912 687.34 92.9 687.34 92.78V92.3H679.684V92.78C679.684 92.9 679.672 92.912 679.552 92.912H678.604C678.484 92.912 678.472 92.9 678.472 92.78C678.472 92.696 678.496 91.928 678.496 90.416V86.492C678.496 85.88 678.484 85.208 678.424 84.8C678.892 84.824 679.24 84.848 679.624 84.896C679.768 84.92 679.852 84.98 679.852 85.076C679.852 85.184 679.804 85.256 679.768 85.328C679.696 85.448 679.684 85.844 679.684 86.576V91.172H687.34ZM693.604 86.9H697.42C698.572 86.9 698.98 86.876 699.064 86.876C699.184 86.876 699.196 86.888 699.196 87.008C699.196 87.092 699.172 87.404 699.172 88.088V89.912C699.172 90.632 699.196 90.956 699.196 91.028C699.196 91.148 699.184 91.16 699.064 91.16C698.98 91.16 698.608 91.136 697.636 91.136C698.488 91.604 699.52 91.844 700.876 91.976C700.684 92.168 700.516 92.384 700.312 92.72C700.192 92.9 700.144 92.96 700.024 92.96C699.952 92.96 699.868 92.948 699.736 92.924C698.608 92.72 697.348 92.288 696.496 91.736C696.376 91.664 696.412 91.628 696.556 91.556L697.324 91.136H693.556C693.844 91.256 694.12 91.388 694.384 91.532C694.504 91.604 694.54 91.64 694.54 91.7C694.54 91.784 694.48 91.832 694.36 91.856C694.228 91.88 694.096 91.916 693.892 92.036C693.256 92.396 692.236 92.732 691.168 92.924C691.048 92.948 690.964 92.96 690.904 92.96C690.772 92.96 690.7 92.888 690.604 92.696C690.448 92.396 690.244 92.12 690.1 91.976C691.18 91.88 692.128 91.664 692.812 91.376C692.956 91.316 693.088 91.244 693.232 91.136C692.368 91.148 692.02 91.16 691.96 91.16C691.828 91.16 691.816 91.148 691.816 91.028C691.816 90.944 691.84 90.632 691.84 89.912V88.088C691.84 87.404 691.816 87.092 691.816 87.008C691.816 86.888 691.828 86.876 691.96 86.876C692.032 86.876 692.452 86.9 693.604 86.9ZM698.008 90.392V89.9H693.004V90.392H698.008ZM693.004 89.252H698.008V88.784H693.004V89.252ZM693.004 87.668V88.136H698.008V87.668H693.004ZM699.172 86.432H691.84C690.772 86.432 690.4 86.456 690.328 86.456C690.208 86.456 690.196 86.444 690.196 86.324V85.664C690.196 85.556 690.208 85.544 690.328 85.544C690.4 85.544 690.772 85.568 691.84 85.568H694.792V85.04H693.328C692.176 85.04 691.768 85.064 691.696 85.064C691.564 85.064 691.552 85.052 691.552 84.932V84.38C691.552 84.26 691.564 84.248 691.696 84.248C691.768 84.248 692.176 84.272 693.328 84.272H694.792V83.756H692.68C691.528 83.756 691.144 83.78 691.072 83.78C690.94 83.78 690.928 83.768 690.928 83.648V83C690.928 82.88 690.94 82.868 691.072 82.868C691.144 82.868 691.528 82.892 692.68 82.892H694.792C694.792 82.484 694.768 82.196 694.696 81.908C695.14 81.92 695.536 81.944 695.956 81.992C696.076 82.004 696.136 82.064 696.136 82.112C696.136 82.208 696.112 82.256 696.064 82.364C696.004 82.46 695.992 82.604 695.992 82.892H698.32C699.472 82.892 699.856 82.868 699.928 82.868C700.06 82.868 700.072 82.88 700.072 83V83.648C700.072 83.768 700.06 83.78 699.928 83.78C699.856 83.78 699.472 83.756 698.32 83.756H695.992V84.272H697.708C698.86 84.272 699.268 84.248 699.34 84.248C699.472 84.248 699.484 84.26 699.484 84.38V84.932C699.484 85.052 699.472 85.064 699.34 85.064C699.268 85.064 698.86 85.04 697.708 85.04H695.992V85.568H699.172C700.24 85.568 700.612 85.544 700.684 85.544C700.804 85.544 700.816 85.556 700.816 85.664V86.324C700.816 86.444 700.804 86.456 700.684 86.456C700.612 86.456 700.24 86.432 699.172 86.432ZM710.776 92.384H707.344C706.192 92.384 705.796 92.408 705.724 92.408C705.604 92.408 705.604 92.396 705.604 92.276V91.328C705.604 91.208 705.604 91.196 705.724 91.196C705.796 91.196 706.192 91.22 707.344 91.22H708.304V88.172H706.948C705.772 88.172 705.376 88.196 705.304 88.196C705.184 88.196 705.172 88.184 705.172 88.064V87.128C705.172 86.996 705.184 86.984 705.304 86.984C705.376 86.984 705.772 87.008 706.948 87.008H708.304V84.596C707.632 84.74 706.924 84.872 706.144 84.98C705.784 85.028 705.76 85.028 705.676 84.644C705.604 84.32 705.508 84.092 705.364 83.84C707.728 83.576 709.252 83.18 710.596 82.64C710.956 82.496 711.148 82.388 711.34 82.232C711.64 82.544 711.868 82.82 712.096 83.168C712.168 83.264 712.192 83.324 712.192 83.384C712.192 83.456 712.12 83.504 711.964 83.516C711.796 83.528 711.544 83.588 711.28 83.696C710.728 83.912 710.176 84.104 709.6 84.272V87.008H711.184C712.36 87.008 712.756 86.984 712.828 86.984C712.948 86.984 712.96 86.996 712.96 87.128V88.064C712.96 88.184 712.948 88.196 712.828 88.196C712.756 88.196 712.36 88.172 711.184 88.172H709.6V91.22H710.776C711.928 91.22 712.324 91.196 712.396 91.196C712.516 91.196 712.528 91.208 712.528 91.328V92.276C712.528 92.396 712.516 92.408 712.396 92.408C712.324 92.408 711.928 92.384 710.776 92.384ZM703.312 90.98V88.22C703.312 87.788 703.312 87.26 703.324 86.744C703.084 87.068 702.844 87.368 702.616 87.632C702.532 87.74 702.46 87.8 702.4 87.8C702.328 87.8 702.268 87.716 702.22 87.524C702.124 87.176 701.98 86.84 701.8 86.588C702.904 85.46 703.636 84.176 704.14 82.76C704.236 82.484 704.308 82.208 704.344 81.92C704.8 82.028 705.172 82.136 705.544 82.28C705.664 82.328 705.736 82.364 705.736 82.448C705.736 82.544 705.7 82.58 705.604 82.664C705.52 82.724 705.436 82.892 705.316 83.204C705.1 83.768 704.836 84.32 704.548 84.86V90.98C704.548 92.156 704.572 92.744 704.572 92.804C704.572 92.924 704.56 92.936 704.428 92.936H703.42C703.3 92.936 703.288 92.924 703.288 92.804C703.288 92.732 703.312 92.156 703.312 90.98ZM716.776 90.548V88.904C716.188 89.168 715.6 89.432 714.988 89.672C714.856 89.72 714.784 89.756 714.724 89.756C714.628 89.756 714.58 89.672 714.46 89.456C714.316 89.192 714.124 88.94 713.932 88.76C715.768 88.16 717.388 87.476 718.756 86.672H715.78C714.724 86.672 714.364 86.696 714.292 86.696C714.172 86.696 714.16 86.684 714.16 86.564V85.7C714.16 85.592 714.172 85.58 714.292 85.58C714.364 85.58 714.724 85.604 715.78 85.604H718.324V84.452H717.232C716.152 84.452 715.78 84.476 715.708 84.476C715.588 84.476 715.576 84.464 715.576 84.344V83.492C715.576 83.372 715.588 83.36 715.708 83.36C715.78 83.36 716.152 83.384 717.232 83.384H718.324V83.216C718.324 82.736 718.312 82.364 718.228 81.98C718.684 81.992 719.116 82.016 719.524 82.064C719.644 82.076 719.716 82.112 719.716 82.184C719.716 82.268 719.692 82.34 719.656 82.424C719.584 82.58 719.572 82.808 719.572 83.252V83.384H719.932C721.012 83.384 721.372 83.36 721.444 83.36C721.576 83.36 721.588 83.372 721.588 83.492V84.404C721.9 84.092 722.176 83.78 722.452 83.432C722.716 83.108 722.836 82.892 722.992 82.544C723.436 82.76 723.76 82.952 724.024 83.144C724.132 83.216 724.168 83.288 724.168 83.36C724.168 83.432 724.108 83.492 724.036 83.528C723.868 83.6 723.736 83.732 723.544 83.972C723.016 84.56 722.476 85.112 721.9 85.604H723.256C724.312 85.604 724.684 85.58 724.756 85.58C724.864 85.58 724.876 85.592 724.876 85.7V86.564C724.876 86.684 724.864 86.696 724.756 86.696C724.684 86.696 724.312 86.672 723.256 86.672H720.676C720.196 87.008 719.716 87.32 719.212 87.62H721.552C722.572 87.62 723.088 87.596 723.16 87.596C723.292 87.596 723.304 87.608 723.304 87.74C723.304 87.812 723.28 88.172 723.28 89.36V90.56C723.28 92.336 723.304 92.684 723.304 92.756C723.304 92.864 723.292 92.876 723.16 92.876H722.164C722.044 92.876 722.032 92.864 722.032 92.756V92.372H718.012V92.804C718.012 92.924 718 92.936 717.88 92.936H716.884C716.764 92.936 716.752 92.924 716.752 92.804C716.752 92.744 716.776 92.336 716.776 90.548ZM718.012 91.376H722.032V90.464H718.012V91.376ZM722.032 88.616H718.012V89.492H722.032V88.616ZM721.516 84.476H721.444C721.372 84.476 721.012 84.452 719.932 84.452H719.572V85.604H720.244C720.7 85.256 721.12 84.884 721.516 84.476ZM681.832 105.092H685.168C686.284 105.092 686.68 105.068 686.752 105.068C686.872 105.068 686.884 105.08 686.884 105.212C686.884 105.284 686.86 105.512 686.86 106.076V107C686.86 107.564 686.884 107.792 686.884 107.864C686.884 107.996 686.872 108.008 686.752 108.008C686.68 108.008 686.284 107.984 685.168 107.984H684.988C685.384 108.092 685.732 108.2 686.044 108.32C686.152 108.356 686.2 108.428 686.2 108.476C686.2 108.536 686.164 108.596 686.08 108.644C685.984 108.704 685.936 108.764 685.852 108.92L685.492 109.544H687.124C688.204 109.544 688.576 109.52 688.648 109.52C688.768 109.52 688.78 109.532 688.78 109.64V110.528C688.78 110.648 688.768 110.66 688.648 110.66C688.576 110.66 688.204 110.636 687.124 110.636H679.9C678.82 110.636 678.448 110.66 678.376 110.66C678.256 110.66 678.244 110.648 678.244 110.528V109.64C678.244 109.532 678.256 109.52 678.376 109.52C678.448 109.52 678.82 109.544 679.9 109.544H681.436C681.292 109.232 681.124 108.884 680.932 108.584C680.86 108.476 680.872 108.44 681.016 108.392L681.808 108.056C681.952 107.996 682 108.008 682.072 108.116C682.276 108.416 682.444 108.704 682.612 109.028C682.672 109.148 682.66 109.184 682.492 109.256L681.844 109.544H684.148C684.352 109.22 684.52 108.92 684.652 108.644C684.748 108.452 684.832 108.224 684.88 107.984H681.832C680.716 107.984 680.332 108.008 680.248 108.008C680.128 108.008 680.116 107.996 680.116 107.864C680.116 107.792 680.14 107.564 680.14 107V106.076C680.14 105.512 680.116 105.284 680.116 105.212C680.116 105.08 680.128 105.068 680.248 105.068C680.332 105.068 680.716 105.092 681.832 105.092ZM681.364 106.064V107.012H685.636V106.064H681.364ZM681.064 100.304H682.78C683.452 100.304 683.788 100.28 683.872 100.28C683.98 100.28 684.016 100.292 684.076 100.424C684.208 100.796 684.388 101.144 684.628 101.456C684.676 101.54 684.736 101.612 684.796 101.684C685.084 101.42 685.324 101.168 685.516 100.916C685.636 100.772 685.732 100.628 685.852 100.412C686.212 100.592 686.56 100.82 686.776 100.964C686.884 101.036 686.908 101.096 686.908 101.156C686.908 101.228 686.86 101.288 686.752 101.324C686.656 101.36 686.536 101.444 686.344 101.66C686.092 101.924 685.84 102.176 685.516 102.452C685.732 102.644 685.948 102.824 686.188 102.992C686.584 102.656 686.92 102.308 687.172 102.032C687.292 101.876 687.4 101.732 687.508 101.516C687.868 101.708 688.168 101.888 688.444 102.068C688.552 102.14 688.588 102.2 688.588 102.272C688.588 102.344 688.528 102.404 688.432 102.44C688.312 102.488 688.216 102.536 688.012 102.764C687.76 103.016 687.472 103.292 687.136 103.58C687.736 103.892 688.396 104.18 689.128 104.42C688.948 104.66 688.816 104.888 688.696 105.176C688.6 105.404 688.564 105.488 688.468 105.488C688.408 105.488 688.324 105.464 688.192 105.404C687.088 104.936 686.176 104.42 685.42 103.82V104.384C685.42 104.504 685.408 104.516 685.288 104.516C685.228 104.516 684.952 104.492 684.1 104.492H682.864C682.012 104.492 681.748 104.516 681.688 104.516C681.568 104.516 681.556 104.504 681.556 104.384V103.772C680.764 104.42 679.864 104.96 678.868 105.44C678.736 105.5 678.652 105.536 678.592 105.536C678.496 105.536 678.448 105.44 678.34 105.224C678.208 104.96 678.064 104.768 677.848 104.564C678.7 104.228 679.456 103.844 680.128 103.412C679.708 102.956 679.336 102.608 678.928 102.272C678.868 102.224 678.832 102.188 678.832 102.152C678.832 102.128 678.868 102.092 678.928 102.044L679.528 101.564C679.636 101.48 679.66 101.456 679.768 101.54C680.236 101.936 680.644 102.296 681.064 102.728C681.568 102.308 682.012 101.852 682.396 101.336H681.064C680.164 101.336 679.876 101.36 679.804 101.36C679.672 101.36 679.66 101.348 679.66 101.24V100.412C679.66 100.292 679.672 100.28 679.804 100.28C679.876 100.28 680.164 100.304 681.064 100.304ZM682.864 103.484H684.1C684.556 103.484 684.832 103.484 685.012 103.472C684.412 102.932 683.92 102.32 683.524 101.612C683.044 102.32 682.504 102.932 681.904 103.472C682.072 103.484 682.372 103.484 682.864 103.484ZM694.972 105.74L695.5 105.32C695.56 105.272 695.596 105.248 695.62 105.248C695.656 105.248 695.692 105.284 695.74 105.332C696.136 105.776 696.424 106.196 696.688 106.664C696.76 106.772 696.748 106.808 696.616 106.904L696.088 107.312C696.016 107.36 695.98 107.396 695.944 107.396C695.908 107.396 695.884 107.36 695.848 107.288C695.584 106.796 695.284 106.352 694.912 105.944C694.828 105.86 694.84 105.836 694.972 105.74ZM693.328 108.164C693.52 107.66 693.664 107.204 693.772 106.748C693.796 106.628 693.808 106.496 693.82 106.304C694.108 106.376 694.48 106.496 694.696 106.592C694.792 106.628 694.828 106.664 694.828 106.712C694.828 106.772 694.804 106.808 694.756 106.844C694.684 106.892 694.648 106.952 694.6 107.096C694.504 107.408 694.384 107.744 694.216 108.14C694.144 108.32 694.108 108.404 694.024 108.404C693.976 108.404 693.892 108.368 693.772 108.308C693.652 108.248 693.484 108.2 693.328 108.164ZM699.352 104.984H698.212C698.38 105.608 698.584 106.172 698.86 106.676C699.184 106.364 699.472 106.052 699.748 105.68C699.844 105.548 699.94 105.404 700.024 105.224C700.324 105.428 700.516 105.584 700.792 105.824C700.864 105.896 700.912 105.968 700.912 106.028C700.912 106.076 700.852 106.136 700.756 106.196C700.66 106.256 700.564 106.328 700.42 106.508C700.156 106.832 699.808 107.18 699.412 107.54C699.904 108.188 700.504 108.716 701.212 109.148C701.032 109.364 700.852 109.664 700.72 109.988C700.648 110.156 700.612 110.228 700.54 110.228C700.48 110.228 700.408 110.18 700.3 110.084C699.292 109.208 698.608 108.236 698.176 107.048C698.176 108.452 698.236 109.136 698.236 109.688C698.236 110.144 698.176 110.48 697.84 110.708C697.612 110.852 697.288 110.936 696.604 110.948C696.232 110.96 696.232 110.96 696.148 110.588C696.076 110.264 695.956 109.988 695.788 109.736C696.148 109.772 696.364 109.784 696.628 109.784C697.012 109.784 697.108 109.688 697.108 109.412V108.476C696.544 108.908 695.956 109.328 695.428 109.628C695.272 109.724 695.164 109.808 695.116 109.88C695.08 109.94 695.02 109.988 694.972 109.988C694.924 109.988 694.876 109.976 694.816 109.892C694.66 109.664 694.516 109.4 694.348 109.076C694.336 109.136 694.336 109.208 694.336 109.268C694.324 109.664 694.324 109.64 693.976 109.748C693.112 110.012 692.212 110.252 691.216 110.48C691.024 110.528 690.868 110.588 690.796 110.636C690.724 110.684 690.676 110.72 690.604 110.72C690.52 110.72 690.448 110.672 690.412 110.564C690.304 110.24 690.196 109.88 690.112 109.532C690.52 109.496 690.82 109.46 691.168 109.4C691.444 109.352 691.732 109.304 692.008 109.244V105.956H691.672C690.784 105.956 690.508 105.98 690.436 105.98C690.304 105.98 690.292 105.968 690.292 105.848V105.056C690.292 104.936 690.304 104.924 690.436 104.924C690.508 104.924 690.784 104.948 691.672 104.948H692.008V104.012C691.408 104.024 691.216 104.036 691.156 104.036C691.036 104.036 691.024 104.024 691.024 103.892V103.352C690.928 103.436 690.844 103.52 690.748 103.592C690.64 103.688 690.556 103.736 690.496 103.736C690.412 103.736 690.364 103.652 690.304 103.472C690.22 103.196 690.076 102.896 689.932 102.668C690.796 102.032 691.48 101.312 691.876 100.604C692.008 100.364 692.092 100.184 692.14 99.98C692.512 100.016 692.944 100.1 693.256 100.172C693.376 100.196 693.436 100.268 693.436 100.316C693.436 100.376 693.4 100.436 693.304 100.508L693.232 100.568C693.712 101.168 694.204 101.54 694.924 102.044C694.78 102.188 694.576 102.44 694.456 102.656C694.36 102.836 694.312 102.932 694.24 102.932C694.18 102.932 694.108 102.872 693.988 102.764C693.472 102.308 693.052 101.876 692.716 101.408C692.344 101.972 691.888 102.524 691.36 103.028C691.516 103.04 691.744 103.04 692.152 103.04H693.112C693.832 103.04 694.036 103.016 694.108 103.016C694.24 103.016 694.252 103.028 694.252 103.148V103.892C694.252 104.024 694.24 104.036 694.108 104.036C694.036 104.036 693.832 104.012 693.136 104.012V104.948H693.208C694.096 104.948 694.372 104.924 694.444 104.924H694.516V104.06C694.516 103.94 694.528 103.928 694.648 103.928C694.72 103.928 695.092 103.952 696.232 103.952H698.56L698.596 103.208H696.82C695.848 103.208 695.524 103.232 695.452 103.232C695.332 103.232 695.32 103.22 695.32 103.1V102.308C695.32 102.188 695.332 102.176 695.452 102.176C695.524 102.176 695.848 102.2 696.82 102.2H698.656L698.692 101.48H696.52C695.572 101.48 695.248 101.504 695.176 101.504C695.056 101.504 695.044 101.492 695.044 101.372V100.556C695.044 100.436 695.056 100.424 695.176 100.424C695.248 100.424 695.572 100.448 696.52 100.448H698.416C699.376 100.448 699.7 100.424 699.76 100.424C699.88 100.424 699.916 100.448 699.904 100.568C699.868 100.916 699.856 101.24 699.832 101.564L699.7 103.952C700.552 103.952 700.876 103.928 700.936 103.928C701.068 103.928 701.08 103.94 701.08 104.06V104.876C701.08 104.996 701.068 105.008 700.936 105.008C700.876 105.008 700.492 104.984 699.352 104.984ZM697.108 104.984H696.232C695.092 104.984 694.72 105.008 694.648 105.008H694.588V105.848C694.588 105.968 694.576 105.98 694.444 105.98C694.372 105.98 694.096 105.956 693.208 105.956H693.136V108.968C693.556 108.86 693.976 108.728 694.408 108.584C694.384 108.692 694.372 108.8 694.36 108.92L694.9 108.656C695.584 108.296 696.364 107.756 697.108 107.168V104.984ZM690.58 106.652L691.12 106.46C691.264 106.412 691.288 106.412 691.324 106.532C691.492 107.072 691.648 107.744 691.732 108.344C691.744 108.452 691.732 108.488 691.588 108.548L691.072 108.752C690.904 108.812 690.88 108.8 690.856 108.68C690.784 108.044 690.664 107.48 690.448 106.868C690.4 106.736 690.412 106.712 690.58 106.652Z"
          fill="black"/>
    <path d="M33.744 92.504H26.304C25.236 92.504 24.876 92.528 24.792 92.528C24.684 92.528 24.672 92.516 24.672 92.408V91.448C24.672 91.328 24.684 91.316 24.792 91.316C24.876 91.316 25.236 91.34 26.304 91.34H26.628V88.712C26.628 88.136 26.616 87.74 26.532 87.404C26.988 87.416 27.456 87.44 27.888 87.488C28.008 87.5 28.08 87.56 28.08 87.62C28.08 87.728 28.032 87.788 27.996 87.872C27.936 88.016 27.924 88.256 27.924 88.748V91.34H29.58V86.768C29.58 86.204 29.568 85.796 29.496 85.46C29.94 85.472 30.432 85.496 30.84 85.544C30.96 85.556 31.032 85.616 31.032 85.676C31.032 85.784 30.996 85.856 30.96 85.94C30.888 86.084 30.888 86.324 30.888 86.804V87.92H32.1C33.192 87.92 33.576 87.896 33.648 87.896C33.768 87.896 33.78 87.908 33.78 88.028V88.964C33.78 89.084 33.768 89.096 33.648 89.096C33.576 89.096 33.192 89.072 32.1 89.072H30.888V91.34H33.744C34.8 91.34 35.172 91.316 35.244 91.316C35.364 91.316 35.376 91.328 35.376 91.448V92.408C35.376 92.516 35.364 92.528 35.244 92.528C35.172 92.528 34.8 92.504 33.744 92.504ZM30.756 82.424L30.66 82.508C32.004 84.248 33.732 85.388 35.796 86.144C35.58 86.42 35.4 86.696 35.256 87.068C35.172 87.284 35.136 87.368 35.052 87.368C34.992 87.368 34.908 87.332 34.776 87.272C32.736 86.336 31.152 85.124 29.976 83.48C28.692 85.208 27.132 86.408 25.368 87.32C25.224 87.392 25.14 87.44 25.08 87.44C24.996 87.44 24.96 87.356 24.864 87.152C24.72 86.84 24.516 86.552 24.3 86.324C26.544 85.328 27.972 84.068 28.932 82.676C29.148 82.364 29.268 82.112 29.376 81.788C29.844 81.848 30.324 81.968 30.672 82.052C30.804 82.088 30.888 82.148 30.888 82.244C30.888 82.316 30.84 82.376 30.756 82.424ZM41.412 83.564H38.4C37.32 83.564 36.948 83.588 36.876 83.588C36.756 83.588 36.744 83.576 36.744 83.468V82.544C36.744 82.412 36.756 82.4 36.876 82.4C36.948 82.4 37.32 82.424 38.4 82.424H45.6C46.692 82.424 47.052 82.4 47.124 82.4C47.244 82.4 47.256 82.412 47.256 82.544V83.468C47.256 83.576 47.244 83.588 47.124 83.588C47.052 83.588 46.692 83.564 45.6 83.564H42.528V84.74H43.26C44.34 84.74 44.7 84.716 44.772 84.716C44.904 84.716 44.916 84.728 44.916 84.86C44.916 84.932 44.892 85.304 44.892 86.156V88.88C44.892 89.72 44.916 90.104 44.916 90.176C44.916 90.296 44.904 90.308 44.772 90.308C44.7 90.308 44.34 90.284 43.26 90.284H40.74C39.672 90.284 39.312 90.308 39.228 90.308C39.108 90.308 39.096 90.296 39.096 90.176C39.096 90.104 39.12 89.72 39.12 88.88V86.156C39.12 85.304 39.096 84.932 39.096 84.86C39.096 84.728 39.108 84.716 39.228 84.716C39.312 84.716 39.672 84.74 40.74 84.74H41.412V83.564ZM43.8 89.3V87.92H42.516V89.3H43.8ZM40.2 89.3H41.424V87.92H40.2V89.3ZM43.8 85.724H42.516V86.996H43.8V85.724ZM40.2 86.996H41.424V85.724H40.2V86.996ZM45.84 91.172V86.552C45.84 85.976 45.828 85.268 45.768 84.8C46.224 84.824 46.596 84.848 46.98 84.896C47.124 84.92 47.208 84.968 47.208 85.076C47.208 85.16 47.184 85.232 47.136 85.304C47.064 85.412 47.04 85.772 47.04 86.564V90.392C47.04 91.916 47.064 92.708 47.064 92.78C47.064 92.9 47.052 92.912 46.932 92.912H45.972C45.852 92.912 45.84 92.9 45.84 92.78V92.3H38.184V92.78C38.184 92.9 38.172 92.912 38.052 92.912H37.104C36.984 92.912 36.972 92.9 36.972 92.78C36.972 92.696 36.996 91.928 36.996 90.416V86.492C36.996 85.88 36.984 85.208 36.924 84.8C37.392 84.824 37.74 84.848 38.124 84.896C38.268 84.92 38.352 84.98 38.352 85.076C38.352 85.184 38.304 85.256 38.268 85.328C38.196 85.448 38.184 85.844 38.184 86.576V91.172H45.84ZM52.332 87.092H55.668C56.784 87.092 57.18 87.068 57.252 87.068C57.372 87.068 57.384 87.08 57.384 87.212C57.384 87.284 57.36 87.512 57.36 88.076V89C57.36 89.564 57.384 89.792 57.384 89.864C57.384 89.996 57.372 90.008 57.252 90.008C57.18 90.008 56.784 89.984 55.668 89.984H55.488C55.884 90.092 56.232 90.2 56.544 90.32C56.652 90.356 56.7 90.428 56.7 90.476C56.7 90.536 56.664 90.596 56.58 90.644C56.484 90.704 56.436 90.764 56.352 90.92L55.992 91.544H57.624C58.704 91.544 59.076 91.52 59.148 91.52C59.268 91.52 59.28 91.532 59.28 91.64V92.528C59.28 92.648 59.268 92.66 59.148 92.66C59.076 92.66 58.704 92.636 57.624 92.636H50.4C49.32 92.636 48.948 92.66 48.876 92.66C48.756 92.66 48.744 92.648 48.744 92.528V91.64C48.744 91.532 48.756 91.52 48.876 91.52C48.948 91.52 49.32 91.544 50.4 91.544H51.936C51.792 91.232 51.624 90.884 51.432 90.584C51.36 90.476 51.372 90.44 51.516 90.392L52.308 90.056C52.452 89.996 52.5 90.008 52.572 90.116C52.776 90.416 52.944 90.704 53.112 91.028C53.172 91.148 53.16 91.184 52.992 91.256L52.344 91.544H54.648C54.852 91.22 55.02 90.92 55.152 90.644C55.248 90.452 55.332 90.224 55.38 89.984H52.332C51.216 89.984 50.832 90.008 50.748 90.008C50.628 90.008 50.616 89.996 50.616 89.864C50.616 89.792 50.64 89.564 50.64 89V88.076C50.64 87.512 50.616 87.284 50.616 87.212C50.616 87.08 50.628 87.068 50.748 87.068C50.832 87.068 51.216 87.092 52.332 87.092ZM51.864 88.064V89.012H56.136V88.064H51.864ZM51.564 82.304H53.28C53.952 82.304 54.288 82.28 54.372 82.28C54.48 82.28 54.516 82.292 54.576 82.424C54.708 82.796 54.888 83.144 55.128 83.456C55.176 83.54 55.236 83.612 55.296 83.684C55.584 83.42 55.824 83.168 56.016 82.916C56.136 82.772 56.232 82.628 56.352 82.412C56.712 82.592 57.06 82.82 57.276 82.964C57.384 83.036 57.408 83.096 57.408 83.156C57.408 83.228 57.36 83.288 57.252 83.324C57.156 83.36 57.036 83.444 56.844 83.66C56.592 83.924 56.34 84.176 56.016 84.452C56.232 84.644 56.448 84.824 56.688 84.992C57.084 84.656 57.42 84.308 57.672 84.032C57.792 83.876 57.9 83.732 58.008 83.516C58.368 83.708 58.668 83.888 58.944 84.068C59.052 84.14 59.088 84.2 59.088 84.272C59.088 84.344 59.028 84.404 58.932 84.44C58.812 84.488 58.716 84.536 58.512 84.764C58.26 85.016 57.972 85.292 57.636 85.58C58.236 85.892 58.896 86.18 59.628 86.42C59.448 86.66 59.316 86.888 59.196 87.176C59.1 87.404 59.064 87.488 58.968 87.488C58.908 87.488 58.824 87.464 58.692 87.404C57.588 86.936 56.676 86.42 55.92 85.82V86.384C55.92 86.504 55.908 86.516 55.788 86.516C55.728 86.516 55.452 86.492 54.6 86.492H53.364C52.512 86.492 52.248 86.516 52.188 86.516C52.068 86.516 52.056 86.504 52.056 86.384V85.772C51.264 86.42 50.364 86.96 49.368 87.44C49.236 87.5 49.152 87.536 49.092 87.536C48.996 87.536 48.948 87.44 48.84 87.224C48.708 86.96 48.564 86.768 48.348 86.564C49.2 86.228 49.956 85.844 50.628 85.412C50.208 84.956 49.836 84.608 49.428 84.272C49.368 84.224 49.332 84.188 49.332 84.152C49.332 84.128 49.368 84.092 49.428 84.044L50.028 83.564C50.136 83.48 50.16 83.456 50.268 83.54C50.736 83.936 51.144 84.296 51.564 84.728C52.068 84.308 52.512 83.852 52.896 83.336H51.564C50.664 83.336 50.376 83.36 50.304 83.36C50.172 83.36 50.16 83.348 50.16 83.24V82.412C50.16 82.292 50.172 82.28 50.304 82.28C50.376 82.28 50.664 82.304 51.564 82.304ZM53.364 85.484H54.6C55.056 85.484 55.332 85.484 55.512 85.472C54.912 84.932 54.42 84.32 54.024 83.612C53.544 84.32 53.004 84.932 52.404 85.472C52.572 85.484 52.872 85.484 53.364 85.484ZM65.472 87.74L66 87.32C66.06 87.272 66.096 87.248 66.12 87.248C66.156 87.248 66.192 87.284 66.24 87.332C66.636 87.776 66.924 88.196 67.188 88.664C67.26 88.772 67.248 88.808 67.116 88.904L66.588 89.312C66.516 89.36 66.48 89.396 66.444 89.396C66.408 89.396 66.384 89.36 66.348 89.288C66.084 88.796 65.784 88.352 65.412 87.944C65.328 87.86 65.34 87.836 65.472 87.74ZM63.828 90.164C64.02 89.66 64.164 89.204 64.272 88.748C64.296 88.628 64.308 88.496 64.32 88.304C64.608 88.376 64.98 88.496 65.196 88.592C65.292 88.628 65.328 88.664 65.328 88.712C65.328 88.772 65.304 88.808 65.256 88.844C65.184 88.892 65.148 88.952 65.1 89.096C65.004 89.408 64.884 89.744 64.716 90.14C64.644 90.32 64.608 90.404 64.524 90.404C64.476 90.404 64.392 90.368 64.272 90.308C64.152 90.248 63.984 90.2 63.828 90.164ZM69.852 86.984H68.712C68.88 87.608 69.084 88.172 69.36 88.676C69.684 88.364 69.972 88.052 70.248 87.68C70.344 87.548 70.44 87.404 70.524 87.224C70.824 87.428 71.016 87.584 71.292 87.824C71.364 87.896 71.412 87.968 71.412 88.028C71.412 88.076 71.352 88.136 71.256 88.196C71.16 88.256 71.064 88.328 70.92 88.508C70.656 88.832 70.308 89.18 69.912 89.54C70.404 90.188 71.004 90.716 71.712 91.148C71.532 91.364 71.352 91.664 71.22 91.988C71.148 92.156 71.112 92.228 71.04 92.228C70.98 92.228 70.908 92.18 70.8 92.084C69.792 91.208 69.108 90.236 68.676 89.048C68.676 90.452 68.736 91.136 68.736 91.688C68.736 92.144 68.676 92.48 68.34 92.708C68.112 92.852 67.788 92.936 67.104 92.948C66.732 92.96 66.732 92.96 66.648 92.588C66.576 92.264 66.456 91.988 66.288 91.736C66.648 91.772 66.864 91.784 67.128 91.784C67.512 91.784 67.608 91.688 67.608 91.412V90.476C67.044 90.908 66.456 91.328 65.928 91.628C65.772 91.724 65.664 91.808 65.616 91.88C65.58 91.94 65.52 91.988 65.472 91.988C65.424 91.988 65.376 91.976 65.316 91.892C65.16 91.664 65.016 91.4 64.848 91.076C64.836 91.136 64.836 91.208 64.836 91.268C64.824 91.664 64.824 91.64 64.476 91.748C63.612 92.012 62.712 92.252 61.716 92.48C61.524 92.528 61.368 92.588 61.296 92.636C61.224 92.684 61.176 92.72 61.104 92.72C61.02 92.72 60.948 92.672 60.912 92.564C60.804 92.24 60.696 91.88 60.612 91.532C61.02 91.496 61.32 91.46 61.668 91.4C61.944 91.352 62.232 91.304 62.508 91.244V87.956H62.172C61.284 87.956 61.008 87.98 60.936 87.98C60.804 87.98 60.792 87.968 60.792 87.848V87.056C60.792 86.936 60.804 86.924 60.936 86.924C61.008 86.924 61.284 86.948 62.172 86.948H62.508V86.012C61.908 86.024 61.716 86.036 61.656 86.036C61.536 86.036 61.524 86.024 61.524 85.892V85.352C61.428 85.436 61.344 85.52 61.248 85.592C61.14 85.688 61.056 85.736 60.996 85.736C60.912 85.736 60.864 85.652 60.804 85.472C60.72 85.196 60.576 84.896 60.432 84.668C61.296 84.032 61.98 83.312 62.376 82.604C62.508 82.364 62.592 82.184 62.64 81.98C63.012 82.016 63.444 82.1 63.756 82.172C63.876 82.196 63.936 82.268 63.936 82.316C63.936 82.376 63.9 82.436 63.804 82.508L63.732 82.568C64.212 83.168 64.704 83.54 65.424 84.044C65.28 84.188 65.076 84.44 64.956 84.656C64.86 84.836 64.812 84.932 64.74 84.932C64.68 84.932 64.608 84.872 64.488 84.764C63.972 84.308 63.552 83.876 63.216 83.408C62.844 83.972 62.388 84.524 61.86 85.028C62.016 85.04 62.244 85.04 62.652 85.04H63.612C64.332 85.04 64.536 85.016 64.608 85.016C64.74 85.016 64.752 85.028 64.752 85.148V85.892C64.752 86.024 64.74 86.036 64.608 86.036C64.536 86.036 64.332 86.012 63.636 86.012V86.948H63.708C64.596 86.948 64.872 86.924 64.944 86.924H65.016V86.06C65.016 85.94 65.028 85.928 65.148 85.928C65.22 85.928 65.592 85.952 66.732 85.952H69.06L69.096 85.208H67.32C66.348 85.208 66.024 85.232 65.952 85.232C65.832 85.232 65.82 85.22 65.82 85.1V84.308C65.82 84.188 65.832 84.176 65.952 84.176C66.024 84.176 66.348 84.2 67.32 84.2H69.156L69.192 83.48H67.02C66.072 83.48 65.748 83.504 65.676 83.504C65.556 83.504 65.544 83.492 65.544 83.372V82.556C65.544 82.436 65.556 82.424 65.676 82.424C65.748 82.424 66.072 82.448 67.02 82.448H68.916C69.876 82.448 70.2 82.424 70.26 82.424C70.38 82.424 70.416 82.448 70.404 82.568C70.368 82.916 70.356 83.24 70.332 83.564L70.2 85.952C71.052 85.952 71.376 85.928 71.436 85.928C71.568 85.928 71.58 85.94 71.58 86.06V86.876C71.58 86.996 71.568 87.008 71.436 87.008C71.376 87.008 70.992 86.984 69.852 86.984ZM67.608 86.984H66.732C65.592 86.984 65.22 87.008 65.148 87.008H65.088V87.848C65.088 87.968 65.076 87.98 64.944 87.98C64.872 87.98 64.596 87.956 63.708 87.956H63.636V90.968C64.056 90.86 64.476 90.728 64.908 90.584C64.884 90.692 64.872 90.8 64.86 90.92L65.4 90.656C66.084 90.296 66.864 89.756 67.608 89.168V86.984ZM61.08 88.652L61.62 88.46C61.764 88.412 61.788 88.412 61.824 88.532C61.992 89.072 62.148 89.744 62.232 90.344C62.244 90.452 62.232 90.488 62.088 90.548L61.572 90.752C61.404 90.812 61.38 90.8 61.356 90.68C61.284 90.044 61.164 89.48 60.948 88.868C60.9 88.736 60.912 88.712 61.08 88.652Z"
          fill="black"/>
    <path d="M453.668 87.176H450.344C449.18 87.176 448.784 87.2 448.712 87.2C448.592 87.2 448.58 87.188 448.58 87.068V86.612C448.58 86.552 448.58 86.528 448.592 86.504C448.4 86.528 448.196 86.528 447.956 86.528C447.62 86.528 447.608 86.528 447.536 86.18C447.476 85.892 447.392 85.676 447.332 85.568C447.644 85.604 447.872 85.616 448.208 85.616C448.544 85.616 448.676 85.568 448.676 85.268V85.124L447.584 85.208C447.368 85.22 447.236 85.256 447.152 85.304C447.092 85.34 447.032 85.364 446.96 85.364C446.888 85.364 446.828 85.304 446.792 85.184C446.732 84.956 446.66 84.644 446.612 84.368C446.936 84.368 447.284 84.356 447.644 84.332C447.98 84.32 448.328 84.284 448.676 84.26V83.66H448.268C447.344 83.66 447.044 83.684 446.972 83.684C446.852 83.684 446.84 83.672 446.84 83.552V82.952C446.84 82.832 446.852 82.82 446.972 82.82C447.044 82.82 447.344 82.844 448.268 82.844H448.676C448.664 82.424 448.64 82.184 448.604 81.956C449.012 81.968 449.42 82.004 449.804 82.04C449.924 82.052 450.008 82.088 450.008 82.16C450.008 82.232 449.984 82.292 449.936 82.364C449.876 82.448 449.852 82.568 449.852 82.844H449.948C450.86 82.844 451.16 82.82 451.232 82.82C451.352 82.82 451.364 82.832 451.364 82.952V83.552C451.364 83.672 451.352 83.684 451.232 83.684C451.16 83.684 450.86 83.66 449.948 83.66H449.852V84.164C450.332 84.128 450.848 84.068 451.376 84.008C451.328 84.188 451.292 84.44 451.268 84.608C451.232 84.812 451.208 84.824 450.956 84.86L449.852 85.004C449.852 85.16 449.864 85.304 449.864 85.448C449.864 85.82 449.768 86.084 449.444 86.288C449.312 86.372 449.096 86.444 448.784 86.48C448.94 86.492 449.372 86.504 450.344 86.504H451.7C451.64 86.48 451.58 86.432 451.496 86.336C451.292 86.12 451.04 85.94 450.788 85.808C451.724 85.16 451.952 84.596 451.952 83.492C451.952 83 451.94 82.628 451.892 82.328C452.264 82.388 452.588 82.448 452.924 82.556C453.776 82.508 454.556 82.4 455.288 82.232C455.66 82.148 455.912 82.064 456.104 81.956C456.308 82.112 456.584 82.4 456.8 82.652C456.872 82.736 456.896 82.784 456.896 82.856C456.896 82.94 456.812 82.976 456.716 82.976C456.584 82.976 456.404 83.012 456.188 83.06C455.144 83.276 454.22 83.384 453.128 83.456V83.984H455.492C456.716 83.984 457.148 83.96 457.22 83.96C457.34 83.96 457.352 83.972 457.352 84.092V84.728C457.352 84.848 457.34 84.86 457.22 84.86C457.148 84.86 456.74 84.836 455.684 84.836V85.28C455.684 85.82 455.708 86.072 455.708 86.144C455.708 86.264 455.696 86.276 455.576 86.276H454.604C454.484 86.276 454.472 86.264 454.472 86.144C454.472 86.072 454.496 85.82 454.496 85.28V84.836H452.996C452.852 85.388 452.564 85.892 452.072 86.336C451.976 86.42 451.904 86.48 451.844 86.504H453.668C454.832 86.504 455.228 86.48 455.3 86.48C455.42 86.48 455.432 86.492 455.432 86.612V87.068C455.432 87.188 455.42 87.2 455.3 87.2C455.228 87.2 454.832 87.176 453.668 87.176ZM449.3 92.912H448.304C448.184 92.912 448.172 92.9 448.172 92.78C448.172 92.708 448.196 92.54 448.196 91.652V91.376C448.196 91.052 448.172 90.884 448.172 90.8C448.172 90.68 448.184 90.668 448.304 90.668C448.388 90.668 448.808 90.692 449.972 90.692H454.016C455.18 90.692 455.6 90.668 455.684 90.668C455.804 90.668 455.816 90.68 455.816 90.8C455.816 90.872 455.792 91.052 455.792 91.292V91.616C455.792 92.492 455.816 92.66 455.816 92.732C455.816 92.852 455.804 92.864 455.684 92.864H454.688C454.568 92.864 454.556 92.852 454.556 92.732V92.504H449.432V92.78C449.432 92.9 449.42 92.912 449.3 92.912ZM449.432 91.34V91.832H454.556V91.34H449.432ZM455.864 88.352H448.112C447.068 88.352 446.72 88.376 446.648 88.376C446.54 88.376 446.528 88.364 446.528 88.244V87.656C446.528 87.536 446.54 87.524 446.648 87.524C446.72 87.524 447.068 87.548 448.112 87.548H455.864C456.908 87.548 457.256 87.524 457.328 87.524C457.448 87.524 457.46 87.536 457.46 87.656V88.244C457.46 88.364 457.448 88.376 457.328 88.376C457.256 88.376 456.908 88.352 455.864 88.352ZM453.776 90.32H450.212C449.072 90.32 448.688 90.344 448.616 90.344C448.496 90.344 448.484 90.332 448.484 90.2V89.816C448.484 89.696 448.496 89.684 448.616 89.684C448.688 89.684 449.072 89.708 450.212 89.708H453.776C454.916 89.708 455.3 89.684 455.372 89.684C455.492 89.684 455.504 89.696 455.504 89.816V90.2C455.504 90.332 455.492 90.344 455.372 90.344C455.3 90.344 454.916 90.32 453.776 90.32ZM453.776 89.336H450.212C449.072 89.336 448.688 89.36 448.616 89.36C448.496 89.36 448.484 89.348 448.484 89.216V88.844C448.484 88.724 448.496 88.712 448.616 88.712C448.688 88.712 449.072 88.736 450.212 88.736H453.776C454.916 88.736 455.3 88.712 455.372 88.712C455.492 88.712 455.504 88.724 455.504 88.844V89.216C455.504 89.348 455.492 89.36 455.372 89.36C455.3 89.36 454.916 89.336 453.776 89.336ZM462.008 85.988L462.56 85.796C462.704 85.748 462.728 85.76 462.788 85.868C463.172 86.576 463.472 87.332 463.676 88.04C463.712 88.172 463.688 88.232 463.532 88.28L462.896 88.484C462.764 88.52 462.716 88.508 462.692 88.4L462.548 87.86C462.272 87.896 461.996 87.92 461.72 87.944V91.244C461.72 92.348 461.744 92.756 461.744 92.816C461.744 92.936 461.732 92.948 461.612 92.948H460.7C460.58 92.948 460.568 92.936 460.568 92.816C460.568 92.744 460.592 92.348 460.592 91.244V88.04L459.464 88.112C459.26 88.124 459.092 88.172 459.02 88.208C458.96 88.244 458.912 88.268 458.84 88.268C458.756 88.268 458.72 88.184 458.696 88.064C458.636 87.776 458.588 87.5 458.528 87.056C458.888 87.08 459.212 87.092 459.524 87.08L460.196 86.168C459.704 85.556 459.164 84.968 458.576 84.416C458.528 84.368 458.504 84.344 458.504 84.308C458.504 84.272 458.54 84.224 458.588 84.152L459.032 83.564C459.08 83.492 459.116 83.456 459.152 83.456C459.188 83.456 459.212 83.48 459.26 83.528L459.56 83.84C459.8 83.444 460.004 83.072 460.208 82.628C460.364 82.304 460.424 82.112 460.484 81.884C460.808 82.004 461.228 82.172 461.528 82.328C461.636 82.388 461.684 82.448 461.684 82.52C461.684 82.58 461.636 82.628 461.576 82.676C461.48 82.748 461.432 82.808 461.348 82.964C460.964 83.624 460.664 84.104 460.292 84.62C460.472 84.824 460.652 85.016 460.82 85.22C461.096 84.788 461.36 84.344 461.624 83.888C461.768 83.624 461.9 83.324 461.996 83.06C462.356 83.228 462.728 83.408 463.004 83.576C463.112 83.636 463.148 83.684 463.148 83.756C463.148 83.84 463.112 83.888 463.016 83.936C462.896 84.008 462.8 84.14 462.62 84.428C462.008 85.4 461.348 86.324 460.796 87.032C461.264 87.008 461.756 86.984 462.224 86.948C462.116 86.684 462.008 86.432 461.888 86.192C461.828 86.072 461.852 86.048 462.008 85.988ZM467.828 85.016H464.96C464.708 85.472 464.408 85.928 464.024 86.36C463.892 86.504 463.832 86.576 463.76 86.576C463.7 86.576 463.628 86.504 463.508 86.36C463.292 86.096 463.076 85.916 462.86 85.796C463.796 84.788 464.264 83.876 464.576 82.892C464.672 82.58 464.756 82.244 464.804 81.872C465.26 81.956 465.728 82.064 465.968 82.124C466.124 82.172 466.22 82.232 466.22 82.316C466.22 82.412 466.208 82.448 466.1 82.556C466.004 82.64 465.884 82.832 465.764 83.168C465.68 83.408 465.596 83.66 465.488 83.9H467.756C468.62 83.9 468.896 83.876 468.968 83.876C469.088 83.876 469.112 83.9 469.112 84.02C469.088 84.356 469.088 84.68 469.088 85.016C469.076 87.776 468.992 89.444 468.74 91.028C468.548 92.252 468.044 92.828 466.916 92.852C466.664 92.852 466.328 92.864 466.016 92.84C465.656 92.816 465.656 92.816 465.572 92.432C465.5 92.108 465.368 91.748 465.236 91.52C465.884 91.604 466.292 91.64 466.76 91.628C467.204 91.628 467.408 91.232 467.528 90.596C467.756 89.3 467.828 87.512 467.828 85.016ZM464.276 87.02L464.948 86.636C465.08 86.564 465.116 86.588 465.188 86.672C465.716 87.344 466.196 88.172 466.556 88.964C466.616 89.084 466.592 89.12 466.448 89.192L465.692 89.648C465.56 89.732 465.512 89.708 465.464 89.576C465.116 88.724 464.684 87.968 464.204 87.26C464.12 87.14 464.12 87.104 464.276 87.02ZM458.54 91.712C458.828 90.92 458.996 90.176 459.068 89.408C459.092 89.18 459.104 89 459.092 88.736C459.452 88.784 459.776 88.82 460.016 88.868C460.16 88.892 460.22 88.952 460.22 89.012C460.22 89.072 460.184 89.12 460.148 89.192C460.112 89.24 460.1 89.384 460.076 89.576C460.004 90.272 459.824 91.196 459.62 91.88C459.572 92.06 459.524 92.144 459.452 92.144C459.392 92.144 459.308 92.096 459.176 92C459.008 91.88 458.708 91.76 458.54 91.712ZM462.272 88.904L462.872 88.7C463.016 88.652 463.04 88.676 463.088 88.808C463.304 89.456 463.568 90.356 463.7 91.076C463.724 91.208 463.712 91.244 463.556 91.292L462.92 91.508C462.74 91.568 462.728 91.532 462.704 91.412C462.584 90.68 462.344 89.66 462.164 89.108C462.116 88.976 462.128 88.952 462.272 88.904ZM479.768 88.76H472.232C471.176 88.76 470.816 88.784 470.744 88.784C470.636 88.784 470.624 88.772 470.624 88.652V87.992C470.624 87.884 470.636 87.872 470.744 87.872C470.816 87.872 471.176 87.896 472.232 87.896H475.34V87.416H473.552C472.376 87.416 471.98 87.44 471.896 87.44C471.788 87.44 471.776 87.428 471.776 87.308V86.792C471.776 86.672 471.788 86.66 471.896 86.66C471.98 86.66 472.376 86.684 473.552 86.684H475.34V86.204H473.672C472.52 86.204 472.124 86.228 472.052 86.228C471.92 86.228 471.908 86.216 471.908 86.096V85.532C471.908 85.412 471.92 85.4 472.052 85.4C472.124 85.4 472.52 85.424 473.672 85.424H475.34V84.908H472.508C471.368 84.908 470.96 84.932 470.888 84.932C470.768 84.932 470.756 84.92 470.756 84.8V84.164C470.756 84.044 470.768 84.032 470.888 84.032C470.96 84.032 471.368 84.056 472.508 84.056H475.34V83.552H473.732C472.556 83.552 472.148 83.576 472.064 83.576C471.944 83.576 471.932 83.564 471.932 83.444V82.832C471.932 82.7 471.944 82.688 472.064 82.688C472.148 82.688 472.556 82.712 473.732 82.712H475.34C475.328 82.316 475.304 82.112 475.256 81.884C475.7 81.896 476.096 81.92 476.516 81.968C476.612 81.98 476.684 82.028 476.684 82.1C476.684 82.172 476.66 82.22 476.624 82.316C476.6 82.388 476.564 82.484 476.564 82.712H477.956C479.228 82.712 479.864 82.688 479.936 82.688C480.056 82.688 480.068 82.7 480.068 82.832C480.068 82.904 480.044 83.216 480.044 83.876V83.996C480.68 83.996 481.052 83.972 481.124 83.972C481.256 83.972 481.268 83.984 481.268 84.116V84.848C481.268 84.968 481.256 84.98 481.124 84.98C481.052 84.98 480.68 84.956 480.044 84.956V85.028C480.044 85.664 480.068 86.024 480.068 86.096C480.068 86.216 480.056 86.228 479.936 86.228C479.864 86.228 479.228 86.204 477.956 86.204H476.564V86.684H478.484C479.648 86.684 480.056 86.66 480.128 86.66C480.236 86.66 480.248 86.672 480.248 86.792V87.308C480.248 87.428 480.236 87.44 480.128 87.44C480.056 87.44 479.648 87.416 478.484 87.416H476.564V87.896H479.768C480.824 87.896 481.184 87.872 481.256 87.872C481.376 87.872 481.388 87.884 481.388 87.992V88.652C481.388 88.772 481.376 88.784 481.256 88.784C481.184 88.784 480.824 88.76 479.768 88.76ZM478.868 85.424V84.908H476.564V85.424H478.868ZM478.868 83.552H476.564V84.056H478.868V83.552ZM473.276 92.924H472.316C472.196 92.924 472.184 92.912 472.184 92.792C472.184 92.72 472.208 92.48 472.208 91.112V90.344C472.208 89.684 472.184 89.408 472.184 89.336C472.184 89.204 472.196 89.192 472.316 89.192C472.4 89.192 472.82 89.216 473.984 89.216H478.04C479.204 89.216 479.624 89.192 479.708 89.192C479.828 89.192 479.84 89.204 479.84 89.336C479.84 89.408 479.816 89.684 479.816 90.2V91.088C479.816 92.432 479.84 92.684 479.84 92.756C479.84 92.864 479.828 92.876 479.708 92.876H478.748C478.628 92.876 478.616 92.864 478.616 92.756V92.48H473.408V92.792C473.408 92.912 473.396 92.924 473.276 92.924ZM473.408 91.712H478.616V91.196H473.408V91.712ZM473.408 89.996V90.5H478.616V89.996H473.408ZM489.164 88.124H488.108C486.968 88.124 486.56 88.148 486.488 88.148C486.368 88.148 486.356 88.136 486.356 88.028V87.212C486.356 87.08 486.368 87.068 486.488 87.068C486.56 87.068 486.968 87.092 488.108 87.092H491.636C492.788 87.092 493.184 87.068 493.256 87.068C493.388 87.068 493.4 87.08 493.4 87.212V88.028C493.4 88.136 493.388 88.148 493.256 88.148C493.184 88.148 492.788 88.124 491.636 88.124H490.34V89.264H491.408C492.248 89.264 492.548 89.24 492.632 89.24C492.752 89.24 492.764 89.252 492.764 89.372V90.152C492.764 90.272 492.752 90.284 492.632 90.284C492.548 90.284 492.248 90.26 491.408 90.26H490.34V91.52C490.844 91.604 491.42 91.628 492.08 91.64C492.632 91.64 493.136 91.628 493.688 91.592C493.592 91.796 493.52 92.06 493.472 92.36C493.424 92.756 493.376 92.768 493.028 92.768H492.212C489.968 92.732 488.516 92.36 487.58 91.04C487.304 91.628 486.944 92.156 486.44 92.672C486.332 92.78 486.26 92.84 486.2 92.84C486.116 92.84 486.044 92.768 485.924 92.624C485.732 92.384 485.504 92.192 485.3 92.072C486.392 91.244 486.8 90.2 487.04 89.168C487.1 88.904 487.124 88.688 487.136 88.484C487.52 88.568 487.784 88.628 488.12 88.724C488.276 88.772 488.348 88.808 488.348 88.904C488.348 88.988 488.312 89.036 488.252 89.108C488.204 89.168 488.18 89.252 488.132 89.42C488.072 89.624 488.024 89.828 487.964 90.02C488.276 90.56 488.672 90.932 489.164 91.172V88.124ZM488.564 82.352H490.904C491.948 82.352 492.296 82.328 492.368 82.328C492.488 82.328 492.5 82.34 492.5 82.472C492.5 82.544 492.476 82.844 492.476 83.564V85.232C492.476 85.94 492.5 86.252 492.5 86.324C492.5 86.444 492.488 86.456 492.368 86.456C492.296 86.456 491.948 86.432 490.904 86.432H488.564C487.508 86.432 487.16 86.456 487.088 86.456C486.968 86.456 486.956 86.444 486.956 86.324C486.956 86.24 486.98 85.94 486.98 85.232V83.564C486.98 82.844 486.956 82.544 486.956 82.472C486.956 82.34 486.968 82.328 487.088 82.328C487.16 82.328 487.508 82.352 488.564 82.352ZM491.3 85.532V84.824H488.144V85.532H491.3ZM491.3 83.276H488.144V83.972H491.3V83.276ZM485.108 88.424V89C485.108 90.152 485.144 90.8 485.144 91.4C485.144 92.06 485.048 92.384 484.76 92.588C484.496 92.78 484.196 92.84 483.44 92.852C483.068 92.864 483.068 92.864 482.972 92.492C482.9 92.156 482.792 91.844 482.684 91.628C482.972 91.664 483.248 91.664 483.56 91.664C483.86 91.664 483.932 91.556 483.932 91.208V88.844C483.752 88.904 483.584 88.964 483.416 89.012C483.2 89.084 483.068 89.156 482.996 89.216C482.936 89.264 482.864 89.288 482.804 89.288C482.732 89.288 482.684 89.24 482.66 89.144C482.576 88.82 482.504 88.4 482.456 87.992C482.804 87.944 483.128 87.884 483.548 87.764L483.932 87.656V85.412H483.776C482.96 85.412 482.72 85.436 482.648 85.436C482.528 85.436 482.516 85.424 482.516 85.304V84.428C482.516 84.308 482.528 84.296 482.648 84.296C482.72 84.296 482.96 84.32 483.776 84.32H483.932V83.684C483.932 82.916 483.92 82.532 483.848 81.98C484.292 81.992 484.652 82.016 485.072 82.064C485.18 82.076 485.264 82.124 485.264 82.196C485.264 82.292 485.216 82.364 485.18 82.448C485.108 82.592 485.108 82.844 485.108 83.66V84.32C485.816 84.32 486.056 84.296 486.128 84.296C486.248 84.296 486.26 84.308 486.26 84.428V85.304C486.26 85.424 486.248 85.436 486.128 85.436C486.056 85.436 485.816 85.412 485.108 85.412V87.272C485.444 87.14 485.792 87.008 486.14 86.84C486.116 87.08 486.104 87.344 486.092 87.62C486.092 88.016 486.08 87.992 485.732 88.148L485.108 88.424ZM503.036 86.156V84.812C503.036 84.128 503.024 83.756 502.976 83.288C503.42 83.3 503.804 83.324 504.224 83.372C504.344 83.384 504.416 83.432 504.416 83.504C504.416 83.588 504.38 83.672 504.356 83.744C504.296 83.9 504.272 84.128 504.272 84.92V86.612C504.272 87.332 504.296 87.68 504.296 87.752C504.296 87.884 504.284 87.896 504.176 87.896H503.18C503.048 87.896 503.036 87.884 503.036 87.752V87.308H500.576V91.004H503.42V90.092C503.42 89.396 503.408 89.036 503.348 88.568C503.804 88.58 504.2 88.604 504.608 88.652C504.716 88.664 504.788 88.724 504.788 88.784C504.788 88.868 504.752 88.952 504.728 89.024C504.668 89.18 504.644 89.408 504.644 90.2V91.652C504.644 92.324 504.668 92.636 504.668 92.708C504.668 92.816 504.656 92.828 504.536 92.828H503.552C503.432 92.828 503.42 92.816 503.42 92.708V92.156H496.592V92.768C496.592 92.876 496.58 92.888 496.46 92.888H495.476C495.344 92.888 495.332 92.876 495.332 92.768C495.332 92.684 495.356 92.384 495.356 91.712V90.128C495.356 89.444 495.344 89.084 495.284 88.616C495.74 88.628 496.136 88.652 496.544 88.7C496.664 88.712 496.748 88.76 496.748 88.832C496.748 88.916 496.7 89 496.676 89.072C496.616 89.216 496.592 89.456 496.592 90.116V91.004H499.292V87.308H496.976V87.8C496.976 87.92 496.964 87.932 496.844 87.932H495.848C495.728 87.932 495.716 87.92 495.716 87.8C495.716 87.716 495.74 87.38 495.74 86.66V84.86C495.74 84.164 495.728 83.804 495.668 83.324C496.124 83.336 496.52 83.36 496.928 83.408C497.048 83.42 497.108 83.48 497.108 83.552C497.108 83.636 497.072 83.696 497.048 83.792C496.988 83.936 496.976 84.176 496.976 84.848V86.156H499.292V83.528C499.292 82.82 499.268 82.448 499.208 81.98C499.664 81.992 500.108 82.028 500.528 82.076C500.636 82.088 500.708 82.124 500.708 82.196C500.708 82.28 500.672 82.34 500.636 82.436C500.588 82.592 500.576 82.76 500.576 83.54V86.156H503.036Z"
          fill="black"/>
    <path d="M41 42.6853L45.5937 47.8" stroke="white" stroke-width="4" stroke-miterlimit="10" stroke-linecap="round"/>
    <path d="M54 40L45.5938 47.8" stroke="white" stroke-width="4" stroke-miterlimit="10" stroke-linecap="round"/>
    <path d="M255 42.6853L259.594 47.8" stroke="white" stroke-width="4" stroke-miterlimit="10" stroke-linecap="round"/>
    <path d="M268 40L259.594 47.8" stroke="white" stroke-width="4" stroke-miterlimit="10" stroke-linecap="round"/>
    <path d="M469 42.6853L473.594 47.8" stroke="white" stroke-width="4" stroke-miterlimit="10" stroke-linecap="round"/>
    <path d="M482 40L473.594 47.8" stroke="white" stroke-width="4" stroke-miterlimit="10" stroke-linecap="round"/>
    <path d="M683 43.6853L687.594 48.8" stroke="white" stroke-width="4" stroke-miterlimit="10" stroke-linecap="round"/>
    <path d="M696 41L687.594 48.8" stroke="white" stroke-width="4" stroke-miterlimit="10" stroke-linecap="round"/>
</svg>
