<svg width="613" height="96" viewBox="0 0 613 96" fill="none" xmlns="http://www.w3.org/2000/svg">
<g clip-path="url(#clip0_3575_6911)">
<rect x="215.5" y="1.5" width="396" height="93" rx="13.5" stroke="#EEEEEE" stroke-width="3" stroke-dasharray="4 4"/>
<path d="M74.0001 49L197.574 49" stroke="#6600CC" stroke-width="7" stroke-linecap="round"/>
<path d="M251.266 79.2842H257.53V80.0522H251.266V79.2842ZM250.882 76.9082H258.034V77.6282H250.882V76.9082ZM250.882 75.8642H258.034V76.5842H250.882V75.8642ZM249.142 74.7362H259.786V75.5402H249.142V74.7362ZM251.062 73.6922H257.818V74.4122H251.062V73.6922ZM250.666 77.9642H258.25V80.2682H256.834V78.7322H252.022V80.2802H250.666V77.9642ZM249.178 69.8282H253.906V70.7402H249.178V69.8282ZM254.866 70.9082H259.846V71.8922H254.866V70.9082ZM249.13 71.4002C249.538 71.3842 250.002 71.3642 250.522 71.3402C251.042 71.3162 251.59 71.2882 252.166 71.2562C252.75 71.2242 253.334 71.1922 253.918 71.1602L253.906 72.0362C253.058 72.1002 252.218 72.1602 251.386 72.2162C250.562 72.2722 249.83 72.3202 249.19 72.3602L249.13 71.4002ZM256.942 71.3042H258.274V73.8122H256.942V71.3042ZM251.014 69.0002H252.334V72.6842C252.334 72.9722 252.298 73.1922 252.226 73.3442C252.162 73.4962 252.03 73.6122 251.83 73.6922C251.63 73.7722 251.39 73.8202 251.11 73.8362C250.838 73.8442 250.514 73.8482 250.138 73.8482C250.106 73.6882 250.054 73.5122 249.982 73.3202C249.918 73.1282 249.85 72.9602 249.778 72.8162C249.994 72.8242 250.206 72.8282 250.414 72.8282C250.622 72.8282 250.758 72.8282 250.822 72.8282C250.894 72.8202 250.942 72.8042 250.966 72.7802C250.998 72.7562 251.014 72.7122 251.014 72.6482V69.0002ZM254.434 69.2762L256.03 69.6122C256.022 69.6682 255.994 69.7122 255.946 69.7442C255.906 69.7762 255.834 69.8002 255.73 69.8162V70.7042C255.73 71.0242 255.686 71.3762 255.598 71.7602C255.51 72.1442 255.342 72.5242 255.094 72.9002C254.854 73.2682 254.498 73.5962 254.026 73.8842C253.97 73.7802 253.89 73.6642 253.786 73.5362C253.69 73.4082 253.582 73.2882 253.462 73.1762C253.35 73.0562 253.242 72.9642 253.138 72.9002C253.522 72.6762 253.806 72.4402 253.99 72.1922C254.174 71.9362 254.294 71.6762 254.35 71.4122C254.406 71.1482 254.434 70.8922 254.434 70.6442V69.2762ZM258.538 69.0002L259.498 69.7802C259.098 69.9002 258.654 70.0082 258.166 70.1042C257.678 70.1922 257.182 70.2682 256.678 70.3322C256.174 70.3882 255.686 70.4362 255.214 70.4762C255.19 70.3562 255.146 70.2122 255.082 70.0442C255.018 69.8762 254.954 69.7362 254.89 69.6242C255.338 69.5842 255.786 69.5322 256.234 69.4682C256.69 69.4042 257.118 69.3322 257.518 69.2522C257.918 69.1722 258.258 69.0882 258.538 69.0002ZM266.362 74.4362L267.526 73.8602C267.734 74.1322 267.942 74.4322 268.15 74.7602C268.358 75.0802 268.546 75.4002 268.714 75.7202C268.882 76.0322 269.006 76.3162 269.086 76.5722L267.838 77.2202C267.766 76.9722 267.65 76.6882 267.49 76.3682C267.338 76.0402 267.162 75.7082 266.962 75.3722C266.77 75.0362 266.57 74.7242 266.362 74.4362ZM266.77 71.0402H271.078V72.4082H266.77V71.0402ZM270.454 71.0402H271.846C271.846 71.0402 271.846 71.0842 271.846 71.1722C271.846 71.2602 271.846 71.3562 271.846 71.4602C271.846 71.5642 271.842 71.6482 271.834 71.7122C271.794 73.0322 271.75 74.1562 271.702 75.0842C271.662 76.0042 271.61 76.7642 271.546 77.3642C271.482 77.9642 271.406 78.4362 271.318 78.7802C271.238 79.1242 271.134 79.3762 271.006 79.5362C270.838 79.7682 270.662 79.9282 270.478 80.0162C270.302 80.1042 270.086 80.1682 269.83 80.2082C269.614 80.2402 269.334 80.2562 268.99 80.2562C268.654 80.2562 268.306 80.2522 267.946 80.2442C267.938 80.0362 267.89 79.7922 267.802 79.5122C267.714 79.2402 267.602 79.0002 267.466 78.7922C267.85 78.8242 268.202 78.8442 268.522 78.8522C268.842 78.8602 269.078 78.8642 269.23 78.8642C269.358 78.8642 269.458 78.8482 269.53 78.8162C269.61 78.7842 269.686 78.7322 269.758 78.6602C269.854 78.5562 269.938 78.3442 270.01 78.0242C270.082 77.7042 270.142 77.2562 270.19 76.6802C270.246 76.0962 270.294 75.3642 270.334 74.4842C270.382 73.6042 270.422 72.5522 270.454 71.3282V71.0402ZM266.842 68.9882L268.33 69.3242C268.162 69.9162 267.958 70.5002 267.718 71.0762C267.486 71.6442 267.23 72.1762 266.95 72.6722C266.67 73.1682 266.378 73.6002 266.074 73.9682C265.978 73.8802 265.854 73.7802 265.702 73.6682C265.55 73.5562 265.39 73.4482 265.222 73.3442C265.054 73.2402 264.91 73.1562 264.79 73.0922C265.102 72.7722 265.386 72.3962 265.642 71.9642C265.898 71.5242 266.126 71.0522 266.326 70.5482C266.534 70.0362 266.706 69.5162 266.842 68.9882ZM262.606 69.0122L263.878 69.4562C263.718 69.7682 263.55 70.0882 263.374 70.4162C263.198 70.7362 263.026 71.0482 262.858 71.3522C262.69 71.6482 262.526 71.9082 262.366 72.1322L261.394 71.7362C261.538 71.4882 261.686 71.2082 261.838 70.8962C261.99 70.5762 262.134 70.2522 262.27 69.9242C262.406 69.5962 262.518 69.2922 262.606 69.0122ZM264.046 70.4402L265.27 70.9442C264.974 71.4002 264.654 71.8802 264.31 72.3842C263.966 72.8802 263.618 73.3562 263.266 73.8122C262.914 74.2682 262.586 74.6682 262.282 75.0122L261.406 74.5682C261.638 74.2962 261.874 73.9882 262.114 73.6442C262.354 73.3002 262.59 72.9442 262.822 72.5762C263.062 72.2082 263.286 71.8402 263.494 71.4722C263.71 71.0962 263.894 70.7522 264.046 70.4402ZM260.758 71.8562L261.442 70.8722C261.65 71.0482 261.866 71.2482 262.09 71.4722C262.314 71.6882 262.518 71.9042 262.702 72.1202C262.894 72.3362 263.038 72.5362 263.134 72.7202L262.402 73.8362C262.306 73.6522 262.166 73.4442 261.982 73.2122C261.806 72.9722 261.61 72.7362 261.394 72.5042C261.178 72.2642 260.966 72.0482 260.758 71.8562ZM263.758 73.3322L264.778 72.8882C264.938 73.1522 265.094 73.4362 265.246 73.7402C265.398 74.0442 265.53 74.3442 265.642 74.6402C265.754 74.9282 265.838 75.1882 265.894 75.4202L264.79 75.9242C264.742 75.7002 264.666 75.4402 264.562 75.1442C264.458 74.8402 264.334 74.5322 264.19 74.2202C264.054 73.9002 263.91 73.6042 263.758 73.3322ZM260.758 74.2922C261.31 74.2762 261.974 74.2522 262.75 74.2202C263.534 74.1882 264.33 74.1522 265.138 74.1122L265.126 75.2522C264.374 75.3082 263.626 75.3642 262.882 75.4202C262.138 75.4682 261.47 75.5082 260.878 75.5402L260.758 74.2922ZM263.962 76.3322L265.018 75.9842C265.186 76.3442 265.342 76.7362 265.486 77.1602C265.63 77.5842 265.734 77.9522 265.798 78.2642L264.682 78.6722C264.626 78.3522 264.53 77.9762 264.394 77.5442C264.258 77.1042 264.114 76.7002 263.962 76.3322ZM261.274 76.0562L262.462 76.2722C262.398 76.8482 262.302 77.4162 262.174 77.9762C262.046 78.5362 261.898 79.0082 261.73 79.3922C261.65 79.3362 261.542 79.2722 261.406 79.2002C261.27 79.1362 261.13 79.0722 260.986 79.0082C260.85 78.9442 260.73 78.8962 260.626 78.8642C260.802 78.5042 260.942 78.0762 261.046 77.5802C261.15 77.0762 261.226 76.5682 261.274 76.0562ZM262.666 74.9282H263.938V80.2802H262.666V74.9282ZM274.534 76.3922H282.538V80.3042H281.074V77.3042H275.926V80.3162H274.534V76.3922ZM275.266 77.7482H281.59V78.5762H275.266V77.7482ZM275.266 79.0442H281.59V79.9562H275.266V79.0442ZM277.666 68.9642H279.118V75.6722H277.666V68.9642ZM274.27 69.7202H282.478V73.2962H274.138V72.4442H281.05V70.5722H274.27V69.7202ZM273.034 71.0042H283.858V72.0002H273.034V71.0042ZM273.874 73.7162H282.97V74.5802H273.874V73.7162ZM273.022 75.0242H283.858V76.0202H273.022V75.0242ZM290.65 71.9162V72.5162H293.902V71.9162H290.65ZM290.65 70.4042V70.9922H293.902V70.4042H290.65ZM289.342 69.3722H295.282V73.5362H289.342V69.3722ZM288.754 74.1002H295.894V75.2642H288.754V74.1002ZM291.598 74.7362H292.954V79.6202L291.598 79.0322V74.7362ZM290.494 76.8602C290.694 77.4522 290.958 77.8922 291.286 78.1802C291.614 78.4602 291.99 78.6482 292.414 78.7442C292.838 78.8322 293.294 78.8762 293.782 78.8762C293.886 78.8762 294.042 78.8762 294.25 78.8762C294.466 78.8762 294.698 78.8762 294.946 78.8762C295.202 78.8762 295.446 78.8762 295.678 78.8762C295.91 78.8682 296.09 78.8602 296.218 78.8522C296.162 78.9482 296.106 79.0722 296.05 79.2242C296.002 79.3762 295.958 79.5322 295.918 79.6922C295.878 79.8522 295.846 79.9922 295.822 80.1122H295.342H293.734C293.238 80.1122 292.782 80.0762 292.366 80.0042C291.95 79.9322 291.57 79.7922 291.226 79.5842C290.882 79.3762 290.574 79.0762 290.302 78.6842C290.038 78.2922 289.814 77.7802 289.63 77.1482L290.494 76.8602ZM292.582 76.3082H295.246V77.4362H292.582V76.3082ZM289.462 75.6242L290.77 75.7802C290.642 76.7562 290.422 77.6242 290.11 78.3842C289.798 79.1362 289.374 79.7602 288.838 80.2562C288.766 80.1762 288.666 80.0802 288.538 79.9682C288.41 79.8562 288.278 79.7482 288.142 79.6442C288.006 79.5402 287.886 79.4562 287.782 79.3922C288.286 79.0002 288.67 78.4762 288.934 77.8202C289.198 77.1642 289.374 76.4322 289.462 75.6242ZM284.722 75.0962C285.21 74.9922 285.794 74.8522 286.474 74.6762C287.154 74.4922 287.842 74.3042 288.538 74.1122L288.73 75.4082C288.098 75.5922 287.458 75.7802 286.81 75.9722C286.162 76.1562 285.57 76.3242 285.034 76.4762L284.722 75.0962ZM284.842 71.2802H288.658V72.6002H284.842V71.2802ZM286.138 69.0122H287.458V78.6002C287.458 78.9282 287.422 79.1882 287.35 79.3802C287.286 79.5722 287.162 79.7242 286.978 79.8362C286.794 79.9482 286.566 80.0202 286.294 80.0522C286.03 80.0922 285.702 80.1122 285.31 80.1122C285.294 79.9362 285.25 79.7162 285.178 79.4522C285.106 79.1962 285.026 78.9762 284.938 78.7922C285.154 78.8002 285.358 78.8042 285.55 78.8042C285.742 78.8042 285.874 78.8002 285.946 78.7922C286.018 78.7922 286.066 78.7802 286.09 78.7562C286.122 78.7242 286.138 78.6682 286.138 78.5882V69.0122ZM298.366 78.1682H306.562V79.5722H298.366V78.1682ZM301.63 69.1322H303.118V79.0322H301.63V69.1322ZM297.658 75.1682H299.122V80.2802H297.658V75.1682ZM305.794 75.1682H307.294V80.2682H305.794V75.1682ZM298.126 70.1402H299.566V73.1162H305.302V70.1282H306.814V74.5202H298.126V70.1402Z" fill="#6600CC"/>
<path d="M513.752 70.264H515V77.056H513.752V70.264ZM515.816 69.052H517.208V78.352C517.208 78.76 517.164 79.072 517.076 79.288C516.988 79.504 516.824 79.668 516.584 79.78C516.352 79.9 516.052 79.976 515.684 80.008C515.324 80.048 514.884 80.068 514.364 80.068C514.356 79.932 514.324 79.776 514.268 79.6C514.22 79.424 514.164 79.244 514.1 79.06C514.036 78.884 513.972 78.732 513.908 78.604C514.252 78.612 514.576 78.62 514.88 78.628C515.192 78.628 515.408 78.628 515.528 78.628C515.632 78.628 515.704 78.608 515.744 78.568C515.792 78.528 515.816 78.456 515.816 78.352V69.052ZM506.552 69.316H513.26V70.516H506.552V69.316ZM507.392 78.496H512.324V79.588H507.392V78.496ZM507.512 76.636H512.216V77.68H507.512V76.636ZM509.3 75.412H510.584V79.036H509.3V75.412ZM506.792 74.788H513.152V79.972H511.784V75.88H508.1V80.044H506.792V74.788ZM508.496 72.208V73.096H511.352V72.208H508.496ZM507.2 71.104H512.72V74.176H507.2V71.104ZM519.284 69.448H528.92V70.408H519.284V69.448ZM519.836 70.84H528.368V71.704H519.836V70.84ZM518.588 72.136H529.412V73.132H518.588V72.136ZM521.444 75.652V76.144H526.652V75.652H521.444ZM521.444 76.936V77.44H526.652V76.936H521.444ZM521.444 74.38V74.872H526.652V74.38H521.444ZM520.04 73.552H528.116V78.268H520.04V73.552ZM523.268 68.8H524.756V72.664H523.268V68.8ZM524.672 78.808L525.908 78.136C526.324 78.264 526.752 78.408 527.192 78.568C527.632 78.72 528.052 78.868 528.452 79.012C528.852 79.164 529.196 79.304 529.484 79.432L527.744 80.08C527.528 79.96 527.256 79.824 526.928 79.672C526.6 79.528 526.24 79.38 525.848 79.228C525.464 79.084 525.072 78.944 524.672 78.808ZM522.032 78.1L523.316 78.676C522.988 78.868 522.608 79.056 522.176 79.24C521.744 79.424 521.3 79.592 520.844 79.744C520.396 79.896 519.964 80.02 519.548 80.116C519.476 80.02 519.376 79.904 519.248 79.768C519.12 79.64 518.992 79.512 518.864 79.384C518.736 79.264 518.616 79.164 518.504 79.084C518.936 79.012 519.368 78.928 519.8 78.832C520.24 78.728 520.652 78.616 521.036 78.496C521.42 78.368 521.752 78.236 522.032 78.1ZM540.224 68.968L541.28 70.192C540.808 70.344 540.3 70.488 539.756 70.624C539.212 70.752 538.648 70.872 538.064 70.984C537.48 71.088 536.896 71.184 536.312 71.272C535.728 71.352 535.156 71.424 534.596 71.488C534.564 71.312 534.504 71.104 534.416 70.864C534.328 70.624 534.244 70.42 534.164 70.252C534.708 70.188 535.256 70.112 535.808 70.024C536.368 69.928 536.912 69.824 537.44 69.712C537.976 69.6 538.48 69.484 538.952 69.364C539.424 69.236 539.848 69.104 540.224 68.968ZM533.828 73.816H541.58V75.208H533.828V73.816ZM534.32 78.28H541.448V79.66H534.32V78.28ZM537.092 70.744H538.556V78.712H537.092V70.744ZM532.004 72.304L533.408 70.888L533.432 70.912V80.056H532.004V72.304ZM533.192 68.848L534.608 69.292C534.336 69.996 534.008 70.7 533.624 71.404C533.24 72.1 532.828 72.76 532.388 73.384C531.948 74 531.492 74.54 531.02 75.004C530.972 74.884 530.896 74.728 530.792 74.536C530.688 74.344 530.58 74.152 530.468 73.96C530.356 73.768 530.256 73.612 530.168 73.492C530.568 73.116 530.956 72.684 531.332 72.196C531.716 71.7 532.064 71.164 532.376 70.588C532.696 70.012 532.968 69.432 533.192 68.848ZM542.6 72.448H553.4V73.708H542.6V72.448ZM543.632 70.096H550.496V71.344H543.632V70.096ZM545.756 76.624H551.108V77.716H545.756V76.624ZM545.756 78.52H551.108V79.732H545.756V78.52ZM546.464 68.8H547.892V73.156H546.464V68.8ZM551.744 69.148L552.98 69.796C552.204 70.884 551.292 71.876 550.244 72.772C549.196 73.668 548.064 74.46 546.848 75.148C545.64 75.836 544.388 76.42 543.092 76.9C543.036 76.796 542.956 76.672 542.852 76.528C542.748 76.376 542.636 76.224 542.516 76.072C542.404 75.92 542.304 75.8 542.216 75.712C543.52 75.296 544.764 74.768 545.948 74.128C547.14 73.488 548.228 72.748 549.212 71.908C550.204 71.068 551.048 70.148 551.744 69.148ZM544.94 74.668H552.02V80.032H550.52V75.856H546.38V80.08H544.94V74.668ZM557.792 72.016H562.232V73.216H557.792V72.016ZM554.84 78.652H565.208V79.84H554.84V78.652ZM555.536 69.244H558.896V70.408H555.536V69.244ZM558.44 69.244H558.692L558.932 69.184L559.88 69.664C559.656 70.248 559.376 70.796 559.04 71.308C558.704 71.812 558.324 72.276 557.9 72.7C557.476 73.124 557.024 73.504 556.544 73.84C556.064 74.168 555.572 74.456 555.068 74.704C554.98 74.552 554.848 74.372 554.672 74.164C554.504 73.948 554.348 73.78 554.204 73.66C554.652 73.468 555.092 73.228 555.524 72.94C555.964 72.652 556.372 72.324 556.748 71.956C557.132 71.588 557.468 71.196 557.756 70.78C558.052 70.364 558.28 69.936 558.44 69.496V69.244ZM561.188 68.848C561.46 69.496 561.82 70.112 562.268 70.696C562.724 71.28 563.248 71.8 563.84 72.256C564.44 72.712 565.084 73.072 565.772 73.336C565.668 73.432 565.552 73.552 565.424 73.696C565.304 73.832 565.188 73.976 565.076 74.128C564.972 74.272 564.884 74.408 564.812 74.536C564.076 74.2 563.4 73.768 562.784 73.24C562.176 72.712 561.636 72.108 561.164 71.428C560.692 70.748 560.288 70.016 559.952 69.232L561.188 68.848ZM554.96 71.404L555.74 70.612C555.916 70.716 556.1 70.832 556.292 70.96C556.484 71.088 556.664 71.22 556.832 71.356C557.008 71.492 557.148 71.62 557.252 71.74L556.436 72.616C556.284 72.44 556.064 72.236 555.776 72.004C555.496 71.772 555.224 71.572 554.96 71.404ZM563.024 68.92L564.116 69.688C563.78 69.968 563.428 70.244 563.06 70.516C562.7 70.788 562.368 71.02 562.064 71.212L561.212 70.54C561.404 70.404 561.612 70.244 561.836 70.06C562.06 69.868 562.276 69.672 562.484 69.472C562.7 69.272 562.88 69.088 563.024 68.92ZM564.38 70.312L565.436 71.056C565.1 71.352 564.736 71.648 564.344 71.944C563.96 72.24 563.608 72.484 563.288 72.676L562.424 72.004C562.64 71.86 562.864 71.692 563.096 71.5C563.336 71.308 563.568 71.108 563.792 70.9C564.024 70.692 564.22 70.496 564.38 70.312ZM557.912 75.04V76.108H562.016V75.04H557.912ZM556.508 73.9H563.504V77.248H556.508V73.9ZM557.204 77.404L558.524 77.068C558.676 77.284 558.812 77.528 558.932 77.8C559.06 78.072 559.152 78.312 559.208 78.52L557.816 78.916C557.776 78.708 557.696 78.46 557.576 78.172C557.464 77.884 557.34 77.628 557.204 77.404ZM561.476 77.044L562.88 77.344C562.728 77.64 562.584 77.92 562.448 78.184C562.312 78.448 562.18 78.676 562.052 78.868L560.792 78.58C560.88 78.436 560.964 78.276 561.044 78.1C561.132 77.916 561.212 77.732 561.284 77.548C561.364 77.364 561.428 77.196 561.476 77.044ZM576.524 74.2L577.64 74.896C577.4 75.168 577.152 75.44 576.896 75.712C576.64 75.976 576.404 76.208 576.188 76.408L575.288 75.796C575.424 75.66 575.568 75.5 575.72 75.316C575.872 75.132 576.02 74.944 576.164 74.752C576.308 74.552 576.428 74.368 576.524 74.2ZM571.184 74.98L572.12 74.38C572.36 74.596 572.6 74.848 572.84 75.136C573.08 75.416 573.256 75.668 573.368 75.892L572.36 76.564C572.264 76.34 572.1 76.08 571.868 75.784C571.644 75.48 571.416 75.212 571.184 74.98ZM571.7 69.208H576.656V73.432H575.324V70.384H571.7V69.208ZM571.964 71.032H576.068V72.124H571.964V71.032ZM571.124 72.748H577.544V73.96H571.124V72.748ZM573.596 73.372H574.928V78.712C574.928 79.016 574.896 79.256 574.832 79.432C574.776 79.616 574.656 79.756 574.472 79.852C574.288 79.956 574.072 80.02 573.824 80.044C573.576 80.068 573.288 80.08 572.96 80.08C572.944 79.896 572.9 79.688 572.828 79.456C572.764 79.224 572.696 79.016 572.624 78.832C572.792 78.84 572.952 78.844 573.104 78.844C573.264 78.844 573.372 78.844 573.428 78.844C573.5 78.844 573.544 78.832 573.56 78.808C573.584 78.784 573.596 78.744 573.596 78.688V73.372ZM570.776 78.1C571.08 77.932 571.444 77.716 571.868 77.452C572.292 77.18 572.724 76.9 573.164 76.612L573.608 77.704C573.248 77.968 572.88 78.236 572.504 78.508C572.136 78.78 571.78 79.032 571.436 79.264L570.776 78.1ZM574.892 74.224C574.988 74.576 575.116 74.944 575.276 75.328C575.444 75.712 575.644 76.092 575.876 76.468C576.116 76.844 576.396 77.188 576.716 77.5C577.044 77.804 577.416 78.06 577.832 78.268C577.736 78.356 577.628 78.472 577.508 78.616C577.396 78.752 577.284 78.892 577.172 79.036C577.06 79.188 576.972 79.328 576.908 79.456C576.516 79.2 576.164 78.892 575.852 78.532C575.548 78.172 575.28 77.784 575.048 77.368C574.816 76.944 574.62 76.528 574.46 76.12C574.308 75.712 574.184 75.332 574.088 74.98L574.892 74.224ZM567.2 71.8H570.752V73H567.2V71.8ZM566.624 73.876H571.016V75.088H566.624V73.876ZM566.744 75.772L567.668 75.532C567.764 75.868 567.852 76.232 567.932 76.624C568.012 77.008 568.064 77.34 568.088 77.62L567.116 77.884C567.108 77.588 567.068 77.248 566.996 76.864C566.924 76.472 566.84 76.108 566.744 75.772ZM566.492 78.508C566.876 78.452 567.312 78.384 567.8 78.304C568.288 78.216 568.8 78.124 569.336 78.028C569.88 77.932 570.424 77.836 570.968 77.74L571.064 78.94C570.32 79.092 569.568 79.244 568.808 79.396C568.056 79.556 567.376 79.696 566.768 79.816L566.492 78.508ZM570.068 75.448L571.1 75.688C571.004 76.032 570.904 76.38 570.8 76.732C570.704 77.084 570.612 77.384 570.524 77.632L569.648 77.404C569.704 77.22 569.756 77.012 569.804 76.78C569.86 76.548 569.912 76.316 569.96 76.084C570.008 75.844 570.044 75.632 570.068 75.448ZM568.268 72.28H569.516V78.736L568.268 78.964V72.28ZM568.208 68.8H568.964V69.076H569.372V69.448C569.14 69.896 568.832 70.412 568.448 70.996C568.064 71.572 567.576 72.128 566.984 72.664C566.928 72.568 566.848 72.46 566.744 72.34C566.64 72.22 566.532 72.104 566.42 71.992C566.316 71.88 566.216 71.792 566.12 71.728C566.464 71.44 566.768 71.132 567.032 70.804C567.296 70.468 567.528 70.128 567.728 69.784C567.928 69.44 568.088 69.112 568.208 68.8ZM568.4 68.8H569.396C569.628 69 569.872 69.224 570.128 69.472C570.384 69.72 570.624 69.968 570.848 70.216C571.08 70.456 571.268 70.68 571.412 70.888L570.488 71.992C570.368 71.784 570.204 71.548 569.996 71.284C569.788 71.012 569.564 70.748 569.324 70.492C569.092 70.228 568.864 70.004 568.64 69.82H568.4V68.8Z" fill="#6600CC"/>
<path d="M12.3857 70.3802C12.1377 70.7402 11.8417 71.1122 11.4977 71.4962C11.1537 71.8802 10.7697 72.2602 10.3457 72.6362C9.92967 73.0122 9.48567 73.3722 9.01367 73.7162C8.54967 74.0522 8.06567 74.3602 7.56167 74.6402C7.50567 74.5282 7.42567 74.4002 7.32167 74.2562C7.21767 74.1122 7.10567 73.9722 6.98567 73.8362C6.86567 73.7002 6.75367 73.5802 6.64967 73.4762C7.34567 73.1162 8.01367 72.6842 8.65367 72.1802C9.29367 71.6682 9.86567 71.1282 10.3697 70.5602C10.8817 69.9922 11.2857 69.4562 11.5817 68.9522H13.0697C13.3977 69.4242 13.7617 69.8802 14.1617 70.3202C14.5617 70.7602 14.9857 71.1682 15.4337 71.5442C15.8817 71.9202 16.3457 72.2602 16.8257 72.5642C17.3057 72.8682 17.7897 73.1242 18.2777 73.3322C18.0937 73.5162 17.9177 73.7242 17.7497 73.9562C17.5897 74.1802 17.4417 74.4042 17.3057 74.6282C16.8337 74.3642 16.3617 74.0682 15.8897 73.7402C15.4257 73.4042 14.9737 73.0482 14.5337 72.6722C14.0937 72.2962 13.6897 71.9122 13.3217 71.5202C12.9537 71.1282 12.6417 70.7482 12.3857 70.3802ZM12.4697 74.9522H16.4897V76.2362H12.4697V74.9522ZM7.32167 78.6482H17.5817V79.9562H7.32167V78.6482ZM11.7497 72.3842H13.2737V79.3442H11.7497V72.3842ZM8.62967 74.4602H10.0457V79.3202H8.62967V74.4602ZM20.2217 78.2042H28.6457V79.5722H20.2217V78.2042ZM19.0457 69.7202H29.8577V71.0642H19.0457V69.7202ZM19.4177 71.8562H20.8217V80.2802H19.4177V71.8562ZM28.0937 71.8562H29.4857V80.2562H28.0937V71.8562ZM23.6777 70.1162H25.1297V72.5762H23.6777V70.1162ZM23.7857 72.5762H25.0217V77.0522H23.7857V72.5762ZM22.7537 75.3122V76.3322H26.0657V75.3122H22.7537ZM22.7537 73.2122V74.2202H26.0657V73.2122H22.7537ZM21.5777 72.0362H27.3017V77.5082H21.5777V72.0362ZM34.2377 72.2162H38.6777V73.4162H34.2377V72.2162ZM31.2857 78.8522H41.6537V80.0402H31.2857V78.8522ZM31.9817 69.4442H35.3417V70.6082H31.9817V69.4442ZM34.8857 69.4442H35.1377L35.3777 69.3842L36.3257 69.8642C36.1017 70.4482 35.8217 70.9962 35.4857 71.5082C35.1497 72.0122 34.7697 72.4762 34.3457 72.9002C33.9217 73.3242 33.4697 73.7042 32.9897 74.0402C32.5097 74.3682 32.0177 74.6562 31.5137 74.9042C31.4257 74.7522 31.2937 74.5722 31.1177 74.3642C30.9497 74.1482 30.7937 73.9802 30.6497 73.8602C31.0977 73.6682 31.5377 73.4282 31.9697 73.1402C32.4097 72.8522 32.8177 72.5242 33.1937 72.1562C33.5777 71.7882 33.9137 71.3962 34.2017 70.9802C34.4977 70.5642 34.7257 70.1362 34.8857 69.6962V69.4442ZM37.6337 69.0482C37.9057 69.6962 38.2657 70.3122 38.7137 70.8962C39.1697 71.4802 39.6937 72.0002 40.2857 72.4562C40.8857 72.9122 41.5297 73.2722 42.2177 73.5362C42.1137 73.6322 41.9977 73.7522 41.8697 73.8962C41.7497 74.0322 41.6337 74.1762 41.5217 74.3282C41.4177 74.4722 41.3297 74.6082 41.2577 74.7362C40.5217 74.4002 39.8457 73.9682 39.2297 73.4402C38.6217 72.9122 38.0817 72.3082 37.6097 71.6282C37.1377 70.9482 36.7337 70.2162 36.3977 69.4322L37.6337 69.0482ZM31.4057 71.6042L32.1857 70.8122C32.3617 70.9162 32.5457 71.0322 32.7377 71.1602C32.9297 71.2882 33.1097 71.4202 33.2777 71.5562C33.4537 71.6922 33.5937 71.8202 33.6977 71.9402L32.8817 72.8162C32.7297 72.6402 32.5097 72.4362 32.2217 72.2042C31.9417 71.9722 31.6697 71.7722 31.4057 71.6042ZM39.4697 69.1202L40.5617 69.8882C40.2257 70.1682 39.8737 70.4442 39.5057 70.7162C39.1457 70.9882 38.8137 71.2202 38.5097 71.4122L37.6577 70.7402C37.8497 70.6042 38.0577 70.4442 38.2817 70.2602C38.5057 70.0682 38.7217 69.8722 38.9297 69.6722C39.1457 69.4722 39.3257 69.2882 39.4697 69.1202ZM40.8257 70.5122L41.8817 71.2562C41.5457 71.5522 41.1817 71.8482 40.7897 72.1442C40.4057 72.4402 40.0537 72.6842 39.7337 72.8762L38.8697 72.2042C39.0857 72.0602 39.3097 71.8922 39.5417 71.7002C39.7817 71.5082 40.0137 71.3082 40.2377 71.1002C40.4697 70.8922 40.6657 70.6962 40.8257 70.5122ZM34.3577 75.2402V76.3082H38.4617V75.2402H34.3577ZM32.9537 74.1002H39.9497V77.4482H32.9537V74.1002ZM33.6497 77.6042L34.9697 77.2682C35.1217 77.4842 35.2577 77.7282 35.3777 78.0002C35.5057 78.2722 35.5977 78.5122 35.6537 78.7202L34.2617 79.1162C34.2217 78.9082 34.1417 78.6602 34.0217 78.3722C33.9097 78.0842 33.7857 77.8282 33.6497 77.6042ZM37.9217 77.2442L39.3257 77.5442C39.1737 77.8402 39.0297 78.1202 38.8937 78.3842C38.7577 78.6482 38.6257 78.8762 38.4977 79.0682L37.2377 78.7802C37.3257 78.6362 37.4097 78.4762 37.4897 78.3002C37.5777 78.1162 37.6577 77.9322 37.7297 77.7482C37.8097 77.5642 37.8737 77.3962 37.9217 77.2442ZM52.9697 74.4002L54.0857 75.0962C53.8457 75.3682 53.5977 75.6402 53.3417 75.9122C53.0857 76.1762 52.8497 76.4082 52.6337 76.6082L51.7337 75.9962C51.8697 75.8602 52.0137 75.7002 52.1657 75.5162C52.3177 75.3322 52.4657 75.1442 52.6097 74.9522C52.7537 74.7522 52.8737 74.5682 52.9697 74.4002ZM47.6297 75.1802L48.5657 74.5802C48.8057 74.7962 49.0457 75.0482 49.2857 75.3362C49.5257 75.6162 49.7017 75.8682 49.8137 76.0922L48.8057 76.7642C48.7097 76.5402 48.5457 76.2802 48.3137 75.9842C48.0897 75.6802 47.8617 75.4122 47.6297 75.1802ZM48.1457 69.4082H53.1017V73.6322H51.7697V70.5842H48.1457V69.4082ZM48.4097 71.2322H52.5137V72.3242H48.4097V71.2322ZM47.5697 72.9482H53.9897V74.1602H47.5697V72.9482ZM50.0417 73.5722H51.3737V78.9122C51.3737 79.2162 51.3417 79.4562 51.2777 79.6322C51.2217 79.8162 51.1017 79.9562 50.9177 80.0522C50.7337 80.1562 50.5177 80.2202 50.2697 80.2442C50.0217 80.2682 49.7337 80.2802 49.4057 80.2802C49.3897 80.0962 49.3457 79.8882 49.2737 79.6562C49.2097 79.4242 49.1417 79.2162 49.0697 79.0322C49.2377 79.0402 49.3977 79.0442 49.5497 79.0442C49.7097 79.0442 49.8177 79.0442 49.8737 79.0442C49.9457 79.0442 49.9897 79.0322 50.0057 79.0082C50.0297 78.9842 50.0417 78.9442 50.0417 78.8882V73.5722ZM47.2217 78.3002C47.5257 78.1322 47.8897 77.9162 48.3137 77.6522C48.7377 77.3802 49.1697 77.1002 49.6097 76.8122L50.0537 77.9042C49.6937 78.1682 49.3257 78.4362 48.9497 78.7082C48.5817 78.9802 48.2257 79.2322 47.8817 79.4642L47.2217 78.3002ZM51.3377 74.4242C51.4337 74.7762 51.5617 75.1442 51.7217 75.5282C51.8897 75.9122 52.0897 76.2922 52.3217 76.6682C52.5617 77.0442 52.8417 77.3882 53.1617 77.7002C53.4897 78.0042 53.8617 78.2602 54.2777 78.4682C54.1817 78.5562 54.0737 78.6722 53.9537 78.8162C53.8417 78.9522 53.7297 79.0922 53.6177 79.2362C53.5057 79.3882 53.4177 79.5282 53.3537 79.6562C52.9617 79.4002 52.6097 79.0922 52.2977 78.7322C51.9937 78.3722 51.7257 77.9842 51.4937 77.5682C51.2617 77.1442 51.0657 76.7282 50.9057 76.3202C50.7537 75.9122 50.6297 75.5322 50.5337 75.1802L51.3377 74.4242ZM43.6457 72.0002H47.1977V73.2002H43.6457V72.0002ZM43.0697 74.0762H47.4617V75.2882H43.0697V74.0762ZM43.1897 75.9722L44.1137 75.7322C44.2097 76.0682 44.2977 76.4322 44.3777 76.8242C44.4577 77.2082 44.5097 77.5402 44.5337 77.8202L43.5617 78.0842C43.5537 77.7882 43.5137 77.4482 43.4417 77.0642C43.3697 76.6722 43.2857 76.3082 43.1897 75.9722ZM42.9377 78.7082C43.3217 78.6522 43.7577 78.5842 44.2457 78.5042C44.7337 78.4162 45.2457 78.3242 45.7817 78.2282C46.3257 78.1322 46.8697 78.0362 47.4137 77.9402L47.5097 79.1402C46.7657 79.2922 46.0137 79.4442 45.2537 79.5962C44.5017 79.7562 43.8217 79.8962 43.2137 80.0162L42.9377 78.7082ZM46.5137 75.6482L47.5457 75.8882C47.4497 76.2322 47.3497 76.5802 47.2457 76.9322C47.1497 77.2842 47.0577 77.5842 46.9697 77.8322L46.0937 77.6042C46.1497 77.4202 46.2017 77.2122 46.2497 76.9802C46.3057 76.7482 46.3577 76.5162 46.4057 76.2842C46.4537 76.0442 46.4897 75.8322 46.5137 75.6482ZM44.7137 72.4802H45.9617V78.9362L44.7137 79.1642V72.4802ZM44.6537 69.0002H45.4097V69.2762H45.8177V69.6482C45.5857 70.0962 45.2777 70.6122 44.8937 71.1962C44.5097 71.7722 44.0217 72.3282 43.4297 72.8642C43.3737 72.7682 43.2937 72.6602 43.1897 72.5402C43.0857 72.4202 42.9777 72.3042 42.8657 72.1922C42.7617 72.0802 42.6617 71.9922 42.5657 71.9282C42.9097 71.6402 43.2137 71.3322 43.4777 71.0042C43.7417 70.6682 43.9737 70.3282 44.1737 69.9842C44.3737 69.6402 44.5337 69.3122 44.6537 69.0002ZM44.8457 69.0002H45.8417C46.0737 69.2002 46.3177 69.4242 46.5737 69.6722C46.8297 69.9202 47.0697 70.1682 47.2937 70.4162C47.5257 70.6562 47.7137 70.8802 47.8577 71.0882L46.9337 72.1922C46.8137 71.9842 46.6497 71.7482 46.4417 71.4842C46.2337 71.2122 46.0097 70.9482 45.7697 70.6922C45.5377 70.4282 45.3097 70.2042 45.0857 70.0202H44.8457V69.0002Z" fill="#6600CC"/>
<path d="M387.403 70.408H397.135V77.548H395.635V71.788H388.843V77.608H387.403V70.408ZM388.351 73H396.343V74.332H388.351V73ZM388.339 75.592H396.367V76.972H388.339V75.592ZM391.447 68.8H392.959V80.068H391.447V68.8ZM399.163 72.484H402.787V73.576H399.163V72.484ZM399.211 69.184H402.763V70.264H399.211V69.184ZM399.163 74.128H402.787V75.208H399.163V74.128ZM398.599 70.792H403.183V71.932H398.599V70.792ZM399.787 75.784H402.811V79.444H399.787V78.304H401.575V76.924H399.787V75.784ZM399.139 75.784H400.351V79.912H399.139V75.784ZM403.471 69.46H409.591V70.48H403.471V69.46ZM403.783 70.924H409.411V71.884H403.783V70.924ZM403.195 72.364H409.819V73.396H403.195V72.364ZM405.811 68.8H407.167V73.24H405.811V68.8ZM404.011 73.852H408.607V74.872H405.331V80.056H404.011V73.852ZM407.827 73.852H409.171V78.736C409.171 79.032 409.135 79.264 409.063 79.432C408.991 79.608 408.851 79.744 408.643 79.84C408.443 79.936 408.199 79.992 407.911 80.008C407.623 80.032 407.287 80.044 406.903 80.044C406.879 79.868 406.827 79.668 406.747 79.444C406.675 79.228 406.603 79.044 406.531 78.892C406.747 78.9 406.963 78.904 407.179 78.904C407.403 78.904 407.551 78.9 407.623 78.892C407.703 78.892 407.755 78.88 407.779 78.856C407.811 78.824 407.827 78.776 407.827 78.712V73.852ZM404.587 75.4H408.511V76.348H404.587V75.4ZM404.587 76.9H408.511V77.836H404.587V76.9ZM416.443 71.716V72.316H419.695V71.716H416.443ZM416.443 70.204V70.792H419.695V70.204H416.443ZM415.135 69.172H421.075V73.336H415.135V69.172ZM414.547 73.9H421.687V75.064H414.547V73.9ZM417.391 74.536H418.747V79.42L417.391 78.832V74.536ZM416.287 76.66C416.487 77.252 416.751 77.692 417.079 77.98C417.407 78.26 417.783 78.448 418.207 78.544C418.631 78.632 419.087 78.676 419.575 78.676C419.679 78.676 419.835 78.676 420.043 78.676C420.259 78.676 420.491 78.676 420.739 78.676C420.995 78.676 421.239 78.676 421.471 78.676C421.703 78.668 421.883 78.66 422.011 78.652C421.955 78.748 421.899 78.872 421.843 79.024C421.795 79.176 421.751 79.332 421.711 79.492C421.671 79.652 421.639 79.792 421.615 79.912H421.135H419.527C419.031 79.912 418.575 79.876 418.159 79.804C417.743 79.732 417.363 79.592 417.019 79.384C416.675 79.176 416.367 78.876 416.095 78.484C415.831 78.092 415.607 77.58 415.423 76.948L416.287 76.66ZM418.375 76.108H421.039V77.236H418.375V76.108ZM415.255 75.424L416.563 75.58C416.435 76.556 416.215 77.424 415.903 78.184C415.591 78.936 415.167 79.56 414.631 80.056C414.559 79.976 414.459 79.88 414.331 79.768C414.203 79.656 414.071 79.548 413.935 79.444C413.799 79.34 413.679 79.256 413.575 79.192C414.079 78.8 414.463 78.276 414.727 77.62C414.991 76.964 415.167 76.232 415.255 75.424ZM410.515 74.896C411.003 74.792 411.587 74.652 412.267 74.476C412.947 74.292 413.635 74.104 414.331 73.912L414.523 75.208C413.891 75.392 413.251 75.58 412.603 75.772C411.955 75.956 411.363 76.124 410.827 76.276L410.515 74.896ZM410.635 71.08H414.451V72.4H410.635V71.08ZM411.931 68.812H413.251V78.4C413.251 78.728 413.215 78.988 413.143 79.18C413.079 79.372 412.955 79.524 412.771 79.636C412.587 79.748 412.359 79.82 412.087 79.852C411.823 79.892 411.495 79.912 411.103 79.912C411.087 79.736 411.043 79.516 410.971 79.252C410.899 78.996 410.819 78.776 410.731 78.592C410.947 78.6 411.151 78.604 411.343 78.604C411.535 78.604 411.667 78.6 411.739 78.592C411.811 78.592 411.859 78.58 411.883 78.556C411.915 78.524 411.931 78.468 411.931 78.388V68.812ZM424.159 77.968H432.355V79.372H424.159V77.968ZM427.423 68.932H428.911V78.832H427.423V68.932ZM423.451 74.968H424.915V80.08H423.451V74.968ZM431.587 74.968H433.087V80.068H431.587V74.968ZM423.919 69.94H425.359V72.916H431.095V69.928H432.607V74.32H423.919V69.94Z" fill="#E8DAFA"/>
<path d="M278.535 15.5C290.251 15.5 299.735 25.0434 299.735 36.7998C299.735 48.5563 290.251 58.0996 278.535 58.0996C266.82 58.0996 257.335 48.5563 257.335 36.7998C257.335 25.0434 266.82 15.5 278.535 15.5Z" fill="#6600CC" stroke="white" stroke-width="3"/>
<path d="M287.757 30.3008L276.299 41.7591L271.091 36.5508" stroke="white" stroke-width="4" stroke-linecap="round" stroke-linejoin="round"/>
<path d="M409.7 15.5C421.416 15.5 430.9 25.0434 430.9 36.7998C430.9 48.5563 421.416 58.0996 409.7 58.0996C397.985 58.0996 388.5 48.5563 388.5 36.7998C388.5 25.0434 397.985 15.5 409.7 15.5Z" fill="#E8DAFA" stroke="white" stroke-width="3"/>
<path d="M30.1636 15.5C41.8791 15.5 51.3637 25.0434 51.3638 36.7998C51.3638 48.5563 41.8792 58.0996 30.1636 58.0996C18.4479 58.0996 8.96338 48.5563 8.96338 36.7998C8.96348 25.0434 18.448 15.5 30.1636 15.5Z" fill="#6600CC" stroke="white" stroke-width="3"/>
<path d="M39.3859 30.3008L27.9276 41.7591L22.7192 36.5508" stroke="white" stroke-width="4" stroke-linecap="round" stroke-linejoin="round"/>
<path d="M541.7 17.5C553.416 17.5 562.9 27.0434 562.9 38.7998C562.9 50.5563 553.416 60.0996 541.7 60.0996C529.985 60.0996 520.5 50.5563 520.5 38.7998C520.5 27.0434 529.985 17.5 541.7 17.5Z" fill="#6600CC" stroke="white" stroke-width="3"/>
<path d="M550.923 32.3008L539.464 43.7591L534.256 38.5508" stroke="white" stroke-width="4" stroke-linecap="round" stroke-linejoin="round"/>
</g>
<defs>
<clipPath id="clip0_3575_6911">
<rect width="613" height="96" fill="white"/>
</clipPath>
</defs>
</svg>
