<svg width="127" height="37" viewBox="0 0 127 37" fill="none" xmlns="http://www.w3.org/2000/svg">
<g filter="url(#filter0_d_2045_5453)">
<path d="M118.344 1H8.65625C6.63696 1 5 2.29518 5 3.89286V25.1071C5 26.7048 6.63696 28 8.65625 28H118.344C120.363 28 122 26.7048 122 25.1071V3.89286C122 2.29518 120.363 1 118.344 1Z" fill="white"/>
<path d="M118.344 1H8.65625C6.63696 1 5 2.29518 5 3.89286V25.1071C5 26.7048 6.63696 28 8.65625 28H118.344C120.363 28 122 26.7048 122 25.1071V3.89286C122 2.29518 120.363 1 118.344 1Z" stroke="#F23030" stroke-width="2" stroke-miterlimit="10"/>
</g>
<path d="M36.5676 13.5385L23.1141 2.28907C22.2492 1.61602 21 2.19292 21 3.25056V25.7494C21 26.8071 22.2492 27.384 23.1141 26.7109L36.5676 15.4615C37.1441 14.9807 37.1441 14.0193 36.5676 13.4424V13.5385Z" fill="#F23030"/>
<path d="M45.9047 13.5357C45.9047 13.5357 45.9047 13.5357 45.9047 13.4393C45.9047 13.4393 45.9047 13.4393 45.9047 13.3429C45.9047 13.3429 45.9047 13.3429 45.9047 13.2464C45.9047 13.2464 45.9047 13.2464 45.9047 13.15C45.9047 13.15 45.9047 13.15 45.9047 13.0536C45.9047 13.0536 45.9047 13.0536 45.9047 12.9571L32.2832 1H28.9493C28.9493 1.48214 28.9493 1.96428 29.4256 2.35L42.7613 14.0179L28.473 26.4571C27.9967 26.8429 27.9015 27.5179 28.092 28H31.1402L46 15.0786C46 15.0786 46 15.0786 46 14.9821C46 14.9821 46 14.9821 46 14.8857C46 14.8857 46 14.8857 46 14.7893C46 14.7893 46 14.7893 46 14.6929C46 14.6929 46 14.6929 46 14.5964C46 14.5964 46 14.5964 46 14.5C46 14.5 46 14.5 46 14.4036C46 14.4036 46 14.4036 46 14.3071L45.9047 13.5357Z" fill="#F23030"/>
<path d="M57.792 10.78V10.408C57.792 9.748 57.768 9.376 57.696 8.944C58.152 8.956 58.608 8.98 59.016 9.028C59.124 9.04 59.208 9.088 59.208 9.148C59.208 9.244 59.184 9.316 59.148 9.4C59.088 9.556 59.064 9.82 59.064 10.384V10.78H61.176C62.34 10.78 62.748 10.756 62.82 10.756C62.94 10.756 62.952 10.768 62.952 10.888C62.952 10.96 62.928 11.404 62.928 12.736V14.488C62.928 16.72 62.952 17.14 62.952 17.212C62.952 17.332 62.94 17.344 62.82 17.344H61.812C61.692 17.344 61.68 17.332 61.68 17.212V16.804H59.064V17.584C59.064 19.012 59.076 19.744 59.076 19.804C59.076 19.924 59.064 19.936 58.956 19.936H57.888C57.78 19.936 57.768 19.924 57.768 19.804C57.768 19.732 57.792 19.012 57.792 17.596V16.804H55.26V17.26C55.26 17.38 55.248 17.392 55.128 17.392H54.12C54 17.392 53.988 17.38 53.988 17.26C53.988 17.188 54.012 16.768 54.012 14.524V12.964C54.012 11.404 53.988 10.972 53.988 10.888C53.988 10.768 54 10.756 54.12 10.756C54.204 10.756 54.612 10.78 55.764 10.78H57.792ZM59.064 15.712H61.68V14.284H59.064V15.712ZM55.26 15.712H57.792V14.284H55.26V15.712ZM61.68 11.872H59.064V13.216H61.68V11.872ZM55.26 11.872V13.216H57.792V11.872H55.26ZM75.156 15.832V16.888C75.156 17.488 75.168 18.184 75.168 18.604C75.168 19.06 75.108 19.384 74.868 19.588C74.664 19.768 74.4 19.852 73.524 19.852C73.152 19.864 73.128 19.84 73.068 19.576C72.996 19.276 72.924 19.024 72.756 18.76C73.02 18.784 73.356 18.796 73.572 18.796C73.968 18.796 74.04 18.664 74.04 18.424V17.968H71.124V18.388C71.124 19.348 71.148 19.756 71.148 19.816C71.148 19.936 71.136 19.948 71.016 19.948H70.104C69.984 19.948 69.972 19.936 69.972 19.816C69.972 19.744 69.996 19.384 69.996 18.412V15.736C69.996 14.884 69.972 14.512 69.972 14.428C69.972 14.308 69.984 14.296 70.104 14.296C70.188 14.296 70.536 14.32 71.544 14.32H73.608C74.628 14.32 74.964 14.296 75.036 14.296C75.168 14.296 75.18 14.308 75.18 14.428C75.18 14.5 75.156 14.956 75.156 15.832ZM71.124 17.176H74.04V16.576H71.124V17.176ZM74.04 15.232H71.124V15.784H74.04V15.232ZM73.692 12.34H73.08V12.904H74.304C75.444 12.904 75.828 12.88 75.9 12.88C76.008 12.88 76.02 12.892 76.02 13.024V13.708C76.02 13.816 76.008 13.828 75.9 13.828C75.828 13.828 75.444 13.816 74.304 13.816H71.076C69.936 13.816 69.54 13.828 69.468 13.828C69.348 13.828 69.336 13.816 69.336 13.708V13.024C69.336 12.892 69.348 12.88 69.468 12.88C69.54 12.88 69.936 12.904 71.076 12.904H71.916V12.34H71.496C70.476 12.34 70.128 12.364 70.056 12.364C69.948 12.364 69.936 12.352 69.936 12.232V11.62C69.936 11.5 69.948 11.488 70.056 11.488C70.128 11.488 70.476 11.512 71.496 11.512H71.916V10.96H71.328C70.248 10.96 69.888 10.984 69.816 10.984C69.696 10.984 69.684 10.972 69.684 10.852V10.192C69.684 10.072 69.696 10.06 69.816 10.06C69.888 10.06 70.248 10.084 71.328 10.084H71.916C71.904 9.652 71.88 9.304 71.832 8.908C72.288 8.92 72.612 8.944 73.02 8.992C73.14 9.004 73.212 9.076 73.212 9.124C73.212 9.232 73.164 9.316 73.14 9.412C73.104 9.544 73.08 9.712 73.08 10.084H74.016C75.096 10.084 75.468 10.06 75.54 10.06C75.66 10.06 75.672 10.072 75.672 10.192V10.852C75.672 10.972 75.66 10.984 75.54 10.984C75.468 10.984 75.096 10.96 74.016 10.96H73.08V11.512H73.68C74.712 11.512 75.048 11.488 75.12 11.488C75.252 11.488 75.264 11.5 75.264 11.62V12.232C75.264 12.352 75.252 12.364 75.12 12.364C75.048 12.364 74.712 12.34 73.692 12.34ZM69.024 17.056V17.884C69.024 19.276 69.048 19.54 69.048 19.612C69.048 19.732 69.036 19.744 68.916 19.744H68.064C67.944 19.744 67.932 19.732 67.932 19.612V19.288H66.684V19.828C66.684 19.948 66.672 19.96 66.552 19.96H65.7C65.568 19.96 65.556 19.948 65.556 19.828C65.556 19.756 65.58 19.48 65.58 18.028V17.26C65.58 16.504 65.556 16.216 65.556 16.132C65.556 16.012 65.568 16 65.7 16C65.772 16 66.024 16.024 66.792 16.024H67.812C68.592 16.024 68.832 16 68.916 16C69.036 16 69.048 16.012 69.048 16.132C69.048 16.204 69.024 16.492 69.024 17.056ZM67.932 17.02H66.684V18.292H67.932V17.02ZM66.492 11.068H67.932C68.844 11.068 69.144 11.044 69.216 11.044C69.336 11.044 69.348 11.056 69.348 11.176V12.028C69.348 12.16 69.336 12.172 69.216 12.172C69.144 12.172 68.844 12.148 67.932 12.148H66.492C65.58 12.148 65.28 12.172 65.208 12.172C65.1 12.172 65.088 12.16 65.088 12.028V11.176C65.088 11.056 65.1 11.044 65.208 11.044C65.28 11.044 65.58 11.068 66.492 11.068ZM66.816 9.424H67.824C68.604 9.424 68.832 9.4 68.904 9.4C69.036 9.4 69.048 9.412 69.048 9.532V10.324C69.048 10.444 69.036 10.456 68.904 10.456C68.832 10.456 68.604 10.432 67.824 10.432H66.816C66.036 10.432 65.796 10.456 65.724 10.456C65.604 10.456 65.592 10.444 65.592 10.324V9.532C65.592 9.412 65.604 9.4 65.724 9.4C65.796 9.4 66.036 9.424 66.816 9.424ZM66.864 12.772H67.776C68.508 12.772 68.724 12.748 68.784 12.748C68.916 12.748 68.928 12.76 68.928 12.88V13.66C68.928 13.78 68.916 13.792 68.784 13.792C68.724 13.792 68.508 13.768 67.776 13.768H66.864C66.132 13.768 65.916 13.792 65.844 13.792C65.724 13.792 65.712 13.78 65.712 13.66V12.88C65.712 12.76 65.724 12.748 65.844 12.748C65.916 12.748 66.132 12.772 66.864 12.772ZM66.864 14.392H67.776C68.508 14.392 68.724 14.368 68.784 14.368C68.916 14.368 68.928 14.38 68.928 14.5V15.268C68.928 15.388 68.916 15.4 68.784 15.4C68.724 15.4 68.508 15.376 67.776 15.376H66.864C66.132 15.376 65.916 15.4 65.844 15.4C65.724 15.4 65.712 15.388 65.712 15.268V14.5C65.712 14.38 65.724 14.368 65.844 14.368C65.916 14.368 66.132 14.392 66.864 14.392ZM83.796 15.34V17.272C83.796 17.404 83.724 17.464 83.568 17.488C83.412 17.512 83.052 17.548 82.716 17.548C82.608 17.548 82.56 17.476 82.56 17.356C82.56 16.924 82.56 16.324 82.572 15.892C81.504 16.444 81.12 16.912 81.12 17.488C81.12 17.992 81.528 18.316 82.788 18.316C83.892 18.316 84.852 18.208 85.776 18.076C85.884 18.064 85.932 18.1 85.944 18.208C86.004 18.484 86.052 18.904 86.052 19.192C86.064 19.336 86.016 19.42 85.92 19.42C84.888 19.552 84.108 19.576 82.944 19.576C80.976 19.576 79.932 18.988 79.932 17.596C79.932 16.444 80.652 15.604 82.464 14.668C82.428 14.056 82.284 13.816 81.744 13.84C81.18 13.864 80.64 14.224 80.088 14.704C79.572 15.208 79.272 15.556 78.888 16.012C78.828 16.084 78.792 16.12 78.744 16.12C78.708 16.12 78.66 16.084 78.612 16.036C78.444 15.868 78.084 15.496 77.928 15.244C77.892 15.196 77.88 15.16 77.88 15.136C77.88 15.088 77.904 15.052 77.964 15.004C78.888 14.176 79.776 13.228 80.472 12.028C79.908 12.052 79.26 12.064 78.552 12.064C78.444 12.064 78.408 12.004 78.384 11.872C78.348 11.68 78.3 11.236 78.264 10.876C79.176 10.924 80.112 10.912 81.024 10.864C81.156 10.54 81.264 10.252 81.384 9.832C81.432 9.628 81.468 9.424 81.468 9.1C81.996 9.184 82.524 9.316 82.836 9.436C82.932 9.472 82.98 9.556 82.98 9.64C82.98 9.7 82.956 9.772 82.896 9.82C82.824 9.88 82.752 9.988 82.692 10.108C82.62 10.276 82.56 10.432 82.416 10.756C83.148 10.672 83.88 10.552 84.6 10.384C84.732 10.36 84.768 10.396 84.792 10.504C84.852 10.744 84.9 11.02 84.912 11.368C84.924 11.488 84.876 11.536 84.708 11.56C83.808 11.692 82.776 11.824 81.9 11.92C81.624 12.364 81.36 12.808 81 13.252L81.012 13.276C81.396 13.024 81.888 12.904 82.212 12.904C83.004 12.904 83.556 13.264 83.676 14.2C84.144 13.984 84.828 13.672 85.44 13.36C85.668 13.24 86.052 13.024 86.352 12.712C86.748 13.132 87.06 13.552 87.192 13.768C87.264 13.876 87.288 13.96 87.288 14.032C87.288 14.128 87.228 14.176 87.108 14.2C86.856 14.236 86.616 14.296 86.376 14.38C85.596 14.656 84.816 14.92 83.796 15.34ZM94.98 14.272V16.924C94.98 17.524 95.004 18.196 95.004 18.568C95.004 19.012 94.968 19.336 94.704 19.552C94.476 19.732 94.14 19.816 93.216 19.816C92.856 19.816 92.82 19.816 92.748 19.444C92.688 19.12 92.568 18.856 92.448 18.652C92.808 18.688 93.108 18.7 93.432 18.7C93.744 18.7 93.816 18.628 93.816 18.388V17.272H90.84V18.232C90.84 19.216 90.864 19.708 90.864 19.78C90.864 19.888 90.852 19.9 90.732 19.9H89.784C89.652 19.9 89.64 19.888 89.64 19.78C89.64 19.696 89.664 19.24 89.664 18.196V14.176C89.664 13.132 89.64 12.652 89.64 12.58C89.64 12.448 89.652 12.436 89.784 12.436C89.856 12.436 90.216 12.46 91.236 12.46H91.704V10.744C91.704 10.048 91.692 9.58 91.62 9.04C92.076 9.052 92.46 9.076 92.856 9.124C92.976 9.136 93.036 9.184 93.036 9.244C93.036 9.364 92.988 9.448 92.952 9.556C92.916 9.676 92.904 10 92.904 10.744V12.46H93.42C94.44 12.46 94.788 12.436 94.872 12.436C94.992 12.436 95.004 12.448 95.004 12.58C95.004 12.652 94.98 13.204 94.98 14.272ZM90.84 16.288H93.816V15.352H90.84V16.288ZM93.816 13.48H90.84V14.38H93.816V13.48ZM99.576 10.792V15.868C99.576 16.708 99.6 17.656 99.6 18.256C99.6 18.844 99.516 19.192 99.168 19.432C98.832 19.648 98.472 19.732 97.344 19.732C96.972 19.732 96.972 19.72 96.888 19.348C96.804 19 96.672 18.664 96.504 18.436C96.984 18.484 97.332 18.496 97.824 18.496C98.208 18.496 98.352 18.4 98.352 18.016V10.816C98.352 10.036 98.34 9.664 98.256 9.112C98.7 9.124 99.108 9.136 99.528 9.184C99.648 9.196 99.72 9.256 99.72 9.316C99.72 9.424 99.684 9.496 99.648 9.58C99.576 9.724 99.576 9.976 99.576 10.792ZM95.988 15.064V11.728C95.988 10.936 95.988 10.516 95.904 9.952C96.336 9.964 96.708 9.988 97.128 10.036C97.248 10.048 97.296 10.096 97.296 10.168C97.296 10.264 97.248 10.348 97.224 10.432C97.176 10.6 97.176 10.84 97.176 11.716V15.064C97.176 16.084 97.2 16.576 97.2 16.648C97.2 16.78 97.188 16.792 97.068 16.792H96.096C95.976 16.792 95.964 16.78 95.964 16.648C95.964 16.576 95.988 16.084 95.988 15.064ZM93.288 11.752C93.636 11.164 93.864 10.588 94.032 10.048C94.08 9.892 94.116 9.724 94.128 9.508C94.488 9.616 94.896 9.76 95.208 9.904C95.292 9.94 95.328 9.988 95.328 10.048C95.328 10.096 95.304 10.144 95.256 10.192C95.196 10.252 95.16 10.3 95.112 10.408C94.932 10.936 94.728 11.404 94.44 11.92C94.356 12.1 94.308 12.184 94.224 12.184C94.164 12.184 94.08 12.136 93.936 12.052C93.744 11.932 93.492 11.824 93.288 11.752ZM89.352 9.928L90.072 9.628C90.204 9.568 90.228 9.58 90.3 9.688C90.624 10.252 90.948 10.9 91.188 11.584C91.224 11.692 91.2 11.716 91.056 11.776L90.324 12.088C90.168 12.16 90.156 12.148 90.108 12.004C89.88 11.332 89.592 10.684 89.256 10.132C89.184 10.012 89.196 10 89.352 9.928ZM107.628 15.724H106.968C105.852 15.724 105.468 15.748 105.396 15.748C105.264 15.748 105.252 15.736 105.252 15.616V14.788C105.252 14.668 105.264 14.656 105.396 14.656C105.468 14.656 105.852 14.68 106.968 14.68H107.628V13.552H107.496C106.584 13.552 106.296 13.576 106.224 13.576C106.104 13.576 106.092 13.564 106.092 13.432V12.868C105.84 13.06 105.588 13.228 105.324 13.396C105.192 13.48 105.108 13.528 105.048 13.528C104.976 13.528 104.928 13.444 104.82 13.24C104.676 12.964 104.496 12.724 104.304 12.568C105.732 11.788 106.812 10.732 107.448 9.7C107.592 9.472 107.652 9.28 107.736 9.028C108.168 9.076 108.552 9.124 108.876 9.196C109.008 9.232 109.068 9.28 109.068 9.352C109.068 9.436 109.02 9.484 108.948 9.532C108.912 9.556 108.876 9.58 108.852 9.616C109.608 10.744 110.808 11.716 112.14 12.34C111.972 12.532 111.816 12.808 111.684 13.156C111.6 13.36 111.564 13.444 111.48 13.444C111.42 13.444 111.336 13.408 111.204 13.324C110.94 13.156 110.676 12.976 110.436 12.784V13.432C110.436 13.564 110.424 13.576 110.292 13.576C110.22 13.576 109.932 13.552 109.02 13.552H108.792V14.68H109.992C111.108 14.68 111.504 14.656 111.576 14.656C111.696 14.656 111.708 14.668 111.708 14.788V15.616C111.708 15.736 111.696 15.748 111.576 15.748C111.504 15.748 111.108 15.724 109.992 15.724H108.792V16.888C108.792 17.632 108.828 18.172 108.828 18.652C108.828 19.156 108.72 19.468 108.468 19.66C108.24 19.816 107.904 19.876 107.076 19.9C106.692 19.912 106.68 19.912 106.596 19.528C106.524 19.192 106.404 18.952 106.272 18.736C106.632 18.772 106.908 18.784 107.208 18.784C107.532 18.784 107.628 18.7 107.628 18.412V15.724ZM107.496 12.52H109.02C109.596 12.52 109.908 12.52 110.088 12.508C109.356 11.896 108.744 11.224 108.288 10.552C107.808 11.272 107.196 11.932 106.524 12.508C106.716 12.52 107.016 12.52 107.496 12.52ZM102.552 9.316H104.076C104.196 9.316 104.268 9.304 104.316 9.28C104.364 9.256 104.4 9.244 104.472 9.244C104.556 9.244 104.652 9.292 104.928 9.592C105.18 9.88 105.216 10 105.216 10.072C105.216 10.144 105.18 10.216 105.108 10.288C105.024 10.372 104.976 10.492 104.892 10.756C104.616 11.596 104.364 12.196 103.992 13.012C104.844 14.104 105 14.824 105 15.688C105 16.636 104.532 17.272 103.428 17.38C103.056 17.404 103.056 17.404 103.02 17.02C102.984 16.72 102.912 16.48 102.768 16.3C103.524 16.336 103.848 16.084 103.848 15.46C103.848 14.872 103.692 14.176 102.816 13.096C103.284 12.076 103.548 11.428 103.812 10.42H102.648V17.212C102.648 18.856 102.672 19.72 102.672 19.792C102.672 19.9 102.66 19.912 102.54 19.912H101.592C101.472 19.912 101.46 19.9 101.46 19.792C101.46 19.72 101.484 18.892 101.484 17.224V12.028C101.484 10.336 101.46 9.508 101.46 9.424C101.46 9.304 101.472 9.292 101.592 9.292C101.676 9.292 101.964 9.316 102.552 9.316ZM104.136 18.628C104.796 18.04 105.168 17.56 105.516 16.996C105.66 16.732 105.768 16.492 105.828 16.24C106.176 16.336 106.464 16.468 106.74 16.6C106.86 16.66 106.956 16.732 106.956 16.804C106.956 16.864 106.896 16.936 106.836 16.984C106.752 17.056 106.692 17.2 106.596 17.368C106.248 17.968 105.912 18.496 105.36 19.06C105.216 19.204 105.144 19.276 105.072 19.276C105.012 19.276 104.94 19.216 104.808 19.084C104.604 18.892 104.364 18.724 104.136 18.628ZM109.56 16.576L110.22 16.276C110.352 16.228 110.352 16.228 110.424 16.336C110.868 17.116 111.408 17.824 112.032 18.436C111.804 18.58 111.54 18.76 111.36 18.964C111.228 19.108 111.168 19.18 111.108 19.18C111.048 19.18 110.988 19.108 110.88 18.964C110.304 18.292 109.872 17.632 109.44 16.804C109.38 16.684 109.404 16.648 109.56 16.576Z" fill="#F23030"/>
<rect x="6" y="2" width="17" height="25" fill="#F23030"/>
<path d="M13.2563 10.3135L21.8155 18.9416" stroke="white" stroke-width="2" stroke-linecap="round"/>
<path d="M13.2563 18.9424L21.8155 10.3143" stroke="white" stroke-width="2" stroke-linecap="round"/>
<defs>
<filter id="filter0_d_2045_5453" x="0" y="0" width="127" height="37" filterUnits="userSpaceOnUse" color-interpolation-filters="sRGB">
<feFlood flood-opacity="0" result="BackgroundImageFix"/>
<feColorMatrix in="SourceAlpha" type="matrix" values="0 0 0 0 0 0 0 0 0 0 0 0 0 0 0 0 0 0 127 0" result="hardAlpha"/>
<feOffset dy="4"/>
<feGaussianBlur stdDeviation="2"/>
<feComposite in2="hardAlpha" operator="out"/>
<feColorMatrix type="matrix" values="0 0 0 0 0 0 0 0 0 0 0 0 0 0 0 0 0 0 0.25 0"/>
<feBlend mode="normal" in2="BackgroundImageFix" result="effect1_dropShadow_2045_5453"/>
<feBlend mode="normal" in="SourceGraphic" in2="effect1_dropShadow_2045_5453" result="shape"/>
</filter>
</defs>
</svg>
