<svg width="20" height="17" viewBox="0 0 20 17" fill="none" xmlns="http://www.w3.org/2000/svg">
<path id="Union" fill-rule="evenodd" clip-rule="evenodd" d="M4.96081 0C3.75355 0 2.68746 0.787387 2.33242 1.94126L0.121608 9.1264C0.0409891 9.38841 0 9.661 0 9.93513V13.75C0 15.2688 1.23122 16.5 2.75 16.5H16.5C18.0188 16.5 19.25 15.2688 19.25 13.75V9.93513C19.25 9.661 19.209 9.38841 19.1284 9.1264L16.9176 1.94126C16.5625 0.787387 15.4965 0 14.2892 0H4.96081ZM17.6317 8.9375L15.6034 2.34563C15.4259 1.76869 14.8928 1.375 14.2892 1.375H4.96081C4.35718 1.375 3.82413 1.76869 3.64661 2.34563L1.61835 8.9375H4.2253C5.26693 8.9375 6.21915 9.52601 6.68498 10.4577L6.91986 10.9274C7.15277 11.3932 7.62888 11.6875 8.1497 11.6875H11.1003C11.6211 11.6875 12.0972 11.3932 12.3301 10.9274L12.565 10.4577C13.0308 9.52601 13.9831 8.9375 15.0247 8.9375H17.6317Z" fill="white"/>
</svg>
