<svg width="20" height="15" viewBox="0 0 20 15" fill="none" xmlns="http://www.w3.org/2000/svg">
<path d="M14.725 8.6409C13.919 8.6409 13.206 8.32765 12.679 7.79512L8.463 11.1156C8.401 11.1783 8.277 11.1783 8.215 11.1783C8.122 11.2096 8.029 11.1783 7.967 11.1156L0.62 5.38305C0.465 5.25775 0.465 5.0698 0.558 4.91317L0.589 4.88185C0.713 4.72522 0.899 4.72522 1.054 4.81919L8.215 10.4265L12.245 7.26258C11.935 6.7927 11.78 6.22884 11.78 5.63366C11.78 5.0698 11.935 4.53727 12.214 4.06738H0.775C0.341 4.06738 0 4.41196 0 4.85052V14.0915C0 14.5301 0.341 14.8747 0.775 14.8747H15.655C16.089 14.8747 16.43 14.5301 16.43 14.0915V8.07705C15.934 8.42163 15.376 8.6409 14.725 8.6409Z" fill="#6600CC"/>
<path d="M13.33 8.79793C12.834 8.54733 12.431 8.17142 12.121 7.70154C11.811 7.20033 11.656 6.60515 11.656 5.88466C11.656 5.10153 11.842 4.41236 12.183 3.78585C12.524 3.15935 13.02 2.68946 13.609 2.37621C14.198 2.06295 14.849 1.875 15.562 1.875C16.182 1.875 16.709 2.0003 17.174 2.28223C17.639 2.56416 17.98 2.90874 18.228 3.37862C18.476 3.84851 18.6 4.38104 18.6 5.00755C18.6 5.50876 18.507 5.94731 18.321 6.29189C18.135 6.63647 17.887 6.9184 17.577 7.10636C17.267 7.29431 16.957 7.38829 16.647 7.38829C16.399 7.38829 16.182 7.32564 15.996 7.20033C15.81 7.07503 15.686 6.9184 15.655 6.73045C15.531 6.88708 15.376 7.04371 15.19 7.13768C15.004 7.23166 14.818 7.29431 14.632 7.29431C14.291 7.29431 14.012 7.16901 13.795 6.9184C13.578 6.6678 13.485 6.35454 13.485 5.97864C13.485 5.63406 13.547 5.28948 13.702 4.9449C13.857 4.63164 14.074 4.34971 14.322 4.13043C14.601 3.91116 14.88 3.81718 15.19 3.81718C15.5 3.81718 15.717 3.97381 15.841 4.25574H15.872L15.996 3.87983H16.802L16.43 5.82201C16.399 5.94731 16.399 6.04129 16.399 6.13527C16.399 6.38587 16.554 6.5425 16.833 6.5425C17.019 6.5425 17.174 6.47985 17.329 6.35455C17.484 6.22924 17.608 6.04129 17.701 5.82201C17.794 5.60273 17.856 5.3208 17.856 5.03887C17.856 4.60032 17.763 4.22441 17.608 3.87983C17.453 3.53525 17.205 3.25332 16.833 3.03404C16.492 2.81476 16.027 2.72079 15.5 2.72079C15.004 2.72079 14.539 2.84609 14.105 3.12802C13.671 3.40995 13.299 3.78585 13.02 4.25574C12.741 4.72562 12.617 5.28948 12.617 5.91599C12.617 6.44852 12.741 6.9184 12.958 7.29431C13.175 7.67022 13.485 7.95215 13.857 8.1401C14.229 8.32805 14.663 8.42203 15.097 8.42203C15.314 8.42203 15.531 8.3907 15.748 8.32805C15.996 8.2654 16.182 8.17142 16.368 8.07745L16.647 8.79793C16.151 9.07986 15.593 9.20516 14.973 9.20516C14.353 9.17384 13.826 9.04854 13.33 8.79793ZM15.159 6.32322C15.252 6.26057 15.345 6.16659 15.438 6.04129L15.624 4.91357C15.531 4.75694 15.407 4.69429 15.252 4.69429C15.097 4.69429 14.973 4.75694 14.849 4.88225C14.725 5.00755 14.632 5.16418 14.57 5.35213C14.508 5.54008 14.477 5.72804 14.477 5.88466C14.477 6.07262 14.508 6.19792 14.601 6.29189C14.663 6.38587 14.787 6.4172 14.911 6.4172C15.004 6.4172 15.097 6.38587 15.159 6.32322Z" fill="#6600CC"/>
<path d="M13.33 8.79793C12.834 8.54733 12.431 8.17142 12.121 7.70154C11.811 7.20033 11.656 6.60515 11.656 5.88466C11.656 5.10153 11.842 4.41236 12.183 3.78585C12.524 3.15935 13.02 2.68946 13.609 2.37621C14.198 2.06295 14.849 1.875 15.562 1.875C16.182 1.875 16.709 2.0003 17.174 2.28223C17.639 2.56416 17.98 2.90874 18.228 3.37862C18.476 3.84851 18.6 4.38104 18.6 5.00755C18.6 5.50876 18.507 5.94731 18.321 6.29189C18.135 6.63647 17.887 6.9184 17.577 7.10636C17.267 7.29431 16.957 7.38829 16.647 7.38829C16.399 7.38829 16.182 7.32564 15.996 7.20033C15.81 7.07503 15.686 6.9184 15.655 6.73045C15.531 6.88708 15.376 7.04371 15.19 7.13768C15.004 7.23166 14.818 7.29431 14.632 7.29431C14.291 7.29431 14.012 7.16901 13.795 6.9184C13.578 6.6678 13.485 6.35454 13.485 5.97864C13.485 5.63406 13.547 5.28948 13.702 4.9449C13.857 4.63164 14.074 4.34971 14.322 4.13043C14.601 3.91116 14.88 3.81718 15.19 3.81718C15.5 3.81718 15.717 3.97381 15.841 4.25574H15.872L15.996 3.87983H16.802L16.43 5.82201C16.399 5.94731 16.399 6.04129 16.399 6.13527C16.399 6.38587 16.554 6.5425 16.833 6.5425C17.019 6.5425 17.174 6.47985 17.329 6.35454C17.484 6.22924 17.608 6.04129 17.701 5.82201C17.794 5.60273 17.856 5.3208 17.856 5.03887C17.856 4.60032 17.763 4.22441 17.608 3.87983C17.453 3.53525 17.205 3.25332 16.833 3.03404C16.492 2.81476 16.027 2.72079 15.5 2.72079C15.004 2.72079 14.539 2.84609 14.105 3.12802C13.671 3.40995 13.299 3.78585 13.02 4.25574C12.741 4.72562 12.617 5.28948 12.617 5.91599C12.617 6.44852 12.741 6.9184 12.958 7.29431C13.175 7.67022 13.485 7.95214 13.857 8.1401C14.229 8.32805 14.663 8.42203 15.097 8.42203C15.314 8.42203 15.531 8.3907 15.748 8.32805C15.996 8.2654 16.182 8.17142 16.368 8.07745L16.647 8.79793C16.151 9.07986 15.593 9.20516 14.973 9.20516C14.353 9.17384 13.826 9.04854 13.33 8.79793ZM15.159 6.32322C15.252 6.26057 15.345 6.16659 15.438 6.04129L15.624 4.91357C15.531 4.75694 15.407 4.69429 15.252 4.69429C15.097 4.69429 14.973 4.75694 14.849 4.88225C14.725 5.00755 14.632 5.16418 14.57 5.35213C14.508 5.54008 14.477 5.72804 14.477 5.88466C14.477 6.07262 14.508 6.19792 14.601 6.29189C14.663 6.38587 14.787 6.4172 14.911 6.4172C15.004 6.4172 15.097 6.38587 15.159 6.32322Z" stroke="white" stroke-width="2"/>
<path d="M13.33 8.79793C12.834 8.54733 12.431 8.17142 12.121 7.70154C11.811 7.20033 11.656 6.60515 11.656 5.88466C11.656 5.10153 11.842 4.41236 12.183 3.78585C12.524 3.15935 13.02 2.68946 13.609 2.37621C14.198 2.06295 14.849 1.875 15.562 1.875C16.182 1.875 16.709 2.0003 17.174 2.28223C17.639 2.56416 17.98 2.90874 18.228 3.37862C18.476 3.84851 18.6 4.38104 18.6 5.00755C18.6 5.50876 18.507 5.94731 18.321 6.29189C18.135 6.63647 17.887 6.9184 17.577 7.10636C17.267 7.29431 16.957 7.38829 16.647 7.38829C16.399 7.38829 16.182 7.32564 15.996 7.20033C15.81 7.07503 15.686 6.9184 15.655 6.73045C15.531 6.88708 15.376 7.04371 15.19 7.13768C15.004 7.23166 14.818 7.29431 14.632 7.29431C14.291 7.29431 14.012 7.16901 13.795 6.9184C13.578 6.6678 13.485 6.35454 13.485 5.97864C13.485 5.63406 13.547 5.28948 13.702 4.9449C13.857 4.63164 14.074 4.34971 14.322 4.13043C14.601 3.91116 14.88 3.81718 15.19 3.81718C15.5 3.81718 15.717 3.97381 15.841 4.25574H15.872L15.996 3.87983H16.802L16.43 5.82201C16.399 5.94731 16.399 6.04129 16.399 6.13527C16.399 6.38587 16.554 6.5425 16.833 6.5425C17.019 6.5425 17.174 6.47985 17.329 6.35455C17.484 6.22924 17.608 6.04129 17.701 5.82201C17.794 5.60273 17.856 5.3208 17.856 5.03887C17.856 4.60032 17.763 4.22441 17.608 3.87983C17.453 3.53525 17.205 3.25332 16.833 3.03404C16.492 2.81476 16.027 2.72079 15.5 2.72079C15.004 2.72079 14.539 2.84609 14.105 3.12802C13.671 3.40995 13.299 3.78585 13.02 4.25574C12.741 4.72562 12.617 5.28948 12.617 5.91599C12.617 6.44852 12.741 6.9184 12.958 7.29431C13.175 7.67022 13.485 7.95215 13.857 8.1401C14.229 8.32805 14.663 8.42203 15.097 8.42203C15.314 8.42203 15.531 8.3907 15.748 8.32805C15.996 8.2654 16.182 8.17142 16.368 8.07745L16.647 8.79793C16.151 9.07986 15.593 9.20516 14.973 9.20516C14.353 9.17384 13.826 9.04854 13.33 8.79793ZM15.159 6.32322C15.252 6.26057 15.345 6.16659 15.438 6.04129L15.624 4.91357C15.531 4.75694 15.407 4.69429 15.252 4.69429C15.097 4.69429 14.973 4.75694 14.849 4.88225C14.725 5.00755 14.632 5.16418 14.57 5.35213C14.508 5.54008 14.477 5.72804 14.477 5.88466C14.477 6.07262 14.508 6.19792 14.601 6.29189C14.663 6.38587 14.787 6.4172 14.911 6.4172C15.004 6.4172 15.097 6.38587 15.159 6.32322Z" fill="#6600CC"/>
</svg>
