<svg width="10" height="6" viewBox="0 0 10 6" fill="none" xmlns="http://www.w3.org/2000/svg">
    <path d="M0.443963 0.534477C0.443963 0.432674 0.546352 0.330872 0.717 0.330872L9.24942 0.330872C9.42007 0.330872 9.52246 0.432674 9.52246 0.534477C9.52246 0.559928 9.52246 0.610829 9.48833 0.63628L5.22212 5.57371C5.15386 5.65006 5.05147 5.67552 4.98321 5.67552C4.94908 5.67552 4.81256 5.67552 4.7443 5.57371L0.478092 0.63628C0.443962 0.610829 0.443963 0.559928 0.443963 0.534477Z" fill="white"/>
    <path d="M8.94198 0.661718L4.98294 5.24284L1.02389 0.661718L8.94198 0.661718ZM10 0.534464C10 0.254507 9.69283 0 9.28328 0L0.716723 0C0.307167 0 -1.1214e-07 0.254507 -1.1214e-07 0.534464C-1.1214e-07 0.636267 0.0341293 0.73807 0.102389 0.814422L4.3686 5.75186C4.64164 6.08271 5.2901 6.08271 5.56314 5.75186L9.86348 0.814422C9.96587 0.73807 10 0.636267 10 0.534464Z" fill="white"/>
</svg>
