<svg width="56" height="57" viewBox="0 0 56 57" fill="none" xmlns="http://www.w3.org/2000/svg">
    <ellipse cx="28" cy="28.6646" rx="28" ry="28.2759" fill="#6600CC"/>
    <path d="M20.8311 42.1879H35.7103C36.4995 42.1879 37.2565 41.8712 37.8145 41.3077C38.3726 40.7441 38.6861 39.9797 38.6861 39.1827V24.7789C38.6861 24.3804 38.5292 23.9983 38.2502 23.7166L30.1946 15.5816C29.9156 15.2998 29.5372 15.1414 29.1426 15.1414H20.8311C20.0418 15.1414 19.2849 15.458 18.7268 16.0216C18.1688 16.5851 17.8552 17.3495 17.8552 18.1465V39.1827C17.8552 39.9797 18.1688 40.7441 18.7268 41.3077C19.2849 41.8712 20.0418 42.1879 20.8311 42.1879Z"
          fill="#6600CC" stroke="white" stroke-width="2" stroke-linecap="round" stroke-linejoin="round"/>
</svg>
