<svg width="127" height="37" viewBox="0 0 127 37" fill="none" xmlns="http://www.w3.org/2000/svg">
<g filter="url(#filter0_d_2035_5427)">
<path d="M118.344 1H8.65625C6.63696 1 5 2.29518 5 3.89286V25.1071C5 26.7048 6.63696 28 8.65625 28H118.344C120.363 28 122 26.7048 122 25.1071V3.89286C122 2.29518 120.363 1 118.344 1Z" fill="white"/>
<path d="M118.344 1H8.65625C6.63696 1 5 2.29518 5 3.89286V25.1071C5 26.7048 6.63696 28 8.65625 28H118.344C120.363 28 122 26.7048 122 25.1071V3.89286C122 2.29518 120.363 1 118.344 1Z" stroke="#F23030" stroke-width="2" stroke-miterlimit="10"/>
</g>
<path d="M36.5676 13.5385L23.1141 2.28907C22.2492 1.61602 21 2.19292 21 3.25056V25.7494C21 26.8071 22.2492 27.384 23.1141 26.7109L36.5676 15.4615C37.1441 14.9807 37.1441 14.0193 36.5676 13.4424V13.5385Z" fill="#F23030"/>
<path d="M45.9047 13.5357C45.9047 13.5357 45.9047 13.5357 45.9047 13.4393C45.9047 13.4393 45.9047 13.4393 45.9047 13.3429C45.9047 13.3429 45.9047 13.3429 45.9047 13.2464C45.9047 13.2464 45.9047 13.2464 45.9047 13.15C45.9047 13.15 45.9047 13.15 45.9047 13.0536C45.9047 13.0536 45.9047 13.0536 45.9047 12.9571L32.2832 1H28.9493C28.9493 1.48214 28.9493 1.96428 29.4256 2.35L42.7613 14.0179L28.473 26.4571C27.9967 26.8429 27.9015 27.5179 28.092 28H31.1402L46 15.0786C46 15.0786 46 15.0786 46 14.9821C46 14.9821 46 14.9821 46 14.8857C46 14.8857 46 14.8857 46 14.7893C46 14.7893 46 14.7893 46 14.6929C46 14.6929 46 14.6929 46 14.5964C46 14.5964 46 14.5964 46 14.5C46 14.5 46 14.5 46 14.4036C46 14.4036 46 14.4036 46 14.3071L45.9047 13.5357Z" fill="#F23030"/>
<path d="M62.244 19.504H54.804C53.736 19.504 53.376 19.528 53.292 19.528C53.184 19.528 53.172 19.516 53.172 19.408V18.448C53.172 18.328 53.184 18.316 53.292 18.316C53.376 18.316 53.736 18.34 54.804 18.34H55.128V15.712C55.128 15.136 55.116 14.74 55.032 14.404C55.488 14.416 55.956 14.44 56.388 14.488C56.508 14.5 56.58 14.56 56.58 14.62C56.58 14.728 56.532 14.788 56.496 14.872C56.436 15.016 56.424 15.256 56.424 15.748V18.34H58.08V13.768C58.08 13.204 58.068 12.796 57.996 12.46C58.44 12.472 58.932 12.496 59.34 12.544C59.46 12.556 59.532 12.616 59.532 12.676C59.532 12.784 59.496 12.856 59.46 12.94C59.388 13.084 59.388 13.324 59.388 13.804V14.92H60.6C61.692 14.92 62.076 14.896 62.148 14.896C62.268 14.896 62.28 14.908 62.28 15.028V15.964C62.28 16.084 62.268 16.096 62.148 16.096C62.076 16.096 61.692 16.072 60.6 16.072H59.388V18.34H62.244C63.3 18.34 63.672 18.316 63.744 18.316C63.864 18.316 63.876 18.328 63.876 18.448V19.408C63.876 19.516 63.864 19.528 63.744 19.528C63.672 19.528 63.3 19.504 62.244 19.504ZM59.256 9.424L59.16 9.508C60.504 11.248 62.232 12.388 64.296 13.144C64.08 13.42 63.9 13.696 63.756 14.068C63.672 14.284 63.636 14.368 63.552 14.368C63.492 14.368 63.408 14.332 63.276 14.272C61.236 13.336 59.652 12.124 58.476 10.48C57.192 12.208 55.632 13.408 53.868 14.32C53.724 14.392 53.64 14.44 53.58 14.44C53.496 14.44 53.46 14.356 53.364 14.152C53.22 13.84 53.016 13.552 52.8 13.324C55.044 12.328 56.472 11.068 57.432 9.676C57.648 9.364 57.768 9.112 57.876 8.788C58.344 8.848 58.824 8.968 59.172 9.052C59.304 9.088 59.388 9.148 59.388 9.244C59.388 9.316 59.34 9.376 59.256 9.424ZM69.912 10.564H66.9C65.82 10.564 65.448 10.588 65.376 10.588C65.256 10.588 65.244 10.576 65.244 10.468V9.544C65.244 9.412 65.256 9.4 65.376 9.4C65.448 9.4 65.82 9.424 66.9 9.424H74.1C75.192 9.424 75.552 9.4 75.624 9.4C75.744 9.4 75.756 9.412 75.756 9.544V10.468C75.756 10.576 75.744 10.588 75.624 10.588C75.552 10.588 75.192 10.564 74.1 10.564H71.028V11.74H71.76C72.84 11.74 73.2 11.716 73.272 11.716C73.404 11.716 73.416 11.728 73.416 11.86C73.416 11.932 73.392 12.304 73.392 13.156V15.88C73.392 16.72 73.416 17.104 73.416 17.176C73.416 17.296 73.404 17.308 73.272 17.308C73.2 17.308 72.84 17.284 71.76 17.284H69.24C68.172 17.284 67.812 17.308 67.728 17.308C67.608 17.308 67.596 17.296 67.596 17.176C67.596 17.104 67.62 16.72 67.62 15.88V13.156C67.62 12.304 67.596 11.932 67.596 11.86C67.596 11.728 67.608 11.716 67.728 11.716C67.812 11.716 68.172 11.74 69.24 11.74H69.912V10.564ZM72.3 16.3V14.92H71.016V16.3H72.3ZM68.7 16.3H69.924V14.92H68.7V16.3ZM72.3 12.724H71.016V13.996H72.3V12.724ZM68.7 13.996H69.924V12.724H68.7V13.996ZM74.34 18.172V13.552C74.34 12.976 74.328 12.268 74.268 11.8C74.724 11.824 75.096 11.848 75.48 11.896C75.624 11.92 75.708 11.968 75.708 12.076C75.708 12.16 75.684 12.232 75.636 12.304C75.564 12.412 75.54 12.772 75.54 13.564V17.392C75.54 18.916 75.564 19.708 75.564 19.78C75.564 19.9 75.552 19.912 75.432 19.912H74.472C74.352 19.912 74.34 19.9 74.34 19.78V19.3H66.684V19.78C66.684 19.9 66.672 19.912 66.552 19.912H65.604C65.484 19.912 65.472 19.9 65.472 19.78C65.472 19.696 65.496 18.928 65.496 17.416V13.492C65.496 12.88 65.484 12.208 65.424 11.8C65.892 11.824 66.24 11.848 66.624 11.896C66.768 11.92 66.852 11.98 66.852 12.076C66.852 12.184 66.804 12.256 66.768 12.328C66.696 12.448 66.684 12.844 66.684 13.576V18.172H74.34ZM83.796 15.34V17.272C83.796 17.404 83.724 17.464 83.568 17.488C83.412 17.512 83.052 17.548 82.716 17.548C82.608 17.548 82.56 17.476 82.56 17.356C82.56 16.924 82.56 16.324 82.572 15.892C81.504 16.444 81.12 16.912 81.12 17.488C81.12 17.992 81.528 18.316 82.788 18.316C83.892 18.316 84.852 18.208 85.776 18.076C85.884 18.064 85.932 18.1 85.944 18.208C86.004 18.484 86.052 18.904 86.052 19.192C86.064 19.336 86.016 19.42 85.92 19.42C84.888 19.552 84.108 19.576 82.944 19.576C80.976 19.576 79.932 18.988 79.932 17.596C79.932 16.444 80.652 15.604 82.464 14.668C82.428 14.056 82.284 13.816 81.744 13.84C81.18 13.864 80.64 14.224 80.088 14.704C79.572 15.208 79.272 15.556 78.888 16.012C78.828 16.084 78.792 16.12 78.744 16.12C78.708 16.12 78.66 16.084 78.612 16.036C78.444 15.868 78.084 15.496 77.928 15.244C77.892 15.196 77.88 15.16 77.88 15.136C77.88 15.088 77.904 15.052 77.964 15.004C78.888 14.176 79.776 13.228 80.472 12.028C79.908 12.052 79.26 12.064 78.552 12.064C78.444 12.064 78.408 12.004 78.384 11.872C78.348 11.68 78.3 11.236 78.264 10.876C79.176 10.924 80.112 10.912 81.024 10.864C81.156 10.54 81.264 10.252 81.384 9.832C81.432 9.628 81.468 9.424 81.468 9.1C81.996 9.184 82.524 9.316 82.836 9.436C82.932 9.472 82.98 9.556 82.98 9.64C82.98 9.7 82.956 9.772 82.896 9.82C82.824 9.88 82.752 9.988 82.692 10.108C82.62 10.276 82.56 10.432 82.416 10.756C83.148 10.672 83.88 10.552 84.6 10.384C84.732 10.36 84.768 10.396 84.792 10.504C84.852 10.744 84.9 11.02 84.912 11.368C84.924 11.488 84.876 11.536 84.708 11.56C83.808 11.692 82.776 11.824 81.9 11.92C81.624 12.364 81.36 12.808 81 13.252L81.012 13.276C81.396 13.024 81.888 12.904 82.212 12.904C83.004 12.904 83.556 13.264 83.676 14.2C84.144 13.984 84.828 13.672 85.44 13.36C85.668 13.24 86.052 13.024 86.352 12.712C86.748 13.132 87.06 13.552 87.192 13.768C87.264 13.876 87.288 13.96 87.288 14.032C87.288 14.128 87.228 14.176 87.108 14.2C86.856 14.236 86.616 14.296 86.376 14.38C85.596 14.656 84.816 14.92 83.796 15.34ZM94.98 14.272V16.924C94.98 17.524 95.004 18.196 95.004 18.568C95.004 19.012 94.968 19.336 94.704 19.552C94.476 19.732 94.14 19.816 93.216 19.816C92.856 19.816 92.82 19.816 92.748 19.444C92.688 19.12 92.568 18.856 92.448 18.652C92.808 18.688 93.108 18.7 93.432 18.7C93.744 18.7 93.816 18.628 93.816 18.388V17.272H90.84V18.232C90.84 19.216 90.864 19.708 90.864 19.78C90.864 19.888 90.852 19.9 90.732 19.9H89.784C89.652 19.9 89.64 19.888 89.64 19.78C89.64 19.696 89.664 19.24 89.664 18.196V14.176C89.664 13.132 89.64 12.652 89.64 12.58C89.64 12.448 89.652 12.436 89.784 12.436C89.856 12.436 90.216 12.46 91.236 12.46H91.704V10.744C91.704 10.048 91.692 9.58 91.62 9.04C92.076 9.052 92.46 9.076 92.856 9.124C92.976 9.136 93.036 9.184 93.036 9.244C93.036 9.364 92.988 9.448 92.952 9.556C92.916 9.676 92.904 10 92.904 10.744V12.46H93.42C94.44 12.46 94.788 12.436 94.872 12.436C94.992 12.436 95.004 12.448 95.004 12.58C95.004 12.652 94.98 13.204 94.98 14.272ZM90.84 16.288H93.816V15.352H90.84V16.288ZM93.816 13.48H90.84V14.38H93.816V13.48ZM99.576 10.792V15.868C99.576 16.708 99.6 17.656 99.6 18.256C99.6 18.844 99.516 19.192 99.168 19.432C98.832 19.648 98.472 19.732 97.344 19.732C96.972 19.732 96.972 19.72 96.888 19.348C96.804 19 96.672 18.664 96.504 18.436C96.984 18.484 97.332 18.496 97.824 18.496C98.208 18.496 98.352 18.4 98.352 18.016V10.816C98.352 10.036 98.34 9.664 98.256 9.112C98.7 9.124 99.108 9.136 99.528 9.184C99.648 9.196 99.72 9.256 99.72 9.316C99.72 9.424 99.684 9.496 99.648 9.58C99.576 9.724 99.576 9.976 99.576 10.792ZM95.988 15.064V11.728C95.988 10.936 95.988 10.516 95.904 9.952C96.336 9.964 96.708 9.988 97.128 10.036C97.248 10.048 97.296 10.096 97.296 10.168C97.296 10.264 97.248 10.348 97.224 10.432C97.176 10.6 97.176 10.84 97.176 11.716V15.064C97.176 16.084 97.2 16.576 97.2 16.648C97.2 16.78 97.188 16.792 97.068 16.792H96.096C95.976 16.792 95.964 16.78 95.964 16.648C95.964 16.576 95.988 16.084 95.988 15.064ZM93.288 11.752C93.636 11.164 93.864 10.588 94.032 10.048C94.08 9.892 94.116 9.724 94.128 9.508C94.488 9.616 94.896 9.76 95.208 9.904C95.292 9.94 95.328 9.988 95.328 10.048C95.328 10.096 95.304 10.144 95.256 10.192C95.196 10.252 95.16 10.3 95.112 10.408C94.932 10.936 94.728 11.404 94.44 11.92C94.356 12.1 94.308 12.184 94.224 12.184C94.164 12.184 94.08 12.136 93.936 12.052C93.744 11.932 93.492 11.824 93.288 11.752ZM89.352 9.928L90.072 9.628C90.204 9.568 90.228 9.58 90.3 9.688C90.624 10.252 90.948 10.9 91.188 11.584C91.224 11.692 91.2 11.716 91.056 11.776L90.324 12.088C90.168 12.16 90.156 12.148 90.108 12.004C89.88 11.332 89.592 10.684 89.256 10.132C89.184 10.012 89.196 10 89.352 9.928ZM107.628 15.724H106.968C105.852 15.724 105.468 15.748 105.396 15.748C105.264 15.748 105.252 15.736 105.252 15.616V14.788C105.252 14.668 105.264 14.656 105.396 14.656C105.468 14.656 105.852 14.68 106.968 14.68H107.628V13.552H107.496C106.584 13.552 106.296 13.576 106.224 13.576C106.104 13.576 106.092 13.564 106.092 13.432V12.868C105.84 13.06 105.588 13.228 105.324 13.396C105.192 13.48 105.108 13.528 105.048 13.528C104.976 13.528 104.928 13.444 104.82 13.24C104.676 12.964 104.496 12.724 104.304 12.568C105.732 11.788 106.812 10.732 107.448 9.7C107.592 9.472 107.652 9.28 107.736 9.028C108.168 9.076 108.552 9.124 108.876 9.196C109.008 9.232 109.068 9.28 109.068 9.352C109.068 9.436 109.02 9.484 108.948 9.532C108.912 9.556 108.876 9.58 108.852 9.616C109.608 10.744 110.808 11.716 112.14 12.34C111.972 12.532 111.816 12.808 111.684 13.156C111.6 13.36 111.564 13.444 111.48 13.444C111.42 13.444 111.336 13.408 111.204 13.324C110.94 13.156 110.676 12.976 110.436 12.784V13.432C110.436 13.564 110.424 13.576 110.292 13.576C110.22 13.576 109.932 13.552 109.02 13.552H108.792V14.68H109.992C111.108 14.68 111.504 14.656 111.576 14.656C111.696 14.656 111.708 14.668 111.708 14.788V15.616C111.708 15.736 111.696 15.748 111.576 15.748C111.504 15.748 111.108 15.724 109.992 15.724H108.792V16.888C108.792 17.632 108.828 18.172 108.828 18.652C108.828 19.156 108.72 19.468 108.468 19.66C108.24 19.816 107.904 19.876 107.076 19.9C106.692 19.912 106.68 19.912 106.596 19.528C106.524 19.192 106.404 18.952 106.272 18.736C106.632 18.772 106.908 18.784 107.208 18.784C107.532 18.784 107.628 18.7 107.628 18.412V15.724ZM107.496 12.52H109.02C109.596 12.52 109.908 12.52 110.088 12.508C109.356 11.896 108.744 11.224 108.288 10.552C107.808 11.272 107.196 11.932 106.524 12.508C106.716 12.52 107.016 12.52 107.496 12.52ZM102.552 9.316H104.076C104.196 9.316 104.268 9.304 104.316 9.28C104.364 9.256 104.4 9.244 104.472 9.244C104.556 9.244 104.652 9.292 104.928 9.592C105.18 9.88 105.216 10 105.216 10.072C105.216 10.144 105.18 10.216 105.108 10.288C105.024 10.372 104.976 10.492 104.892 10.756C104.616 11.596 104.364 12.196 103.992 13.012C104.844 14.104 105 14.824 105 15.688C105 16.636 104.532 17.272 103.428 17.38C103.056 17.404 103.056 17.404 103.02 17.02C102.984 16.72 102.912 16.48 102.768 16.3C103.524 16.336 103.848 16.084 103.848 15.46C103.848 14.872 103.692 14.176 102.816 13.096C103.284 12.076 103.548 11.428 103.812 10.42H102.648V17.212C102.648 18.856 102.672 19.72 102.672 19.792C102.672 19.9 102.66 19.912 102.54 19.912H101.592C101.472 19.912 101.46 19.9 101.46 19.792C101.46 19.72 101.484 18.892 101.484 17.224V12.028C101.484 10.336 101.46 9.508 101.46 9.424C101.46 9.304 101.472 9.292 101.592 9.292C101.676 9.292 101.964 9.316 102.552 9.316ZM104.136 18.628C104.796 18.04 105.168 17.56 105.516 16.996C105.66 16.732 105.768 16.492 105.828 16.24C106.176 16.336 106.464 16.468 106.74 16.6C106.86 16.66 106.956 16.732 106.956 16.804C106.956 16.864 106.896 16.936 106.836 16.984C106.752 17.056 106.692 17.2 106.596 17.368C106.248 17.968 105.912 18.496 105.36 19.06C105.216 19.204 105.144 19.276 105.072 19.276C105.012 19.276 104.94 19.216 104.808 19.084C104.604 18.892 104.364 18.724 104.136 18.628ZM109.56 16.576L110.22 16.276C110.352 16.228 110.352 16.228 110.424 16.336C110.868 17.116 111.408 17.824 112.032 18.436C111.804 18.58 111.54 18.76 111.36 18.964C111.228 19.108 111.168 19.18 111.108 19.18C111.048 19.18 110.988 19.108 110.88 18.964C110.304 18.292 109.872 17.632 109.44 16.804C109.38 16.684 109.404 16.648 109.56 16.576Z" fill="#F23030"/>
<rect x="6" y="2" width="17" height="25" fill="#F23030"/>
<path d="M13.2566 10.3135L21.8157 18.9416" stroke="white" stroke-width="2" stroke-linecap="round"/>
<path d="M13.2566 18.9424L21.8157 10.3143" stroke="white" stroke-width="2" stroke-linecap="round"/>
<defs>
<filter id="filter0_d_2035_5427" x="0" y="0" width="127" height="37" filterUnits="userSpaceOnUse" color-interpolation-filters="sRGB">
<feFlood flood-opacity="0" result="BackgroundImageFix"/>
<feColorMatrix in="SourceAlpha" type="matrix" values="0 0 0 0 0 0 0 0 0 0 0 0 0 0 0 0 0 0 127 0" result="hardAlpha"/>
<feOffset dy="4"/>
<feGaussianBlur stdDeviation="2"/>
<feComposite in2="hardAlpha" operator="out"/>
<feColorMatrix type="matrix" values="0 0 0 0 0 0 0 0 0 0 0 0 0 0 0 0 0 0 0.25 0"/>
<feBlend mode="normal" in2="BackgroundImageFix" result="effect1_dropShadow_2035_5427"/>
<feBlend mode="normal" in="SourceGraphic" in2="effect1_dropShadow_2035_5427" result="shape"/>
</filter>
</defs>
</svg>
