<svg width="15" height="16" viewBox="0 0 15 16" fill="none" xmlns="http://www.w3.org/2000/svg">
<g id="Download" clip-path="url(#clip0_828_2237)">
<path id="Vector" fill-rule="evenodd" clip-rule="evenodd" d="M0.399902 15C0.399902 14.7348 0.505259 14.4804 0.692796 14.2929C0.880332 14.1054 1.13469 14 1.3999 14H13.3999C13.6651 14 13.9195 14.1054 14.107 14.2929C14.2945 14.4804 14.3999 14.7348 14.3999 15C14.3999 15.2652 14.2945 15.5196 14.107 15.7071C13.9195 15.8946 13.6651 16 13.3999 16H1.3999C1.13469 16 0.880332 15.8946 0.692796 15.7071C0.505259 15.5196 0.399902 15.2652 0.399902 15ZM3.6929 7.293C3.88043 7.10553 4.13474 7.00021 4.3999 7.00021C4.66507 7.00021 4.91937 7.10553 5.1069 7.293L6.3999 8.586V1C6.3999 0.734784 6.50526 0.48043 6.6928 0.292893C6.88033 0.105357 7.13469 0 7.3999 0C7.66512 0 7.91947 0.105357 8.10701 0.292893C8.29455 0.48043 8.3999 0.734784 8.3999 1V8.586L9.6929 7.293C9.78515 7.19749 9.89549 7.12131 10.0175 7.0689C10.1395 7.01649 10.2707 6.9889 10.4035 6.98775C10.5363 6.9866 10.668 7.0119 10.7909 7.06218C10.9138 7.11246 11.0254 7.18671 11.1193 7.28061C11.2132 7.3745 11.2874 7.48615 11.3377 7.60905C11.388 7.73194 11.4133 7.86362 11.4122 7.9964C11.411 8.12918 11.3834 8.2604 11.331 8.3824C11.2786 8.50441 11.2024 8.61475 11.1069 8.707L8.1069 11.707C7.91937 11.8945 7.66507 11.9998 7.3999 11.9998C7.13474 11.9998 6.88043 11.8945 6.6929 11.707L3.6929 8.707C3.50543 8.51947 3.40012 8.26516 3.40012 8C3.40012 7.73484 3.50543 7.48053 3.6929 7.293Z" fill="#6600CC"/>
</g>
<defs>
<clipPath id="clip0_828_2237">
<rect width="14" height="16" fill="white" transform="translate(0.399902)"/>
</clipPath>
</defs>
</svg>
