<svg viewBox="0 0 100 100" fill="none" xmlns="http://www.w3.org/2000/svg">
<path d="M44 74.4L62.8 78.3C69.6 79.7 76.3 74 77 66.2L78.3 51.7C78.6 48 82.1 45.4 85.8 46.2L92.7 47.6C93.9 47.8 94.6 48.9 94.5 50.1L93.5 57C93.3 58.3 92.1 59.2 90.8 58.9L87.3 58.2C86.2 58 85.4 56.9 85.5 55.8L86.5 46.3" stroke="white" stroke-width="3" stroke-miterlimit="10"/>
<path d="M79.6 41C78 36.8 67.5 30.3 53.8 27.4" stroke="white" stroke-width="3" stroke-miterlimit="10" stroke-linecap="round"/>
<path d="M50.2 44.8C62.1 47.3 72.5 47.2 75.9 44.8" stroke="white" stroke-width="3" stroke-miterlimit="10" stroke-linecap="round"/>
<path d="M44 74.4L25.2 70.5C18.4 69.1 14.6 61.2 17 53.8L21.6 40C22.8 36.5 20.6 32.7 17 31.9L10.1 30.5C8.89999 30.3 7.79999 31 7.49999 32.1L5.59999 38.8C5.19999 40.1 5.99999 41.4 7.29999 41.6L10.8 42.3C11.9 42.5 13.1 41.9 13.4 40.8L16.3 31.7" stroke="white" stroke-width="3" stroke-miterlimit="10"/>
<path d="M24.8 29.5C27.9 26.3 40.2 24.5 53.9 27.3" stroke="white" stroke-width="3" stroke-miterlimit="10" stroke-linecap="round"/>
<path d="M50.2 44.8C38.3 42.3 28.8 38.1 26.6 34.6" stroke="white" stroke-width="3" stroke-miterlimit="10" stroke-linecap="round"/>
<path d="M58.6 27.9C59.5 27.3 60.1 26.4 60.4 25.3C60.9 22.7 58.8 20 55.5 19.3C52.2 18.6 49.2 20.2 48.6 22.8C48 25.4 48.7 25.4 49.6 26.4" stroke="white" stroke-width="3" stroke-miterlimit="10" stroke-linecap="round"/>
</svg>
