<svg viewBox="0 0 100 100" fill="none" xmlns="http://www.w3.org/2000/svg">
<path d="M87.4 43.5L66.5 89.5C65.7 91.2 63.7 92.2 61.8 91.9L17.2 83.2C15.1 82.9 13.9 81.1 13.9 79.4L15.2 29.6" stroke="white" stroke-width="4.6" stroke-miterlimit="10"/>
<path d="M13.2 27C11.9 27.8 10.2 27.6 11.1 27C12.2 26.2 14.9 26.2 15.1 28.3V30.4" stroke="white" stroke-width="4.6" stroke-miterlimit="10" stroke-linecap="round"/>
<path d="M15.1 29.2L13.8 79C13.8 80.9 15.2 82.5 17.1 83L61.7 91.7C63.8 92 65.7 91.1 66.4 89.5L87.3 43.5" stroke="white" stroke-width="4.6" stroke-miterlimit="10"/>
<path d="M90.1 42.1C90.9 43.2 92.6 43.8 92 42.9C91.2 41.8 89 40.7 87.9 42.6C87.4 43.4 87.4 43.5 87 44.5" stroke="white" stroke-width="4.6" stroke-miterlimit="10" stroke-linecap="round"/>
<path d="M78.7 43.2C73.3 45.4 62.1 45.1 49.4 42.3C37.4 39.6 27.6 35.2 23.3 31.1" stroke="white" stroke-width="4.6" stroke-miterlimit="10" stroke-linecap="round"/>
<path d="M46.9 32.1C49 26.4 55.8 22.9 63.4 23.9C71 24.8 77.3 30.7 77.2 37" stroke="white" stroke-width="4.1" stroke-miterlimit="10" stroke-linecap="round"/>
<path d="M27.2 25C26.4 17.9 31.2 10.9 38.8 8.7C46.4 6.5 54.8 10.3 57.8 17.4" stroke="white" stroke-width="4.6" stroke-miterlimit="10" stroke-linecap="round"/>
<path d="M82.1 15.2L74.2 26.2" stroke="white" stroke-width="4.6" stroke-miterlimit="10" stroke-linecap="round"/>
</svg>
