<svg viewBox="0 0 100 100" fill="none" xmlns="http://www.w3.org/2000/svg">
<path d="M47.5 67.9L43.2 69.8C42.2 70.3 42.2 71.7 43.2 72.2L51.6 76.7C52.5 77.2 53.7 76.5 53.6 75.4L53.2 70.2" stroke="white" stroke-width="4" stroke-miterlimit="10" stroke-linecap="round"/>
<path d="M19.1 90L16.9 92.1C16.8 92.1 16.9 92.4 17 92.4L20.2 92.9C20.4 92.9 20.5 92.9 20.5 92.6L19.5 90C19.5 89.8 19.2 89.8 19.1 90Z" stroke="white" stroke-width="4" stroke-miterlimit="10" stroke-linecap="round"/>
<path d="M19.1 90L19.9 89C22 87.1 25.3 84.9 29.1 85.1C32.3 85.3 33.6 87.1 36 87.1C38.4 87.1 42 85.2 46.4 76.3" stroke="white" stroke-width="4" stroke-miterlimit="10" stroke-linecap="round"/>
<path d="M60.3 69.8C71.4 70.1 82.2 63.2 86.6 51.9C91 40.6 85.4 21.7 71.6 16.4C57.8 11 42.1 18.3 36.6 32.5C31.1 46.7 35.1 54.6 42.5 62" stroke="white" stroke-width="4" stroke-miterlimit="10" stroke-linecap="round"/>
</svg>
