<?xml version="1.0" encoding="UTF-8"?>
<svg id="_レイヤー_1" data-name="レイヤー 1" xmlns="http://www.w3.org/2000/svg" version="1.1" viewBox="0 0 100 100">
  <defs>
    <style>
      .cls-1 {
        fill: #fff;
        stroke-width: 0px;
      }
    </style>
  </defs>
  <path class="cls-1" d="M72,27v54H29V27h43M72.7,22H28.3c-2.4,0-4.3,1.9-4.3,4.3v55.3c0,2.4,1.9,4.3,4.3,4.3h44.3c2.4,0,4.3-1.9,4.3-4.3V26.3c0-2.4-1.9-4.3-4.3-4.3h0Z"/>
  <path class="cls-1" d="M64.3,34h-28.6c-.9,0-1.7.8-1.7,1.7v4.6c0,.9.8,1.7,1.7,1.7h28.6c.9,0,1.7-.8,1.7-1.7v-4.6c0-.9-.8-1.7-1.7-1.7h0Z"/>
  <path class="cls-1" d="M64.3,50h-28.6c-.9,0-1.7.8-1.7,1.7v2.6c0,.9.8,1.7,1.7,1.7h28.6c.9,0,1.7-.8,1.7-1.7v-2.6c0-.9-.8-1.7-1.7-1.7h0Z"/>
  <path class="cls-1" d="M64.3,61h-28.6c-.9,0-1.7.8-1.7,1.7v2.6c0,.9.8,1.7,1.7,1.7h28.6c.9,0,1.7-.8,1.7-1.7v-2.6c0-.9-.8-1.7-1.7-1.7h0Z"/>
</svg>