<?xml version="1.0" encoding="UTF-8"?>
<svg id="_レイヤー_1" data-name="レイヤー 1" xmlns="http://www.w3.org/2000/svg" version="1.1" viewBox="0 0 100 100">
  <defs>
    <style>
      .cls-1, .cls-2, .cls-3 {
        fill: none;
        stroke: #fff;
        stroke-miterlimit: 10;
      }

      .cls-1, .cls-3 {
        stroke-width: 8.2px;
      }

      .cls-2 {
        stroke-width: 5px;
      }

      .cls-2, .cls-3 {
        stroke-linecap: round;
      }

      .cls-4 {
        fill-rule: evenodd;
      }

      .cls-4, .cls-5 {
        fill: #fff;
        stroke-width: 0px;
      }
    </style>
  </defs>
  <g>
    <path class="cls-5" d="M17.5,29.7c-.6,0-.9-.3-.9-.6,0-.3.1-.6.5-.7,12.6-5.1,27.8-16.4,31.9-22.3.2-.2.5-.4.8-.4s.7.1.8.4c3.9,5.7,17.5,15.9,32.7,22.3.4.2.6.4.5.7,0,.3-.4.6-.9.6H17.5Z"/>
    <path class="cls-5" d="M49.8,6c.3,0,.5,0,.6.3,3.9,5.7,17.6,16,32.8,22.4.1,0,.4.2.3.4,0,.2-.3.4-.7.4H17.5c-.4,0-.6-.2-.7-.4,0-.2.2-.4.3-.4,10.3-4.2,26.9-15.1,32-22.4.1-.2.3-.3.6-.3M49.8,5.4c-.4,0-.8.2-1.1.5-4.1,5.9-19.2,17.1-31.8,22.2-1.2.5-.8,1.9.6,1.9h65.4c1.3,0,1.7-1.4.6-1.9-15.2-6.5-28.8-16.7-32.6-22.2-.2-.3-.6-.5-1.1-.5h0Z"/>
  </g>
  <g>
    <path class="cls-5" d="M5.6,53.9c-.7,0-1.4-.3-1.8-.9-.4-.6-.6-1.3-.3-2l2.9-9.5c.3-1,1.2-1.6,2.2-1.6h83.3c1,0,1.9.6,2.2,1.6l2.9,9.5c.2.7,0,1.4-.3,2-.4.6-1.1.9-1.8.9H5.6Z"/>
    <path class="cls-5" d="M91.8,40.3c.8,0,1.5.5,1.8,1.3l2.9,9.5c.2.6,0,1.2-.3,1.6-.4.5-.9.7-1.5.7H5.6c-.6,0-1.1-.3-1.5-.7-.4-.5-.5-1.1-.3-1.6l2.9-9.5c.2-.8,1-1.3,1.8-1.3h83.3M91.8,39.5H8.5c-1.2,0-2.2.8-2.5,1.9l-2.9,9.5c-.5,1.7.8,3.4,2.5,3.4h89c1.8,0,3-1.7,2.5-3.4l-2.9-9.5c-.3-1.1-1.4-1.9-2.5-1.9h0Z"/>
  </g>
  <g>
    <path class="cls-1" d="M22.2,122.4"/>
    <path class="cls-4" d="M22.2,122.4"/>
  </g>
  <g>
    <path class="cls-1" d="M22.2,78.9"/>
    <path class="cls-4" d="M22.2,78.9"/>
  </g>
  <g>
    <line class="cls-3" x1="85.3" y1="51.8" x2="85.3" y2="89.7"/>
    <line class="cls-5" x1="85.3" y1="51.8" x2="85.3" y2="89.7"/>
  </g>
  <g>
    <line class="cls-3" x1="16.5" y1="52.1" x2="16.5" y2="89.4"/>
    <line class="cls-5" x1="16.5" y1="52.1" x2="16.5" y2="89.4"/>
  </g>
  <g>
    <line class="cls-2" x1="31.3" y1="44.9" x2="31.3" y2="73.2"/>
    <line class="cls-5" x1="31.3" y1="44.9" x2="31.3" y2="73.2"/>
  </g>
  <g>
    <line class="cls-2" x1="69.1" y1="44.6" x2="69.1" y2="72.8"/>
    <line class="cls-5" x1="69.1" y1="44.6" x2="69.1" y2="72.8"/>
  </g>
</svg>