<svg width="410" height="410" viewBox="0 0 410 410" fill="none" xmlns="http://www.w3.org/2000/svg">
<mask id="mask0_1_2" style="mask-type:alpha" maskUnits="userSpaceOnUse" x="6" y="6" width="398" height="398">
<rect x="10.5" y="10.5" width="389" height="389" fill="#D9D9D9" stroke="black" stroke-width="9" stroke-linejoin="round"/>
</mask>
<g mask="url(#mask0_1_2)">
<path d="M209.104 62.5C209.104 60.0147 207.089 58 204.604 58H86.25C78.6452 58 71.9801 60.9059 66.443 66.443C60.9059 71.9801 58 78.6452 58 86.25V323.75C58 331.355 60.9059 338.02 66.443 343.557C71.9801 349.094 78.6452 352 86.25 352H204.604C207.089 352 209.104 349.985 209.104 347.5V323.75C209.104 321.265 207.089 319.25 204.604 319.25H90.75V90.75H204.604C207.089 90.75 209.104 88.7353 209.104 86.25V62.5ZM258.422 254.068C257.578 254.912 257.104 256.057 257.104 257.25C257.104 258.443 257.578 259.588 258.422 260.432L275.443 277.453C277.2 279.21 280.05 279.21 281.807 277.453L350.682 208.578C352.439 206.82 352.439 203.971 350.682 202.214L281.015 132.547C280.171 131.703 279.027 131.229 277.833 131.229C276.64 131.229 275.495 131.703 274.651 132.547L257.631 149.568C255.873 151.325 255.873 154.175 257.631 155.932L290.324 188.625H157.5C155.015 188.625 153 190.64 153 193.125V216.875C153 219.36 155.015 221.375 157.5 221.375H291.115L258.422 254.068Z" fill="black" stroke="black" stroke-width="9" stroke-linejoin="round"/>
</g>
</svg>
