<?xml version="1.0" encoding="UTF-8"?>
<svg id="_レイヤー_1" data-name="レイヤー 1" xmlns="http://www.w3.org/2000/svg" version="1.1" viewBox="0 0 100 100">
  <defs>
    <style>
      .cls-1 {
        stroke-width: 6px;
      }

      .cls-1, .cls-2, .cls-3, .cls-4 {
        fill: none;
      }

      .cls-1, .cls-2, .cls-3, .cls-4, .cls-5 {
        stroke-miterlimit: 10;
      }

      .cls-1, .cls-2, .cls-4, .cls-5 {
        stroke: #fff;
      }

      .cls-1, .cls-3 {
        stroke-linecap: round;
      }

      .cls-2 {
        stroke-width: 4px;
      }

      .cls-3 {
        stroke: #000;
        stroke-width: 4.3px;
      }

      .cls-4 {
        stroke-width: 3.8px;
      }

      .cls-4, .cls-6 {
        fill-rule: evenodd;
      }

      .cls-6, .cls-7 {
        stroke-width: 0px;
      }

      .cls-6, .cls-7, .cls-5 {
        fill: #fff;
      }
    </style>
  </defs>
  <g>
    <circle class="cls-7" cx="82.2" cy="58.7" r="1.7"/>
    <path class="cls-6" d="M87.4,50.8h-10.3c-1.5,0-2.8,1.2-2.8,2.8v22.8c0,1.5,1.2,2.8,2.8,2.8h10.3c1.5,0,2.8-1.2,2.8-2.8v-22.8c0-1.5-1.2-2.8-2.8-2.8ZM82.2,74.8c-2.5,0-4.5-2-4.5-4.5s2-4.5,4.5-4.5,4.5,2,4.5,4.5-2,4.5-4.5,4.5ZM82.2,63.2c-2.5,0-4.5-2-4.5-4.5s2-4.5,4.5-4.5,4.5,2,4.5,4.5-2,4.5-4.5,4.5Z"/>
    <circle class="cls-7" cx="82.2" cy="70.3" r="1.7"/>
  </g>
  <line class="cls-1" x1="15" y1="51" x2="15" y2="31"/>
  <g>
    <path class="cls-7" d="M13.5,78.7c-1,0-1.6-.4-1.7-.9-.1-.4.1-.6.4-.8l3.2-2.2c.6.2,1.2.3,1.8.3,2.7,0,4.9-2.2,4.9-4.9s0,0,0-.1l5.7-4c.3-.2.8-.4,1.3-.4h42.1c.5,0,1,.1,1.3.4l5.1,3.5c0,.2,0,.4,0,.6,0,2.7,2.2,4.9,4.9,4.9s1.5-.2,2.2-.5l3.4,2.4c.2.2.5.5.4.8-.1.4-.8.9-1.7.9H13.5Z"/>
    <path class="cls-7" d="M71,66.2c.4,0,.9.1,1.1.3l4.9,3.4c0,.1,0,.3,0,.4,0,2.9,2.3,5.2,5.2,5.2s1.5-.2,2.2-.5l3.3,2.3c.1.1.3.3.3.4,0,.3-.6.6-1.4.6H13.5c-.8,0-1.3-.4-1.4-.6,0-.2.1-.3.3-.4l3-2.1c.6.2,1.1.3,1.7.3,2.9,0,5.2-2.3,5.2-5.2l5.5-3.9c.3-.2.7-.3,1.1-.3h42.1M71,65.5H29c-.6,0-1.1.2-1.5.4l-5.9,4.1c0,.1,0,.2,0,.3,0,2.5-2,4.5-4.5,4.5s-1.3-.1-1.8-.4l-3.3,2.3c-1.3.9-.3,2.3,1.5,2.3h73c1.8,0,2.8-1.4,1.5-2.3l-3.6-2.5c-.7.4-1.4.6-2.2.6-2.5,0-4.5-2-4.5-4.5s0-.5,0-.8l-5.2-3.7c-.4-.3-1-.4-1.5-.4h0Z"/>
  </g>
  <path class="cls-3" d="M9.2,35.5"/>
  <path class="cls-3" d="M9,78.6"/>
  <line class="cls-1" x1="85.4" y1="51" x2="85.4" y2="31"/>
  <rect class="cls-5" x="30.5" y="36.5" width="39.5" height="24.5"/>
  <g>
    <rect class="cls-2" x="11" y="13" width="78" height="16.4" rx="2.7" ry="2.7"/>
    <path class="cls-4" d="M20.3,13.9l-7.9,12c-.3.5,0,1.1.6,1.1h15.7c.5,0,.9-.6.6-1.1l-7.9-12c-.3-.4-.9-.4-1.2,0Z"/>
    <path class="cls-4" d="M39.9,13.9l-7.9,12c-.3.5,0,1.1.6,1.1h15.7c.5,0,.9-.6.6-1.1l-7.9-12c-.3-.4-.9-.4-1.2,0Z"/>
    <path class="cls-4" d="M59.9,13.9l-7.9,12c-.3.5,0,1.1.6,1.1h15.7c.5,0,.9-.6.6-1.1l-7.9-12c-.3-.4-.9-.4-1.2,0Z"/>
    <path class="cls-4" d="M78.9,13.9l-7.9,12c-.3.5,0,1.1.6,1.1h15.7c.5,0,.9-.6.6-1.1l-7.9-12c-.3-.4-.9-.4-1.2,0Z"/>
  </g>
  <circle class="cls-7" cx="17.2" cy="58.4" r="1.7"/>
  <path class="cls-6" d="M22.3,50.5h-10.3c-1.5,0-2.8,1.2-2.8,2.8v22.8c0,1.5,1.2,2.8,2.8,2.8h10.3c1.5,0,2.8-1.2,2.8-2.8v-22.8c0-1.5-1.2-2.8-2.8-2.8ZM17.2,74.6c-2.5,0-4.5-2-4.5-4.5s2-4.5,4.5-4.5,4.5,2,4.5,4.5-2,4.5-4.5,4.5ZM17.2,62.9c-2.5,0-4.5-2-4.5-4.5s2-4.5,4.5-4.5,4.5,2,4.5,4.5-2,4.5-4.5,4.5Z"/>
  <circle class="cls-7" cx="17.2" cy="70.1" r="1.7"/>
</svg>