<svg width="39" height="35" viewBox="0 0 39 35" fill="none" xmlns="http://www.w3.org/2000/svg">
<path d="M19.6199 8.17999C16.4499 8.17999 13.8799 10.95 13.8799 14.36C13.8799 17.77 16.4499 20.54 19.6199 20.54C22.7899 20.54 25.3599 17.77 25.3599 14.36C25.3599 10.95 22.7899 8.17999 19.6199 8.17999Z" stroke="black" stroke-width="2.2269" stroke-miterlimit="10"/>
<path d="M11.8301 29.73C12.5801 25.26 16.0501 21.43 19.9901 21.64C23.7401 21.85 26.9201 25.56 27.4101 29.78" stroke="black" stroke-width="2.3567" stroke-miterlimit="10"/>
<path d="M33.8298 23.78C30.7298 30.16 23.5798 33.86 16.3298 32.31C9.79981 30.91 5.08981 25.66 4.05981 19.45" stroke="black" stroke-width="2.7129" stroke-miterlimit="10" stroke-linecap="round"/>
<path d="M3.34988 18.84L1.87988 24.57" stroke="black" stroke-width="2.7129" stroke-miterlimit="10" stroke-linecap="round"/>
<path d="M3.59985 18.96L8.49985 21.8" stroke="black" stroke-width="2.7129" stroke-miterlimit="10" stroke-linecap="round"/>
<path d="M5.68994 9.92002C8.98994 3.64002 16.2599 0.17002 23.4499 1.95002C29.9299 3.55002 34.4699 8.95002 35.2999 15.2" stroke="black" stroke-width="2.7129" stroke-miterlimit="10" stroke-linecap="round"/>
<path d="M36 15.83L37.65 10.15" stroke="black" stroke-width="2.7129" stroke-miterlimit="10" stroke-linecap="round"/>
<path d="M35.7399 15.7L30.9399 12.71" stroke="black" stroke-width="2.7129" stroke-miterlimit="10" stroke-linecap="round"/>
</svg>
