<svg width="32" height="28" viewBox="0 0 32 28" fill="none" xmlns="http://www.w3.org/2000/svg">
<path d="M15.8865 7.24097C13.405 7.24097 11.3933 9.40926 11.3933 12.0785C11.3933 14.7478 13.405 16.9161 15.8865 16.9161C18.3679 16.9161 20.3796 14.7478 20.3796 12.0785C20.3796 9.40926 18.3679 7.24097 15.8865 7.24097Z" stroke="white" stroke-width="2.2269" stroke-miterlimit="10"/>
<path d="M9.78882 24.1096C10.3759 20.6106 13.0921 17.6126 16.1763 17.777C19.1117 17.9413 21.6009 20.8455 21.9845 24.1488" stroke="white" stroke-width="2.3567" stroke-miterlimit="10"/>
<path d="M27.0097 19.4522C24.5831 24.4463 18.9862 27.3426 13.3111 26.1293C8.19956 25.0334 4.51268 20.9238 3.70642 16.0627" stroke="white" stroke-width="2.7129" stroke-miterlimit="10" stroke-linecap="round"/>
<path d="M3.15068 15.5852L2 20.0705" stroke="white" stroke-width="2.7129" stroke-miterlimit="10" stroke-linecap="round"/>
<path d="M3.34637 15.6792L7.18198 17.9023" stroke="white" stroke-width="2.7129" stroke-miterlimit="10" stroke-linecap="round"/>
<path d="M4.98242 8.60295C7.56559 3.6871 13.2564 0.970866 18.8846 2.36421C23.957 3.61665 27.5108 7.84365 28.1605 12.736" stroke="white" stroke-width="2.7129" stroke-miterlimit="10" stroke-linecap="round"/>
<path d="M28.7084 13.2291L30 8.78296" stroke="white" stroke-width="2.7129" stroke-miterlimit="10" stroke-linecap="round"/>
<path d="M28.5049 13.1274L24.7476 10.7869" stroke="white" stroke-width="2.7129" stroke-miterlimit="10" stroke-linecap="round"/>
</svg>
