<svg width="15" height="16" viewBox="0 0 15 16" fill="none" xmlns="http://www.w3.org/2000/svg">
<g id="TrashOutline" clip-path="url(#clip0_828_2235)">
<path id="Vector" d="M12.7998 3.9998L12.1062 13.7134C12.0775 14.1171 11.8968 14.4949 11.6007 14.7707C11.3045 15.0465 10.9149 15.1998 10.5102 15.1998H3.8894C3.48472 15.1998 3.09506 15.0465 2.79891 14.7707C2.50277 14.4949 2.32214 14.1171 2.2934 13.7134L1.5998 3.9998M5.5998 7.1998V11.9998M8.7998 7.1998V11.9998M9.5998 3.9998V1.5998C9.5998 1.38763 9.51552 1.18415 9.36549 1.03412C9.21546 0.88409 9.01198 0.799805 8.7998 0.799805H5.5998C5.38763 0.799805 5.18415 0.88409 5.03412 1.03412C4.88409 1.18415 4.7998 1.38763 4.7998 1.5998V3.9998M0.799805 3.9998H13.5998" stroke="currentColor" stroke-width="2" stroke-linecap="round" stroke-linejoin="round"/>
</g>
<defs>
<clipPath id="clip0_828_2235">
<rect width="14.4" height="16" fill="white"/>
</clipPath>
</defs>
</svg>
