<svg width="36" height="36" viewBox="0 0 36 36" fill="none" xmlns="http://www.w3.org/2000/svg">
<g clip-path="url(#clip0_2279_978)">
<circle cx="17.5714" cy="17.5714" r="17.5714" fill="white"/>
<path d="M18 0C8.05901 0 0 8.0588 0 18C0 27.9412 8.05901 36 18 36C27.9412 36 36 27.9412 36 18C36 8.0588 27.9412 0 18 0ZM19.6271 28.6496C19.1756 29.1118 18.6202 29.3461 17.9764 29.3461C17.3309 29.3461 16.7877 29.1196 16.3608 28.6724C15.9384 28.2296 15.7242 27.6814 15.7242 27.0426C15.7242 26.4026 15.9434 25.8531 16.3763 25.41C16.8119 24.9648 17.359 24.7391 18.0023 24.7391C18.6439 24.7391 19.1943 24.964 19.6376 25.4074C20.0809 25.8506 20.3055 26.4011 20.3055 27.0427C20.3055 27.6487 20.0775 28.1893 19.6271 28.6496ZM20.5291 12.2086C20.4088 12.9721 20.2373 13.9864 20.0166 15.252C19.8176 16.3268 19.6567 17.3329 19.5375 18.2455C19.4172 19.1676 19.2871 20.1896 19.1475 21.3116C19.07 21.7749 18.9223 22.0834 18.6938 22.2691C18.5027 22.4245 18.2928 22.5034 18.0709 22.5034C18.0193 22.5034 17.967 22.4992 17.9144 22.4904C17.66 22.4478 17.4293 22.3174 17.2271 22.1029C17.025 21.8865 16.909 21.6379 16.8822 21.3633C16.7426 20.3338 16.6025 19.3217 16.4625 18.3398C16.3246 17.3741 16.1532 16.3362 15.9533 15.2554C15.7276 14.0025 15.5644 13.0142 15.455 12.2331C15.3413 11.4294 15.2864 10.9221 15.2864 10.6821C15.2864 9.60708 15.5226 8.75813 15.989 8.15885C16.4757 7.53349 17.1525 7.21652 18.0001 7.21652C18.8476 7.21652 19.5244 7.53349 20.0111 8.15885C20.4775 8.75897 20.7137 9.60799 20.7137 10.6821C20.7136 10.9248 20.6549 11.4099 20.5291 12.2086Z" fill="black"/>
</g>
<defs>
<clipPath id="clip0_2279_978">
<rect width="36" height="36" fill="white"/>
</clipPath>
</defs>
</svg>
